<svg width="860" height="690" viewBox="0 0 860 690" fill="none" xmlns="http://www.w3.org/2000/svg">
<path d="M752.085 123.146C725.375 143.981 692.485 138.312 678.614 110.467C664.742 82.6215 675.136 43.1656 701.826 22.3313C728.535 1.49704 761.425 7.16556 775.297 35.0109C789.168 62.8563 778.774 102.312 752.085 123.146Z" fill="#EDC800"/>
<g opacity="0.2">
<path d="M752.084 123.148C725.374 143.983 692.484 138.314 678.613 110.469C664.741 82.6235 675.135 43.1676 701.825 22.3333C728.534 1.49899 761.424 7.16751 775.296 35.0129C789.167 62.8582 778.773 102.314 752.084 123.148Z" fill="#0A0B0A"/>
</g>
<path d="M747.215 113.375C720.506 134.209 687.616 128.541 673.744 100.695C659.873 72.85 670.266 33.3941 696.956 12.5598C723.665 -8.27444 756.555 -2.60593 770.427 25.2394C784.298 53.0848 773.905 92.5407 747.215 113.375Z" fill="#EDC800"/>
<g opacity="0.1">
<path d="M776.527 50.3486C776.229 41.5226 774.262 32.9452 770.426 25.2629C756.555 -2.58248 723.645 -8.25101 696.955 12.5833C686.045 21.1109 677.857 32.7215 672.929 45.401C683.322 57.0116 695.544 65.8375 708.879 71.1083C722.075 76.3044 735.569 76.8017 748.407 69.7906C757.27 64.9425 768.995 59.5475 776.527 50.3734V50.3486Z" fill="#FAFAFA"/>
</g>
<path d="M741.512 99.4525C720.983 115.464 695.863 111.411 685.39 90.4027C674.917 69.3944 683.065 39.3861 703.574 23.375C724.103 7.3639 749.223 11.4164 759.696 32.4247C770.169 53.4331 762.021 83.4414 741.512 99.4525Z" fill="#EDC800"/>
<g opacity="0.2">
<path d="M741.51 99.4515C720.981 115.463 695.861 111.41 685.388 90.4018C674.915 69.3934 683.063 39.3851 703.572 23.374C724.101 7.36292 749.221 11.4154 759.694 32.4238C770.167 53.4321 762.019 83.4404 741.51 99.4515Z" fill="#0A0B0A"/>
</g>
<path d="M741.532 101.986C721.5 117.624 697.056 113.77 686.9 93.4332C676.765 73.0962 684.774 43.9331 704.786 28.295C724.818 12.6568 749.262 16.4856 759.418 36.8475C769.573 57.2094 761.544 86.3724 741.532 101.986Z" fill="#EDC800"/>
<g opacity="0.2">
<path d="M741.531 101.988C721.499 117.626 697.055 113.772 686.9 93.4352C676.765 73.0981 684.774 43.9351 704.786 28.2969C724.818 12.6588 749.262 16.4875 759.417 36.8494C769.572 57.2113 761.544 86.3744 741.531 101.988Z" fill="#FAFAFA"/>
</g>
<path d="M764.187 59.0537C764.187 59.0537 764.187 59.5012 764.107 60.3465C763.988 61.1918 763.948 62.4598 763.63 64.0261C763.153 67.2084 762.08 71.7333 760.073 76.9543C758.086 82.1753 754.946 87.993 750.653 93.4875C748.467 96.1726 746.043 98.8328 743.26 101.195C740.478 103.532 737.437 105.595 734.139 107.286C727.58 110.543 720.903 112.532 714.722 112.532C708.562 112.681 703.057 110.667 698.983 107.833C694.889 105.023 692.226 101.568 690.517 99.1809C689.682 97.9378 689.126 96.8936 688.709 96.2223C688.311 95.5261 688.112 95.1532 688.132 95.1284C688.152 95.1284 688.41 95.4267 688.848 96.0731C689.305 96.6947 689.921 97.6891 690.775 98.8825C692.564 101.17 695.247 104.452 699.281 107.112C703.295 109.772 708.661 111.662 714.703 111.463C720.744 111.388 727.302 109.424 733.781 106.217C737 104.576 740.001 102.537 742.724 100.275C745.446 97.9875 747.851 95.377 750.017 92.7665C754.27 87.3963 757.41 81.7526 759.457 76.6311C761.504 71.5095 762.676 67.0841 763.253 63.9515C763.849 60.8438 764.067 59.0786 764.147 59.0786L764.187 59.0537Z" fill="#263238"/>
<path d="M691.966 17.8071C691.966 17.8071 692.383 17.2353 693.218 16.3651C694.053 15.4701 695.345 14.3016 696.974 12.959C700.253 10.2491 705.082 7.01704 710.786 4.63029C716.49 2.26841 721.915 1.2242 725.83 0.950717C727.797 0.801546 729.387 0.776691 730.48 0.851277C731.573 0.925863 732.189 0.975587 732.17 1.07503C732.17 1.27393 729.745 1.27393 725.87 1.74631C721.994 2.24355 716.688 3.38719 711.064 5.72421C705.44 8.0861 700.631 11.1441 697.312 13.6552C693.973 16.1662 692.046 17.9811 691.946 17.832L691.966 17.8071Z" fill="#FAFAFA"/>
<path d="M679.983 34.9126C679.785 34.7137 680.937 32.3767 682.587 29.6916C684.216 27.0065 685.707 24.9927 685.906 25.1667C686.104 25.3408 684.952 27.7026 683.302 30.3877C681.673 33.0728 680.182 35.0866 679.983 34.9126Z" fill="#FAFAFA"/>
<path d="M761.345 48.3654C761.186 48.44 760.57 45.8793 758.94 42.1748C758.145 40.3102 757.012 38.2218 755.621 36.0339C754.19 33.8958 752.481 31.6831 750.494 29.6444C748.467 27.6555 746.38 26.0394 744.393 24.7466C742.386 23.5284 740.518 22.6085 738.888 22.0118C735.649 20.8184 733.522 20.6195 733.542 20.3958C733.542 20.3212 734.079 20.3212 735.033 20.3958C735.987 20.4455 737.378 20.719 739.047 21.2162C740.736 21.7135 742.684 22.5588 744.751 23.777C746.797 25.045 748.964 26.661 751.05 28.7245C753.097 30.8129 754.846 33.1002 756.257 35.3378C757.648 37.6251 758.741 39.8129 759.477 41.7522C760.232 43.6914 760.748 45.3323 760.987 46.5008C761.245 47.6693 761.365 48.3157 761.305 48.3406L761.345 48.3654Z" fill="#FAFAFA"/>
<path d="M727.997 44.9337C727.997 44.9337 728.057 44.2624 728.574 43.5414C729.09 42.8204 730.024 42.0248 731.197 41.6768C732.369 41.3287 733.482 41.5276 734.198 41.9005C734.913 42.2734 735.271 42.7209 735.211 42.8453C735.092 43.1436 733.443 42.174 731.415 42.7955C729.369 43.3425 728.236 45.1326 728.017 44.9337H727.997Z" fill="#FAFAFA"/>
<path d="M707.368 60.6395C707.249 60.6892 707.09 60.54 707.031 60.1671C706.971 59.8191 707.07 59.297 707.368 58.924C707.667 58.5511 708.064 58.4019 708.362 58.4517C708.64 58.5014 708.779 58.7003 708.74 58.8494C708.66 59.1478 708.303 59.3218 708.024 59.7196C707.726 60.0925 707.607 60.5152 707.368 60.6395Z" fill="#FAFAFA"/>
<path d="M164.372 657.259C150.779 633.765 121.427 609.649 84.8799 592.444C48.3332 575.24 13.5751 569.173 -9.04056 575.638L-24.6807 568.278L-33.5243 597.69C-43.1031 629.538 -5.04607 676.925 51.4731 703.527C107.992 730.13 161.57 725.878 171.149 694.03L179.993 664.618L164.353 657.259H164.372Z" fill="#EDC800"/>
<g opacity="0.2">
<path d="M164.373 657.259C150.779 633.765 121.427 609.649 84.8801 592.444C48.3334 575.24 13.5753 569.173 -9.04032 575.638L-24.6805 568.278L-33.524 597.69C-43.1029 629.538 -5.04582 676.925 51.4734 703.527C107.993 730.13 161.571 725.878 171.149 694.03L179.993 664.618L164.353 657.259H164.373Z" fill="#0A0B0A"/>
</g>
<path d="M59.7007 676.202C3.18147 649.599 -34.8955 602.237 -25.3166 570.414C-15.7378 538.591 37.8204 534.364 94.3396 560.967C150.859 587.569 188.916 634.931 179.357 666.754C169.778 698.577 116.22 702.804 59.7007 676.202Z" fill="#EDC800"/>
<g opacity="0.1">
<path d="M32.6724 580.307C40.9198 589.754 49.2267 599.873 58.4876 607.779C91.5565 636.022 134.88 644.376 172.003 627.122C158.39 602.881 130.071 577.796 94.3388 560.964C60.1371 544.854 27.0284 540.08 4.07495 545.848C13.3358 557.682 22.9147 569.119 32.6724 580.307Z" fill="#FAFAFA"/>
</g>
<path d="M68.6047 653.778C25.162 633.342 -6.7741 606.292 -0.355076 584.911C6.46141 562.212 48.4335 555.922 91.8762 576.383C135.319 596.82 165.307 630.731 158.888 652.112C157.318 657.358 155.589 663.052 145.633 668.969C129.893 678.267 101.376 669.242 68.6047 653.803V653.778Z" fill="#EDC800"/>
<g opacity="0.3">
<path d="M68.6047 653.779C25.162 633.343 -6.7741 606.293 -0.355076 584.912C6.46141 562.213 48.4335 555.923 91.8762 576.384C135.319 596.821 165.307 630.732 158.888 652.113C157.318 657.359 155.589 663.053 145.633 668.97C129.893 678.268 101.376 669.243 68.6047 653.804V653.779Z" fill="#0A0B0A"/>
</g>
<path d="M64.0529 661.708C21.6635 641.744 -7.49037 608.255 -1.05147 586.873C5.36755 565.492 44.9548 564.348 87.3443 584.288C129.734 604.252 158.888 637.741 152.449 659.122C146.03 680.503 106.442 681.647 64.0529 661.683V661.708Z" fill="#EDC800"/>
<g opacity="0.2">
<path d="M64.0527 661.709C21.6633 641.745 -7.49061 608.256 -1.05171 586.874C5.36731 565.493 44.9546 564.349 87.344 584.289C129.733 604.253 158.887 637.742 152.448 659.123C146.029 680.504 106.442 681.648 64.0527 661.684V661.709Z" fill="#FAFAFA"/>
</g>
<path d="M137.524 674.413C137.524 674.413 137.067 674.562 136.212 674.661C135.199 674.785 133.947 674.91 132.416 675.084C130.767 675.283 128.76 675.432 126.395 675.506C124.05 675.606 121.367 675.755 118.426 675.656C106.641 675.581 90.1065 673.567 72.9559 666.258C55.7657 659.098 41.3974 648.979 31.4012 641.172C26.4329 637.194 22.4384 633.888 19.7754 631.451C18.5234 630.332 17.5099 629.412 16.6951 628.667C15.9995 628.02 15.6418 627.647 15.6617 627.598C15.6815 627.548 16.0989 627.821 16.8342 628.393C17.6887 629.064 18.742 629.91 20.0536 630.929C22.7961 633.216 26.8503 636.349 31.8782 640.203C41.9538 647.761 56.3221 657.631 73.3534 664.741C90.3648 672.001 106.701 674.164 118.446 674.537C121.387 674.711 124.05 674.661 126.395 674.636C128.74 674.636 130.747 674.587 132.396 674.487C133.927 674.437 135.179 674.388 136.192 674.363C137.067 674.363 137.524 674.363 137.524 674.413Z" fill="#263238"/>
<path d="M36.0913 663.324C36.0913 663.324 34.74 662.628 32.4148 661.086C30.0896 659.545 26.7708 657.208 22.7366 654.15C14.7277 648.009 3.77761 639.034 -6.75516 626.678C-12.0017 620.512 -16.5725 613.998 -20.0105 607.434C-23.4486 600.896 -25.734 594.233 -26.5488 588.34C-27.4431 582.473 -27.0059 577.55 -26.3699 574.343C-26.1116 572.702 -25.7141 571.509 -25.4558 570.713C-25.1974 569.893 -25.0583 569.495 -25.0186 569.495C-24.8795 569.545 -25.4359 571.26 -25.893 574.468C-26.3699 577.65 -26.668 582.423 -25.6744 588.117C-24.7602 593.81 -22.4748 600.224 -19.0368 606.614C-15.6186 613.028 -11.0875 619.418 -5.88074 625.509C4.55266 637.716 15.3636 646.816 23.2135 653.18C27.1683 656.338 30.4076 658.824 32.6533 660.515C34.8989 662.23 36.1311 663.175 36.0913 663.274V663.324Z" fill="#263238"/>
<path d="M30.2092 548.014C30.2092 548.238 26.8109 548.486 21.306 548.884C15.8409 549.357 8.20961 549.978 0.180862 552.763C-7.84789 555.572 -14.4259 560.544 -18.4005 565.194C-22.4348 569.818 -24.0644 573.647 -24.2631 573.473C-24.3227 573.423 -23.9849 572.428 -23.1701 570.788C-22.3553 569.122 -20.984 566.859 -19.0166 564.398C-15.1016 559.426 -8.38446 554.13 -0.156981 551.271C8.05062 548.412 15.7813 547.964 21.2663 547.79C24.0286 547.716 26.2544 547.741 27.8045 547.79C29.3546 547.84 30.2092 547.915 30.2092 548.039V548.014Z" fill="#FAFAFA"/>
<path d="M829.212 541.314C850.082 495.522 837.327 437.234 800.723 411.125C764.119 385.016 717.528 400.972 696.658 446.765C675.788 492.558 688.542 550.845 725.146 576.954C761.75 603.063 808.342 587.107 829.212 541.314Z" fill="#EDC800"/>
<g opacity="0.1">
<path d="M831.396 451.85C812.735 404.612 767.007 385.245 729.268 408.59C729.268 408.59 729.268 408.59 729.248 408.59C729.248 408.59 750.81 470.049 775.89 472.56C800.95 475.071 831.416 451.825 831.416 451.825L831.396 451.85Z" fill="#FAFAFA"/>
</g>
<path d="M820.387 460.823C834.597 496.624 822.911 540.058 794.294 557.809C765.677 575.585 730.958 560.967 716.769 525.165C702.559 489.364 714.245 445.93 742.862 428.179C771.48 410.403 806.198 425.022 820.387 460.823Z" fill="#EDC800"/>
<g opacity="0.2">
<path d="M819.313 460.945C833.523 496.746 821.837 540.18 793.22 557.931C764.603 575.707 729.884 561.089 715.695 525.287C701.485 489.486 713.171 446.052 741.788 428.301C770.406 410.525 805.124 425.144 819.313 460.945Z" fill="#0A0B0A"/>
</g>
<path d="M787.755 560.295C759.436 577.823 725.115 563.328 711.104 527.875C697.094 492.447 708.68 449.51 737.019 431.983C765.338 414.455 799.659 428.95 813.669 464.378C813.669 464.378 813.669 464.427 813.689 464.427C827.66 499.856 816.074 542.743 787.755 560.27V560.295Z" fill="#EDC800"/>
<g opacity="0.2">
<path d="M787.754 560.292C759.435 577.82 725.114 563.325 711.104 527.872C697.093 492.444 708.679 449.507 737.018 431.98C765.337 414.452 799.658 428.947 813.669 464.375C813.669 464.375 813.669 464.425 813.689 464.425C827.66 499.853 816.074 542.74 787.754 560.267V560.292Z" fill="#FAFAFA"/>
</g>
<path d="M761.403 472.88C761.463 471.861 761.721 470.891 762.158 470.046C763.112 467.908 764.583 466.217 766.352 465.198C768.14 464.204 770.147 463.98 772.055 464.552C772.89 464.676 773.665 465.074 774.341 465.695C774.341 465.695 773.486 465.322 772.095 465.049C770.267 464.676 768.398 464.949 766.709 465.894C765.04 466.864 763.629 468.43 762.635 470.369C761.741 471.836 761.483 472.93 761.403 472.905V472.88Z" fill="#FAFAFA"/>
<path d="M787.06 475.119C787.06 474.92 787.895 474.199 789.127 473.478C790.379 472.757 791.234 472.31 791.373 472.484C791.512 472.658 790.538 473.379 789.306 474.125C788.074 474.871 787.1 475.318 787.06 475.119Z" fill="#FAFAFA"/>
<path d="M821.34 439.49C821.34 439.49 820.465 438.172 818.955 435.76C817.445 433.349 815.139 429.943 812 426.139C805.779 418.531 795.604 409.581 782.726 405.081C769.829 400.605 757.428 401.699 748.962 404.186C744.689 405.404 741.331 406.821 739.045 407.915C736.76 409.009 735.508 409.68 735.468 409.581C735.468 409.531 735.746 409.307 736.323 408.934C736.899 408.586 737.734 407.989 738.886 407.393C741.132 406.125 744.49 404.534 748.783 403.166C757.309 400.382 769.928 399.089 783.064 403.639C796.2 408.213 806.475 417.487 812.616 425.368C815.736 429.321 817.961 432.851 819.353 435.387C820.088 436.63 820.565 437.675 820.903 438.371C821.24 439.067 821.399 439.44 821.36 439.465L821.34 439.49Z" fill="#FAFAFA"/>
<g opacity="0.7">
<path d="M826.912 37.9805L817.568 47.3247" stroke="#FAFAFA" stroke-width="1.16803" stroke-linecap="round" stroke-linejoin="round"/>
<path d="M817.568 37.9805L826.912 47.3247" stroke="#FAFAFA" stroke-width="1.16803" stroke-linecap="round" stroke-linejoin="round"/>
</g>
</svg>
