<svg width="1408" height="240" viewBox="0 0 1408 240" fill="none" xmlns="http://www.w3.org/2000/svg">
<g clip-path="url(#clip0_417_4279)">
<rect width="1408" height="240" rx="20" fill="url(#paint0_linear_417_4279)"/>
<g style="mix-blend-mode:multiply" opacity="0.2" clip-path="url(#clip1_417_4279)">
<path d="M1920 -900H0V1020H1920V-900Z" fill="#ED222F"/>
<path d="M1920 -900H0V1020H1920V-900Z" fill="url(#paint1_radial_417_4279)"/>
<path d="M2396.88 154.082C2400.96 90.4821 2400.96 27.6021 2397.12 -34.318L962.4 59.762V59.522L2372.64 -221.038C2360.4 -283.198 2344.08 -343.918 2323.92 -402.958L962.16 59.282V59.042L2251.68 -576.958C2223.84 -633.358 2192.16 -687.838 2157.36 -739.918L961.92 58.802C961.92 58.802 961.92 58.5619 961.68 58.5619L2042.64 -889.438C2001.12 -936.718 1956.72 -981.118 1909.44 -1022.64L961.44 58.322C961.44 58.322 961.2 58.322 961.2 58.082L1760.16 -1137.6C1708.08 -1172.4 1653.6 -1203.84 1596.96 -1231.92L960.96 57.8419H960.72L1422.96 -1303.92C1363.92 -1323.84 1303.2 -1340.16 1241.04 -1352.4L960.48 57.6021H960.24L1054.32 -1376.88C990.72 -1380.96 927.84 -1380.96 865.92 -1377.12L959.76 57.6021H959.52L678.96 -1352.64C616.8 -1340.4 556.08 -1324.08 497.04 -1303.92L959.28 57.8419H959.04L323.04 -1231.68C266.64 -1203.84 212.16 -1172.16 160.08 -1137.36L958.8 58.082C958.8 58.082 958.56 58.082 958.56 58.322L10.56 -1022.64C-36.72 -981.358 -81.12 -936.718 -122.64 -889.438L958.32 58.5619C958.32 58.5619 958.32 58.802 958.08 58.802L-237.6 -740.158C-272.4 -688.078 -303.84 -633.598 -331.92 -576.958L957.84 59.042V59.282L-403.92 -402.958C-423.84 -343.918 -440.16 -283.198 -452.4 -221.038L957.6 59.522V59.762L-476.88 -34.318C-480.96 29.282 -480.96 92.162 -477.12 154.082L957.6 60.2419V60.4821L-452.64 341.042C-440.4 403.202 -424.08 463.922 -403.92 522.962L957.84 60.7219V60.9619L-331.68 696.962C-303.84 753.362 -272.16 807.842 -237.36 859.922L958.08 61.202C958.08 61.202 958.08 61.4419 958.32 61.4419L-122.64 1009.44C-81.12 1056.72 -36.72 1101.12 10.56 1142.64L958.56 61.682C958.56 61.682 958.8 61.682 958.8 61.922L159.84 1257.6C211.92 1292.4 266.4 1323.84 323.04 1351.92L959.04 62.1619H959.28L497.04 1423.92C556.08 1443.84 616.8 1460.16 678.96 1472.4L959.52 62.402H959.76L865.68 1496.88C929.28 1500.96 992.16 1500.96 1054.08 1497.12L960.24 62.402H960.48L1241.04 1472.64C1303.2 1460.4 1363.92 1444.08 1422.96 1423.92L960.72 62.1619H960.96L1596.96 1351.68C1653.36 1323.84 1707.84 1292.16 1759.92 1257.36L961.2 61.922C961.2 61.922 961.44 61.922 961.44 61.682L1909.44 1142.64C1956.72 1101.12 2001.12 1056.72 2042.64 1009.44L961.68 61.4419C961.68 61.4419 961.68 61.202 961.92 61.202L2157.6 860.162C2192.4 808.082 2223.84 753.602 2251.92 696.962L962.16 60.9619V60.7219L2323.92 522.962C2343.84 463.922 2360.16 403.202 2372.4 341.042L962.4 60.4821V60.2419L2396.88 154.082Z" fill="url(#paint2_radial_417_4279)" fill-opacity="0.8"/>
</g>
<path d="M1298.34 234.733L1304 236.86L1299.08 238.252C1297.44 238.715 1296.13 239.97 1295.6 241.593L1293.81 247.035L1291.63 241.58C1291.08 240.229 1289.99 239.166 1288.62 238.674L1283.64 236.874L1289.02 234.665C1290.33 234.133 1291.36 233.082 1291.86 231.759L1293.81 226.699L1295.2 231.405C1295.67 232.946 1296.81 234.187 1298.31 234.746L1298.34 234.733Z" fill="#E0E0E0"/>
<path d="M838.669 37.346L844.329 39.4738L839.405 40.865C837.769 41.3287 836.459 42.5835 835.927 44.2066L834.14 49.6486L831.958 44.1929C831.413 42.8427 830.321 41.7788 828.944 41.2878L823.966 39.4874L829.353 37.2778C830.662 36.7459 831.685 35.6957 832.19 34.3727L834.14 29.3125L835.532 34.018C835.995 35.5593 837.141 36.8005 838.641 37.3597L838.669 37.346Z" fill="#E0E0E0"/>
<path d="M1284.07 147.455L1288.68 149.187L1284.67 150.319C1283.34 150.701 1282.27 151.71 1281.85 153.033L1280.4 157.466L1278.62 153.02C1278.18 151.915 1277.28 151.056 1276.16 150.647L1272.11 149.174L1276.5 147.373C1277.57 146.937 1278.4 146.077 1278.81 145.014L1280.39 140.895L1281.52 144.727C1281.89 145.982 1282.83 146.991 1284.06 147.441L1284.07 147.455Z" fill="#E0E0E0"/>
<path d="M755.482 139.23L764.798 142.735L756.71 145.027C754.009 145.791 751.868 147.85 750.995 150.523L748.062 159.471L744.462 150.496C743.561 148.273 741.761 146.527 739.51 145.709L731.327 142.735L740.192 139.094C742.334 138.207 744.025 136.489 744.857 134.32L748.062 126L750.354 133.733C751.104 136.27 753 138.303 755.468 139.23H755.482Z" fill="#E0E0E0"/>
<path d="M1201.57 33.226L1209.77 36.3085L1202.65 38.3271C1200.27 38.9954 1198.39 40.8095 1197.61 43.1554L1195.04 51.0253L1191.87 43.1281C1191.08 41.1641 1189.5 39.6365 1187.52 38.9136L1180.32 36.2949L1188.12 33.0896C1190 32.3122 1191.49 30.7982 1192.23 28.8887L1195.05 21.5645L1197.07 28.3704C1197.72 30.5936 1199.4 32.3804 1201.57 33.1987V33.226Z" fill="#E0E0E0"/>
<path d="M1231.79 258.907C1243.07 251.869 1246.51 237.02 1239.47 225.74C1232.43 214.46 1217.58 211.021 1206.3 218.058C1195.02 225.096 1191.58 239.945 1198.62 251.225C1205.66 262.505 1220.51 265.944 1231.79 258.907Z" fill="#EBEBEB"/>
<g opacity="0.1">
<path d="M1201.36 222.154C1192.34 231.92 1192.95 247.141 1202.72 256.143C1202.72 256.143 1214.75 244.236 1212.51 236.626C1210.28 229.015 1201.36 222.141 1201.36 222.141V222.154Z" fill="#FAFAFA"/>
</g>
<path d="M1204.72 224.582C1211.54 217.162 1223.1 216.685 1230.52 223.504C1237.94 230.324 1238.41 241.877 1231.59 249.296C1224.77 256.716 1213.22 257.193 1205.8 250.374C1198.38 243.554 1197.91 232.002 1204.72 224.582Z" fill="#E0E0E0"/>
<path d="M1231.83 225.195C1239.15 231.947 1239.61 243.377 1232.86 250.701C1226.11 258.025 1214.68 258.489 1207.36 251.737C1200.03 244.986 1199.57 233.556 1206.32 226.232C1213.09 218.908 1224.49 218.458 1231.81 225.209L1231.83 225.195Z" fill="#F5F5F5"/>
<path d="M1211.86 233.104C1211.86 233.104 1211.54 232.94 1211.24 232.64C1210.93 232.34 1210.73 232.122 1210.75 232.067C1210.78 232.012 1211.05 232.231 1211.37 232.531C1211.68 232.831 1211.9 233.076 1211.86 233.104Z" fill="#FAFAFA"/>
<path d="M1199.6 226.218C1199.6 226.218 1199.39 226.6 1198.98 227.255C1198.59 227.923 1198.04 228.905 1197.51 230.174C1196.42 232.697 1195.46 236.502 1195.86 240.703C1196.25 244.904 1197.92 248.464 1199.46 250.728C1200.22 251.874 1200.95 252.733 1201.46 253.319C1201.98 253.892 1202.28 254.206 1202.26 254.22C1202.26 254.22 1202.16 254.165 1202.01 254.029C1201.86 253.892 1201.63 253.701 1201.36 253.415C1200.8 252.869 1200.05 252.024 1199.24 250.878C1197.62 248.628 1195.89 245.013 1195.48 240.73C1195.07 236.448 1196.09 232.588 1197.25 230.065C1197.82 228.796 1198.41 227.814 1198.85 227.173C1199.05 226.846 1199.26 226.614 1199.38 226.45C1199.5 226.286 1199.57 226.205 1199.58 226.218H1199.6Z" fill="#FAFAFA"/>
<path d="M1083 58.8379C1100.17 64.0786 1108.66 92.7382 1097.89 105.17C1087.81 116.823 1057.67 118.042 1036.34 107.86C1016.43 98.3538 1010.09 82.3037 1010.09 82.3037L1013.09 76.5287C1039.57 79.3506 1063.07 74.063 1083 58.8379Z" fill="#202020"/>
<path d="M1042.44 92.252C1044.15 92.9927 1045.86 93.6489 1047.61 94.3895C1049.32 95.1356 1051.09 95.7621 1052.89 96.2645C1056.7 97.2559 1060.62 97.7196 1064.55 97.6427C1068.41 97.6233 1072.25 97.1002 1075.97 96.0864C1079.53 94.9833 1082.97 93.503 1086.21 91.6708C1086.32 91.6145 1086.42 91.8583 1086.34 91.9239C1080.02 97.5958 1070.88 100.361 1062.5 100.418C1061.99 100.418 1061.46 100.418 1060.95 100.361C1062.01 100.849 1063.07 101.299 1064.18 101.73C1066.85 102.679 1069.62 103.342 1072.43 103.708C1079.77 104.646 1086.49 103.174 1093.45 101.177C1093.45 101.177 1093.51 101.177 1093.45 101.243C1087.98 105.049 1080.8 106.118 1074.25 105.846C1070.92 105.705 1067.62 105.134 1064.43 104.149C1059.15 102.518 1053.77 100.521 1048.66 98.3739C1044.96 96.8171 1041.37 95.026 1037.9 93.0114C1034.19 90.9749 1030.77 88.4526 1027.72 85.5113C1027.4 85.1926 1027.07 84.7238 1027.29 84.3301C1028.64 84.6615 1029.91 85.2504 1031.04 86.0645C1033.82 87.8082 1036.67 89.4426 1039.59 90.9676C1040.57 91.3989 1041.5 91.877 1042.44 92.252Z" fill="#0A0B0A"/>
<path d="M1097.89 105.124C1096.94 106.178 1095.87 107.121 1094.71 107.936C1102.08 92.2331 1090.32 72.7892 1079.81 67.436L1080.36 60.6953C1081.24 60.0672 1082.12 59.4484 1083 58.8203C1100.17 64.0329 1108.66 92.6925 1097.89 105.124Z" fill="#434343"/>
<path d="M1015.36 72.1884C1055.01 76.0697 1065.04 58.4914 1079.03 58.4258C1083.62 58.4258 1087.22 59.8039 1089.62 63.5633C1097.99 76.6884 1080.81 92.3354 1055.25 90.4885C1029.68 88.6417 1013.06 76.5384 1013.06 76.5384L1015.36 72.1884Z" fill="#0A0B0A"/>
<path d="M1025.86 20.7479C1036.41 11.3729 1068.9 24.4136 1070.52 38.8981C1070.57 52.0232 1063.96 67.2764 1040.1 77.3359C1024.02 84.1141 1005.28 84.0766 1005.28 84.0766L999.906 69.5921L1025.86 20.7479Z" fill="#202020"/>
<path d="M1002.53 81.4604C1009.27 78.4322 1016.34 76.0228 1022.42 71.7197C1025.04 69.8712 1027.51 67.8078 1029.78 65.5509C1031.44 63.9557 1032.96 62.2315 1034.34 60.3946C1035.33 59.0352 1036.14 57.3852 1037.24 56.1289C1037.4 55.9414 1037.57 56.2508 1037.54 56.4008C1037.15 57.9429 1036.53 59.4186 1035.71 60.7789C1034.87 62.3907 1033.9 63.933 1032.81 65.3915C1030.49 68.3564 1027.76 70.9818 1024.7 73.1915L1024.03 73.6509C1028.24 72.6725 1032.36 71.3299 1036.34 69.6384C1038.26 68.8321 1040.09 67.9509 1041.96 66.9759C1043.84 66.0009 1045.52 64.6696 1047.41 64.0133C1047.66 63.9196 1047.63 64.379 1047.53 64.4915C1045.89 66.1119 1044.03 67.4913 1042 68.5884C1040.18 69.7243 1038.3 70.7602 1036.37 71.6915C1032.47 73.5329 1028.38 74.9716 1024.19 75.9853C1022.31 76.4447 1020.44 76.8103 1018.49 77.1103C1017.1 77.8603 1015.67 78.5728 1014.28 79.2197C1010.3 81.1853 1006.02 82.4899 1001.62 83.0823C1001.04 83.1385 1001.12 82.1447 1001.53 81.9385L1002.53 81.4604Z" fill="#0A0B0A"/>
<path d="M1025.85 20.7479C1036.41 11.3729 1068.9 24.4136 1070.52 38.8981C1070.52 40.8223 1070.38 42.744 1070.08 44.645C1061.3 29.9355 1037.03 20.6261 1033.69 28.173C1032.12 31.7543 1027.37 30.348 1022.3 27.423L1025.85 20.7479Z" fill="#434343"/>
<path d="M998.602 66.0581C1016.41 45.9017 1018.29 17.0827 1031.94 19.4077C1043.71 21.4046 1042.85 39.5923 1028.64 53.158C1014.43 66.7237 999.905 69.5644 999.905 69.5644L998.602 66.0581Z" fill="#0A0B0A"/>
<path d="M885.614 58.8379C868.439 64.0786 859.954 92.7382 870.717 105.17C880.804 116.823 910.945 118.042 932.274 107.86C952.186 98.3538 958.524 82.3037 958.524 82.3037L955.524 76.5287C929.002 79.3506 905.564 74.063 885.614 58.8379Z" fill="#202020"/>
<path d="M926.189 92.252C924.483 92.9927 922.767 93.6489 921.024 94.3895C919.303 95.1356 917.533 95.7621 915.727 96.2645C911.924 97.2569 908.003 97.7207 904.074 97.6427C900.216 97.6234 896.377 97.1002 892.655 96.0864C889.095 94.9833 885.663 93.503 882.417 91.6708C882.314 91.6145 882.211 91.8583 882.286 91.9239C888.605 97.5958 897.745 100.361 906.127 100.418C906.642 100.418 907.167 100.418 907.683 100.361C906.624 100.849 905.555 101.299 904.449 101.73C901.776 102.679 899.011 103.342 896.198 103.708C888.858 104.646 882.136 103.174 875.18 101.177C875.18 101.177 875.123 101.177 875.18 101.243C880.645 105.049 887.827 106.118 894.38 105.846C897.711 105.705 901.01 105.134 904.195 104.149C909.483 102.518 914.855 100.521 919.974 98.3739C923.669 96.8171 927.26 95.026 930.727 93.0114C934.439 90.9749 937.863 88.4526 940.908 85.5113C941.227 85.1926 941.564 84.7238 941.339 84.3301C939.989 84.6615 938.716 85.2504 937.589 86.0645C934.802 87.8082 931.952 89.4426 929.039 90.9676C928.064 91.3989 927.127 91.877 926.189 92.252Z" fill="#0A0B0A"/>
<path d="M870.717 105.124C871.671 106.178 872.74 107.121 873.904 107.936C866.526 92.2331 878.292 72.7892 888.801 67.436L888.248 60.6953C887.367 60.0672 886.486 59.4484 885.614 58.8203C868.439 64.0329 859.954 92.6925 870.717 105.124Z" fill="#434343"/>
<path d="M953.255 72.1884C913.598 76.0697 903.567 58.4914 889.58 58.4258C884.986 58.4258 881.386 59.8039 878.986 63.5633C870.623 76.6884 887.798 92.3354 913.364 90.4885C938.93 88.6417 955.552 76.5384 955.552 76.5384L953.255 72.1884Z" fill="#0A0B0A"/>
<path d="M942.755 20.7488C932.199 11.3737 899.714 24.3769 898.064 38.8989C898.008 52.024 904.627 67.2773 928.486 77.3367C944.574 84.1149 963.305 84.0774 963.305 84.0774L968.677 69.5929L942.755 20.7488Z" fill="#202020"/>
<path d="M966.08 81.4604C959.34 78.4322 952.271 76.0228 946.186 71.7197C943.567 69.8735 941.109 67.8099 938.836 65.5509C937.178 63.9583 935.651 62.2339 934.271 60.3946C933.277 59.0352 932.471 57.3852 931.374 56.1289C931.214 55.9414 931.036 56.2508 931.074 56.4008C931.462 57.9429 932.078 59.4186 932.902 60.7789C933.744 62.3907 934.713 63.933 935.799 65.3915C938.126 68.3564 940.855 70.9818 943.908 73.1915L944.583 73.6509C940.372 72.6725 936.253 71.3299 932.274 69.6384C930.352 68.8321 928.524 67.9509 926.649 66.9759C924.774 66.0009 923.105 64.6696 921.202 64.0133C920.949 63.9196 920.977 64.379 921.08 64.4915C922.721 66.1119 924.583 67.4913 926.611 68.5884C928.428 69.7243 930.306 70.7602 932.236 71.6915C936.142 73.5329 940.226 74.9716 944.424 75.9853C946.299 76.4447 948.174 76.8103 950.133 77.1103C951.511 77.8603 952.946 78.5728 954.333 79.2197C958.316 81.1828 962.59 82.4873 966.99 83.0823C967.571 83.1385 967.487 82.1447 967.083 81.9385L966.08 81.4604Z" fill="#0A0B0A"/>
<path d="M942.755 20.7488C932.199 11.3737 899.714 24.3769 898.064 38.8989C898.06 40.8263 898.207 42.751 898.505 44.6552C907.28 29.9364 931.552 20.5988 934.889 28.1739C936.464 31.7551 941.208 30.3489 946.28 27.4238L942.755 20.7488Z" fill="#434343"/>
<path d="M970.008 66.0581C952.196 45.9017 950.321 17.0827 936.671 19.4077C924.905 21.4046 925.758 39.5923 939.971 53.158C954.183 66.7237 968.705 69.5644 968.705 69.5644L970.008 66.0581Z" fill="#0A0B0A"/>
<path d="M1014.56 17.5411C1009.32 4.41602 992.996 3.99414 984.305 3.99414C975.615 3.99414 959.293 4.38789 954.052 17.5411C950.114 41.5695 959.293 64.3228 970.43 73.8853H998.171C1009.32 64.3228 1018.49 41.5695 1014.56 17.5411Z" fill="#202020"/>
<path d="M991.73 29.9437C991.533 31.35 991.562 32.7562 991.477 34.1719C991.393 35.5875 991.299 37.1344 991.149 38.6063C990.84 41.5782 990.333 44.4938 989.733 47.4188C989.141 50.2991 988.368 53.1392 987.418 55.922C986.949 57.3096 986.424 58.6783 985.862 60.0283C985.637 60.5721 985.374 61.1065 985.112 61.6502C984.624 60.9658 984.174 60.2721 983.686 59.5596C982.17 57.1675 980.844 54.6598 979.721 52.0595C978.562 49.317 977.594 46.4978 976.824 43.6219C976.386 42.0641 976.032 40.4836 975.765 38.8875C975.493 37.2188 975.352 35.5312 975.052 33.8719C975.005 33.6281 974.78 33.6 974.733 33.8719C974.199 36.8156 974.658 40.1344 975.043 43.0688C975.479 46.2193 976.268 49.3107 977.396 52.2845C978.433 55.1126 979.746 57.8319 981.315 60.4033C982.069 61.6519 982.889 62.8598 983.771 64.0221L984.033 64.3596H987.043C986.94 64.2002 986.837 64.0315 986.724 63.8721C987.212 62.9346 987.605 61.9971 988.008 61.0596C988.583 59.7221 989.108 58.3564 989.583 56.9627C990.57 54.11 991.351 51.1899 991.918 48.2251C992.479 45.1899 992.793 42.1141 992.855 39.0282C993.011 35.9642 992.778 32.8929 992.162 29.8875C992.068 29.5781 991.815 29.6343 991.73 29.9437Z" fill="#0A0B0A"/>
<path d="M1015.25 22.9412C1015.1 21.1537 1014.88 19.3536 1014.6 17.5411C1009.36 4.41602 993.034 3.99414 984.343 3.99414C975.652 3.99414 959.33 4.38789 954.089 17.5411C953.771 19.5005 953.546 21.4505 953.396 23.3818C961.196 12.5911 977.396 10.7254 986.462 11.3442C993.474 11.813 1006.87 14.063 1015.25 22.9412Z" fill="#434343"/>
<path d="M984.305 85.2852L861.079 156.423L984.305 227.571L1107.53 156.423L984.305 85.2852Z" fill="#EDC800"/>
<path opacity="0.4" d="M984.305 85.2852L861.079 156.423L984.305 227.571L1107.53 156.423L984.305 85.2852Z" fill="#0A0B0A"/>
<path d="M1113.78 124.857L1107.53 156.423L984.305 227.571V199.614L1113.78 124.857Z" fill="#EDC800"/>
<path opacity="0.25" d="M1113.78 124.857L1107.53 156.423L984.305 227.571V199.614L1113.78 124.857Z" fill="#0A0B0A"/>
<path d="M854.826 124.857L861.079 156.423L984.305 227.571V199.614L854.826 124.857Z" fill="#EDC800"/>
<path opacity="0.15" d="M854.826 124.857L861.079 156.423L984.305 227.571V199.614L854.826 124.857Z" fill="#0A0B0A"/>
<path d="M984.305 50.0996V85.2843L1107.53 156.422L1113.78 124.856L984.305 50.0996Z" fill="#EDC800"/>
<g opacity="0.25">
<path d="M984.305 50.1016V85.2862L1107.53 156.424L1113.78 124.858L984.305 50.1016Z" fill="white"/>
</g>
<path d="M984.305 50.0996V85.2843L861.079 156.422L854.826 124.856L984.305 50.0996Z" fill="#EDC800"/>
<path opacity="0.05" d="M984.305 50.0996V85.2843L861.079 156.422L854.826 124.856L984.305 50.0996Z" fill="white"/>
<path d="M1030.01 111.668L1060.47 129.255L1064.38 96.3302L1031.57 77.3926L1030.01 111.668Z" fill="#202020"/>
<path d="M938.602 111.668L908.142 129.255L904.233 96.3302L937.046 77.3926L938.602 111.668Z" fill="#0A0B0A"/>
<path d="M1055.82 198.612C1045.2 183.928 1022.25 168.856 993.671 158.103C965.096 147.351 937.919 143.559 920.236 147.599L908.007 143L901.093 161.382C893.603 181.287 923.359 210.903 967.551 227.529C1011.74 244.155 1053.63 241.498 1061.12 221.594L1068.04 203.212L1055.81 198.612H1055.82Z" fill="white"/>
<g opacity="0.2">
<path d="M1055.83 198.612C1045.2 183.928 1022.25 168.856 993.671 158.103C965.096 147.351 937.919 143.559 920.236 147.599L908.008 143L901.093 161.382C893.604 181.287 923.36 210.903 967.551 227.529C1011.74 244.155 1053.63 241.498 1061.12 221.594L1068.04 203.212L1055.81 198.612H1055.83Z" fill="#0A0B0A"/>
</g>
<path d="M973.984 210.451C929.792 193.825 900.021 164.224 907.51 144.335C915 124.445 956.876 121.804 1001.07 138.43C1045.26 155.056 1075.01 184.657 1067.54 204.546C1060.05 224.435 1018.18 227.077 973.984 210.451Z" fill="white"/>
<g opacity="0.1">
<path d="M952.852 150.517C959.3 156.422 965.795 162.746 973.036 167.687C998.892 185.339 1032.77 190.56 1061.79 179.776C1051.15 164.626 1029.01 148.948 1001.07 138.428C974.326 128.36 948.439 125.376 930.492 128.981C937.733 136.377 945.222 143.525 952.852 150.517Z" fill="#FAFAFA"/>
</g>
<path d="M980.947 196.436C946.979 183.664 922.009 166.758 927.028 153.395C932.358 139.208 965.175 135.277 999.142 148.065C1033.11 160.838 1056.56 182.032 1051.54 195.395C1050.31 198.674 1048.96 202.232 1041.17 205.93C1028.87 211.742 1006.57 206.101 980.947 196.452V196.436Z" fill="white"/>
<g opacity="0.3">
<path d="M980.947 196.436C946.979 183.664 922.009 166.758 927.028 153.395C932.358 139.208 965.175 135.277 999.142 148.065C1033.11 160.838 1056.56 182.032 1051.54 195.395C1050.31 198.674 1048.96 202.232 1041.17 205.93C1028.87 211.742 1006.57 206.101 980.947 196.452V196.436Z" fill="#0A0B0A"/>
</g>
<path d="M977.388 201.392C944.244 188.915 921.449 167.985 926.484 154.621C931.503 141.258 962.455 140.544 995.599 153.005C1028.74 165.483 1051.54 186.413 1046.5 199.776C1041.48 213.139 1010.53 213.854 977.388 201.377V201.392Z" fill="white"/>
<g opacity="0.2">
<path d="M977.387 201.394C944.244 188.917 921.449 167.986 926.483 154.623C931.502 141.26 962.455 140.546 995.599 153.007C1028.74 165.485 1051.54 186.415 1046.5 199.778C1041.48 213.141 1010.53 213.856 977.387 201.379V201.394Z" fill="#FAFAFA"/>
</g>
<path d="M1034.83 209.333C1034.83 209.333 1034.48 209.426 1033.81 209.488C1033.01 209.566 1032.04 209.644 1030.84 209.752C1029.55 209.877 1027.98 209.97 1026.13 210.017C1024.3 210.079 1022.2 210.172 1019.9 210.11C1010.69 210.063 997.758 208.805 984.348 204.236C970.907 199.761 959.673 193.437 951.857 188.558C947.973 186.072 944.849 184.005 942.767 182.482C941.788 181.783 940.996 181.208 940.359 180.742C939.815 180.338 939.535 180.105 939.551 180.074C939.566 180.043 939.893 180.214 940.467 180.571C941.136 180.991 941.959 181.519 942.985 182.156C945.129 183.586 948.299 185.543 952.23 187.952C960.108 192.676 971.342 198.844 984.659 203.288C997.96 207.826 1010.73 209.177 1019.92 209.411C1022.22 209.519 1024.3 209.488 1026.13 209.473C1027.96 209.473 1029.53 209.442 1030.82 209.379C1032.02 209.348 1033 209.317 1033.79 209.302C1034.48 209.302 1034.83 209.302 1034.83 209.333Z" fill="#0A0B0A"/>
<path d="M955.524 202.4C955.524 202.4 954.467 201.965 952.649 201.002C950.831 200.038 948.236 198.577 945.082 196.666C938.82 192.828 930.258 187.219 922.023 179.496C917.921 175.643 914.347 171.572 911.659 167.469C908.971 163.383 907.184 159.219 906.547 155.536C905.848 151.869 906.189 148.792 906.687 146.788C906.889 145.762 907.199 145.016 907.401 144.519C907.603 144.006 907.712 143.758 907.743 143.758C907.852 143.789 907.417 144.861 907.06 146.866C906.687 148.854 906.454 151.838 907.23 155.396C907.945 158.954 909.732 162.963 912.42 166.957C915.093 170.966 918.636 174.959 922.707 178.766C930.864 186.395 939.317 192.082 945.455 196.06C948.547 198.034 951.08 199.587 952.836 200.644C954.592 201.716 955.555 202.307 955.524 202.369V202.4Z" fill="#0A0B0A"/>
<path d="M950.925 130.333C950.925 130.473 948.268 130.629 943.964 130.877C939.69 131.172 933.724 131.561 927.446 133.301C921.169 135.057 916.025 138.165 912.918 141.07C909.763 143.961 908.489 146.354 908.334 146.245C908.287 146.214 908.551 145.592 909.188 144.567C909.826 143.525 910.898 142.111 912.436 140.573C915.497 137.465 920.749 134.156 927.182 132.369C933.599 130.582 939.644 130.302 943.932 130.193C946.092 130.147 947.833 130.162 949.045 130.193C950.257 130.225 950.925 130.271 950.925 130.349V130.333Z" fill="#FAFAFA"/>
<path d="M905.692 176.592C905.506 176.763 903.206 173.609 902.6 168.978C901.963 164.348 903.362 160.712 903.579 160.821C903.874 160.883 902.958 164.457 903.579 168.854C904.139 173.252 905.957 176.452 905.692 176.608V176.592Z" fill="#FAFAFA"/>
<path d="M984.305 340.325V168.836L866.254 236.993L896.714 390.894L984.305 340.325Z" fill="#EDC800"/>
<path opacity="0.05" d="M984.305 340.325V168.836L866.254 236.993L896.714 390.894L984.305 340.325Z" fill="white"/>
<path d="M984.305 340.325V168.836L1102.37 236.993L1071.9 390.894L984.305 340.325Z" fill="#EDC800"/>
<path opacity="0.25" d="M984.305 340.325V168.836L1102.37 236.993L1071.9 390.894L984.305 340.325Z" fill="white"/>
<path d="M1022.39 362.309L1030.01 195.217L1060.47 212.804L1041.43 373.306L1022.39 362.309Z" fill="#202020"/>
<path d="M946.224 362.309L938.611 195.217L908.142 212.804L927.183 373.306L946.224 362.309Z" fill="#0A0B0A"/>
<path d="M778.976 94.0792C801.852 83.937 813.547 60.2629 805.096 41.2015C796.645 22.1402 771.249 14.9098 748.373 25.052C725.497 35.1942 713.802 58.8683 722.253 77.9296C730.704 96.991 756.1 104.221 778.976 94.0792Z" fill="#E0E0E0"/>
<path d="M776.012 87.3855C798.881 77.2464 810.57 53.5747 802.119 34.5133C793.668 15.452 768.278 8.21915 745.409 18.3583C722.539 28.4974 710.851 52.1691 719.302 71.2304C727.752 90.2917 753.142 97.5246 776.012 87.3855Z" fill="#EBEBEB"/>
<g opacity="0.1">
<path d="M729.784 84.1687C725.269 80.8271 721.641 76.4626 719.309 71.1978C710.852 52.1438 722.541 28.466 745.414 18.3184C754.757 14.172 764.536 12.9309 773.388 14.213C774.861 25.1926 774.057 36.3768 770.865 47.029C767.714 57.5722 761.959 66.615 752.534 72.5754C746.028 76.6808 737.967 82.4639 729.784 84.1551V84.1687Z" fill="white"/>
</g>
<path d="M771.234 78.6425C788.815 70.8545 797.899 52.8643 791.515 38.4885C785.132 24.0991 765.71 18.7525 748.143 26.5541C730.562 34.3421 721.491 52.3324 727.861 66.7218C734.244 81.1112 753.666 86.4442 771.234 78.6561V78.6425Z" fill="#E0E0E0"/>
<path d="M772.57 79.5545C789.728 71.9438 798.621 54.4856 792.442 40.5462C786.264 26.6069 767.346 21.4785 750.202 29.0892C733.043 36.7 724.151 54.1582 730.329 68.0839C736.508 82.0233 755.426 87.1516 772.57 79.5409V79.5545Z" fill="#F5F5F5"/>
<path d="M739.862 79.1611C739.862 79.1611 740.094 79.3248 740.572 79.5703C741.063 79.7885 741.744 80.225 742.713 80.566C744.595 81.3843 747.459 82.2845 751.101 82.8301C754.743 83.3893 759.189 83.3893 763.99 82.53C766.377 82.0527 768.873 81.398 771.342 80.4159C773.81 79.4203 776.265 78.1518 778.611 76.5833C783.249 73.4326 787.272 69.7364 790.028 65.6855C792.851 61.6756 794.256 57.3383 794.569 53.6557C794.91 49.9595 794.283 46.9861 793.792 44.9948C793.505 44.0127 793.219 43.2626 793.042 42.7579C792.851 42.2533 792.755 41.9941 792.728 41.9941C792.701 41.9941 792.769 42.2806 792.905 42.7989C793.028 43.3171 793.287 44.0809 793.519 45.063C793.928 47.0543 794.46 49.9867 794.051 53.6011C793.669 57.1883 792.264 61.3892 789.468 65.3036C786.74 69.2454 782.771 72.8598 778.202 75.9832C775.897 77.5244 773.497 78.7656 771.083 79.7476C768.668 80.7296 766.227 81.3843 763.867 81.8754C759.148 82.7619 754.77 82.8028 751.169 82.3254C747.568 81.8481 744.704 81.0434 742.808 80.3068C740.899 79.5976 739.876 79.0929 739.849 79.1611H739.862Z" fill="#E0E0E0"/>
<path d="M750.379 16.9238C750.379 16.9238 749.902 16.992 749.056 17.2375C748.21 17.4694 747.024 17.9059 745.578 18.4924C742.686 19.679 738.84 21.7112 735.035 24.6164C731.243 27.5352 728.283 30.7268 726.387 33.1955C725.433 34.4367 724.71 35.4732 724.273 36.2234C723.823 36.9736 723.591 37.3964 723.632 37.4236C723.741 37.4918 724.805 35.896 726.797 33.5228C728.774 31.1496 731.748 28.0671 735.485 25.1892C739.236 22.325 742.986 20.2654 745.783 18.9697C748.592 17.674 750.406 17.0466 750.365 16.9238H750.379Z" fill="white"/>
<path d="M764.728 15.1233C764.728 14.9187 762.968 14.8505 760.827 14.9732C758.685 15.096 756.953 15.3551 756.967 15.5461C756.967 15.7507 758.726 15.8189 760.868 15.6961C763.009 15.5734 764.741 15.3142 764.728 15.1233Z" fill="white"/>
<path d="M735.512 73.471C735.621 73.3892 734.557 72.0798 733.33 69.6793C732.702 68.4927 732.102 67.006 731.57 65.3147C731.079 63.6098 730.684 61.7003 730.493 59.6544C730.343 57.6085 730.425 55.6581 730.643 53.8987C730.888 52.1392 731.243 50.5843 731.666 49.3022C732.484 46.738 733.33 45.2786 733.207 45.2104C733.166 45.1832 732.934 45.5378 732.539 46.1925C732.13 46.8472 731.666 47.8565 731.175 49.1386C730.684 50.4207 730.261 52.0164 729.975 53.8032C729.715 55.6036 729.606 57.6085 729.77 59.709C729.947 61.8094 730.384 63.7735 730.929 65.5057C731.502 67.2242 732.171 68.7382 732.866 69.9248C733.548 71.1114 734.175 72.0252 734.68 72.6117C735.171 73.1982 735.458 73.5119 735.498 73.471H735.512Z" fill="white"/>
<path d="M748.592 50.298C748.592 50.2025 748.224 50.0934 747.61 50.1753C746.996 50.2571 746.164 50.5844 745.469 51.2391C744.773 51.8938 744.378 52.6985 744.241 53.2986C744.105 53.9124 744.2 54.2943 744.282 54.2943C744.487 54.3216 744.719 52.8895 745.96 51.7711C747.16 50.6117 748.606 50.5026 748.592 50.298Z" fill="white"/>
<path d="M766.05 42.335C766.118 42.2668 766.118 42.1168 765.954 41.9531C765.791 41.7895 765.477 41.6803 765.15 41.7349C764.822 41.7895 764.55 42.0077 764.468 42.2123C764.372 42.4169 764.413 42.5805 764.509 42.6078C764.713 42.6624 764.945 42.4987 765.286 42.4578C765.613 42.3896 765.9 42.4578 766.063 42.3487L766.05 42.335Z" fill="white"/>
<path d="M1198.86 134.121C1180.53 145.551 1157.96 142.441 1148.44 127.165C1138.92 111.889 1146.05 90.2439 1164.37 78.8142C1182.7 67.3845 1205.27 70.4942 1214.79 85.7702C1224.32 101.046 1217.18 122.692 1198.86 134.121Z" fill="#EDC800"/>
<g opacity="0.2">
<path d="M1198.86 134.123C1180.53 145.553 1157.96 142.443 1148.44 127.167C1138.92 111.891 1146.05 90.2458 1164.37 78.8161C1182.7 67.3864 1205.27 70.4962 1214.79 85.7721C1224.31 101.048 1217.18 122.694 1198.86 134.123Z" fill="#0A0B0A"/>
</g>
<path d="M1195.52 128.762C1177.19 140.192 1154.62 137.082 1145.1 121.806C1135.58 106.53 1142.71 84.8845 1161.03 73.4548C1179.36 62.0251 1201.93 65.1348 1211.45 80.4108C1220.97 95.6868 1213.84 117.332 1195.52 128.762Z" fill="#EDC800"/>
<g opacity="0.1">
<path d="M1215.64 94.1865C1215.44 89.3446 1214.08 84.639 1211.45 80.4245C1201.93 65.1485 1179.35 62.0388 1161.03 73.4685C1153.54 78.1467 1147.92 84.5163 1144.54 91.4723C1151.67 97.8418 1160.06 102.684 1169.21 105.575C1178.27 108.426 1187.53 108.699 1196.34 104.852C1202.42 102.193 1210.47 99.233 1215.64 94.2002V94.1865Z" fill="#FAFAFA"/>
</g>
<path d="M1191.61 121.125C1177.52 129.908 1160.28 127.685 1153.09 116.16C1145.9 104.635 1151.49 88.1721 1165.57 79.3884C1179.66 70.6047 1196.9 72.8279 1204.09 84.3531C1211.28 95.8783 1205.68 112.341 1191.61 121.125Z" fill="#EDC800"/>
<g opacity="0.2">
<path d="M1191.61 121.125C1177.52 129.908 1160.28 127.685 1153.09 116.16C1145.9 104.635 1151.49 88.1721 1165.57 79.3884C1179.66 70.6047 1196.9 72.8279 1204.09 84.3531C1211.27 95.8783 1205.68 112.341 1191.61 121.125Z" fill="#0A0B0A"/>
</g>
<path d="M1191.62 122.514C1177.87 131.093 1161.1 128.979 1154.13 117.822C1147.17 106.665 1152.67 90.6659 1166.4 82.0868C1180.15 73.5077 1196.93 75.6081 1203.9 86.7787C1210.87 97.9492 1205.36 113.948 1191.62 122.514Z" fill="#EDC800"/>
<g opacity="0.2">
<path d="M1191.62 122.515C1177.87 131.095 1161.1 128.981 1154.13 117.824C1147.17 106.667 1152.67 90.6678 1166.4 82.0887C1180.15 73.5096 1196.93 75.6101 1203.9 86.7806C1210.87 97.9512 1205.36 113.95 1191.62 122.515Z" fill="#FAFAFA"/>
</g>
<path d="M1207.17 98.9609C1207.17 98.9609 1207.17 99.2064 1207.12 99.6702C1207.03 100.134 1207.01 100.83 1206.79 101.689C1206.46 103.435 1205.72 105.917 1204.35 108.781C1202.98 111.645 1200.83 114.837 1197.88 117.851C1196.38 119.324 1194.72 120.784 1192.81 122.079C1190.9 123.362 1188.81 124.494 1186.55 125.421C1182.05 127.208 1177.46 128.299 1173.22 128.299C1168.99 128.381 1165.22 127.276 1162.42 125.721C1159.61 124.18 1157.78 122.284 1156.61 120.975C1156.04 120.293 1155.65 119.72 1155.37 119.352C1155.1 118.97 1154.96 118.765 1154.97 118.752C1154.99 118.752 1155.16 118.915 1155.46 119.27C1155.78 119.611 1156.2 120.156 1156.79 120.811C1158.01 122.066 1159.86 123.866 1162.62 125.326C1165.38 126.785 1169.06 127.822 1173.21 127.713C1177.35 127.672 1181.86 126.594 1186.3 124.835C1188.51 123.934 1190.57 122.816 1192.44 121.575C1194.31 120.32 1195.96 118.888 1197.45 117.456C1200.36 114.51 1202.52 111.414 1203.92 108.604C1205.33 105.794 1206.13 103.366 1206.53 101.648C1206.94 99.943 1207.09 98.9746 1207.14 98.9746L1207.17 98.9609Z" fill="#0A0B0A"/>
<path d="M1157.6 76.3321C1157.6 76.3321 1157.89 76.0184 1158.46 75.5411C1159.04 75.05 1159.92 74.409 1161.04 73.6725C1163.29 72.1858 1166.61 70.4127 1170.52 69.1033C1174.43 67.8076 1178.16 67.2347 1180.85 67.0847C1182.2 67.0029 1183.29 66.9892 1184.04 67.0302C1184.79 67.0711 1185.21 67.0984 1185.2 67.1529C1185.2 67.262 1183.53 67.262 1180.87 67.5212C1178.21 67.794 1174.57 68.4214 1170.71 69.7035C1166.85 70.9992 1163.55 72.6768 1161.27 74.0544C1158.98 75.4319 1157.66 76.4276 1157.59 76.3458L1157.6 76.3321Z" fill="#FAFAFA"/>
<path d="M1149.38 85.7176C1149.24 85.6085 1150.03 84.3264 1151.17 82.8533C1152.29 81.3803 1153.31 80.2755 1153.44 80.371C1153.58 80.4665 1152.79 81.7622 1151.66 83.2352C1150.54 84.7083 1149.52 85.8131 1149.38 85.7176Z" fill="#FAFAFA"/>
<path d="M1205.22 93.0975C1205.11 93.1384 1204.69 91.7336 1203.57 89.7013C1203.02 88.6784 1202.25 87.5327 1201.29 86.3324C1200.31 85.1595 1199.14 83.9456 1197.77 82.8271C1196.38 81.736 1194.95 80.8495 1193.59 80.1402C1192.21 79.4719 1190.93 78.9672 1189.81 78.6399C1187.58 77.9852 1186.12 77.8761 1186.14 77.7533C1186.14 77.7124 1186.51 77.7124 1187.16 77.7533C1187.82 77.7806 1188.77 77.9307 1189.92 78.2034C1191.08 78.4762 1192.41 78.94 1193.83 79.6083C1195.24 80.3039 1196.72 81.1904 1198.15 82.3225C1199.56 83.4682 1200.76 84.723 1201.73 85.9505C1202.68 87.2054 1203.43 88.4056 1203.94 89.4695C1204.46 90.5333 1204.81 91.4335 1204.97 92.0746C1205.15 92.7156 1205.23 93.0702 1205.19 93.0839L1205.22 93.0975Z" fill="#FAFAFA"/>
<path d="M1182.33 91.214C1182.33 91.214 1182.37 90.8457 1182.73 90.4502C1183.08 90.0546 1183.72 89.6182 1184.53 89.4272C1185.33 89.2363 1186.1 89.3454 1186.59 89.55C1187.08 89.7546 1187.32 90.0001 1187.28 90.0683C1187.2 90.2319 1186.07 89.7 1184.68 90.041C1183.27 90.3411 1182.5 91.3231 1182.35 91.214H1182.33Z" fill="#FAFAFA"/>
<path d="M1168.18 99.8323C1168.09 99.8596 1167.98 99.7777 1167.94 99.5731C1167.9 99.3822 1167.97 99.0958 1168.18 98.8912C1168.38 98.6866 1168.65 98.6048 1168.86 98.632C1169.05 98.6593 1169.14 98.7684 1169.12 98.8503C1169.06 99.0139 1168.82 99.1094 1168.63 99.3276C1168.42 99.5322 1168.34 99.7641 1168.18 99.8323Z" fill="#FAFAFA"/>
<path d="M814.573 216.463C829.454 222.328 845.48 217.009 850.362 204.611C855.245 192.199 847.13 177.4 832.25 171.535C817.369 165.67 801.343 170.976 796.46 183.388C791.577 195.786 799.693 210.598 814.573 216.463Z" fill="#EDC800"/>
<g opacity="0.2">
<path d="M814.574 216.463C829.454 222.328 845.48 217.009 850.363 204.611C855.246 192.199 847.131 177.4 832.25 171.535C817.37 165.67 801.344 170.976 796.461 183.388C791.578 195.786 799.693 210.598 814.574 216.463Z" fill="#0A0B0A"/>
</g>
<path d="M852.068 200.245C856.951 187.839 848.839 173.031 833.951 167.173C819.062 161.314 803.035 166.622 798.153 179.029C793.271 191.436 801.382 206.244 816.271 212.102C831.159 217.961 847.186 212.652 852.068 200.245Z" fill="#EDC800"/>
<g opacity="0.1">
<path d="M796.965 189.636C796.461 186.076 796.815 182.475 798.166 179.052C803.048 166.64 819.075 161.334 833.955 167.199C840.038 169.6 844.989 173.487 848.385 178.097C844.048 183.689 838.592 188.354 832.305 191.682C826.085 194.983 819.388 196.428 812.446 194.805C807.658 193.687 801.398 192.609 796.965 189.65V189.636Z" fill="#FAFAFA"/>
</g>
<path d="M818.093 206.029C829.536 210.529 841.798 206.588 845.48 197.231C849.163 187.875 842.875 176.622 831.432 172.121C819.989 167.62 807.727 171.562 804.044 180.919C800.362 190.275 806.65 201.514 818.093 206.029Z" fill="#EDC800"/>
<g opacity="0.2">
<path d="M818.093 206.029C829.536 210.529 841.798 206.588 845.481 197.231C849.163 187.875 842.876 176.622 831.432 172.121C819.989 167.62 807.727 171.562 804.045 180.919C800.362 190.275 806.65 201.514 818.093 206.029Z" fill="#0A0B0A"/>
</g>
<path d="M818.269 207.037C829.44 211.429 841.374 207.637 844.948 198.567C848.521 189.497 842.356 178.586 831.199 174.194C820.029 169.802 808.095 173.594 804.521 182.65C800.948 191.72 807.113 202.632 818.269 207.024V207.037Z" fill="#EDC800"/>
<g opacity="0.2">
<path d="M818.269 207.039C829.44 211.431 841.374 207.639 844.948 198.569C848.521 189.499 842.356 178.588 831.199 174.196C820.029 169.804 808.094 173.596 804.521 182.652C800.947 191.722 807.112 202.634 818.269 207.025V207.039Z" fill="#FAFAFA"/>
</g>
<path d="M803.785 191.979C803.785 191.979 803.812 192.156 803.921 192.483C804.044 192.811 804.153 193.315 804.426 193.902C804.889 195.129 805.776 196.834 807.167 198.744C808.545 200.653 810.536 202.685 813.087 204.472C814.382 205.345 815.787 206.191 817.356 206.873C818.911 207.555 820.588 208.1 822.361 208.469C825.88 209.164 829.372 209.341 832.454 208.769C835.551 208.25 838.156 206.941 839.97 205.441C841.811 203.94 842.875 202.317 843.557 201.199C843.87 200.626 844.089 200.162 844.239 199.849C844.389 199.535 844.457 199.371 844.443 199.357C844.43 199.357 844.334 199.508 844.157 199.794C843.98 200.094 843.748 200.544 843.407 201.09C842.684 202.167 841.593 203.736 839.765 205.168C837.951 206.6 835.414 207.855 832.386 208.332C829.372 208.864 825.935 208.687 822.457 207.991C820.725 207.637 819.074 207.091 817.547 206.436C816.019 205.768 814.628 204.95 813.346 204.104C810.823 202.358 808.831 200.38 807.44 198.525C806.035 196.671 805.121 195.007 804.603 193.82C804.071 192.633 803.839 191.938 803.798 191.951L803.785 191.979Z" fill="#0A0B0A"/>
<path d="M836.832 168.82C836.832 168.82 836.586 168.629 836.095 168.357C835.604 168.084 834.881 167.729 833.967 167.347C832.126 166.57 829.48 165.724 826.452 165.301C823.424 164.879 820.642 164.974 818.664 165.219C817.668 165.342 816.877 165.479 816.332 165.615C815.786 165.738 815.486 165.82 815.5 165.861C815.513 165.942 816.727 165.711 818.691 165.547C820.655 165.383 823.397 165.356 826.384 165.765C829.371 166.188 831.99 166.965 833.845 167.661C835.699 168.357 836.791 168.902 836.832 168.834V168.82Z" fill="#FAFAFA"/>
<path d="M844.088 174.55C844.17 174.454 843.42 173.636 842.411 172.709C841.388 171.781 840.501 171.113 840.419 171.208C840.338 171.304 841.088 172.122 842.097 173.05C843.12 173.977 844.007 174.645 844.088 174.55Z" fill="#FAFAFA"/>
<path d="M804.411 187.438C804.493 187.438 804.616 186.374 805.161 184.738C805.421 183.919 805.83 182.978 806.362 181.982C806.921 181 807.603 179.95 808.448 178.955C809.308 177.972 810.235 177.127 811.135 176.431C812.049 175.763 812.922 175.217 813.686 174.835C815.227 174.058 816.264 173.785 816.236 173.703C816.236 173.676 815.964 173.717 815.486 173.84C815.009 173.949 814.341 174.181 813.536 174.535C812.731 174.89 811.817 175.408 810.876 176.09C809.949 176.786 808.98 177.632 808.094 178.654C807.221 179.677 806.525 180.755 805.98 181.778C805.448 182.814 805.066 183.796 804.848 184.642C804.616 185.488 804.479 186.183 804.439 186.674C804.384 187.165 804.384 187.424 804.411 187.438Z" fill="#FAFAFA"/>
<path d="M820.833 182.993C820.833 182.993 820.765 182.733 820.437 182.488C820.124 182.242 819.605 182.011 818.992 181.983C818.378 181.956 817.832 182.133 817.505 182.352C817.164 182.57 817.028 182.774 817.069 182.815C817.15 182.924 817.901 182.379 818.964 182.447C820.028 182.474 820.724 183.088 820.819 182.979L820.833 182.993Z" fill="#FAFAFA"/>
<path d="M832.304 187.371C832.304 187.371 832.441 187.302 832.441 187.152C832.441 187.002 832.359 186.811 832.181 186.689C832.004 186.566 831.786 186.539 831.649 186.593C831.513 186.648 831.459 186.73 831.486 186.784C831.554 186.893 831.731 186.934 831.909 187.071C832.086 187.193 832.181 187.343 832.304 187.371Z" fill="#FAFAFA"/>
</g>
<defs>
<linearGradient id="paint0_linear_417_4279" x1="-32.5" y1="4.31053e-06" x2="229.725" y2="479.686" gradientUnits="userSpaceOnUse">
<stop stop-color="#ED222F"/>
<stop offset="1" stop-color="#680B11"/>
</linearGradient>
<radialGradient id="paint1_radial_417_4279" cx="0" cy="0" r="1" gradientUnits="userSpaceOnUse" gradientTransform="translate(960 60) scale(120)">
<stop stop-color="#ED222F"/>
<stop offset="1" stop-color="#ED222F"/>
</radialGradient>
<radialGradient id="paint2_radial_417_4279" cx="0" cy="0" r="1" gradientUnits="userSpaceOnUse" gradientTransform="translate(960 60.002) scale(168)">
<stop stop-color="#ED222F"/>
<stop offset="1" stop-color="#87131B"/>
</radialGradient>
<clipPath id="clip0_417_4279">
<rect width="1408" height="240" rx="20" fill="white"/>
</clipPath>
<clipPath id="clip1_417_4279">
<rect width="1920" height="1920" fill="white" transform="translate(0 -900)"/>
</clipPath>
</defs>
</svg>
