<svg width="217" height="207" viewBox="0 0 217 207" fill="none" xmlns="http://www.w3.org/2000/svg">
<path d="M144.5 42.7174C175.407 -10.8219 137.889 77.0718 151.111 54.1688C164.332 31.2659 202.279 -21.5298 171.029 32.6044C139.778 86.7385 163.56 64.5792 182.018 32.6044C200.477 0.629545 157.721 116.78 182.018 74.6923C201.455 41.0219 212.153 34.6369 205.542 54.1688" stroke="#EDC800" stroke-width="18"/>
<rect x="17" y="31.5" width="159" height="159" rx="31.5" fill="#FAFAFA" stroke="#0A0B0A"/>
<rect x="0.5" y="47" width="160" height="160" rx="32" fill="#DDBA00"/>
<path d="M110.5 143.667L100.5 120.334L90.5 143.667" stroke="#FAFAFA" stroke-width="2.5" stroke-linecap="round" stroke-linejoin="round"/>
<path d="M70.5 143.667L60.5 120.334L50.5 143.667" stroke="#FAFAFA" stroke-width="2.5" stroke-linecap="round" stroke-linejoin="round"/>
<path d="M53.8334 120.333H57.3274C61.5389 120.333 65.625 117.982 68.9137 113.667C75.6874 104.778 85.3127 104.778 92.0864 113.667C95.375 117.982 99.461 120.333 103.673 120.333H107.167" stroke="#FAFAFA" stroke-width="2.5" stroke-linecap="round" stroke-linejoin="round"/>
<path d="M100.5 160.333C105.701 160.333 110.227 156.827 112.56 151.657C113.736 149.053 114.323 147.751 113.325 145.708C112.328 143.666 110.675 143.666 107.37 143.666H93.63C90.325 143.666 88.6723 143.666 87.6746 145.708C86.6766 147.751 87.2643 149.053 88.4396 151.657C90.7726 156.827 95.299 160.333 100.5 160.333Z" stroke="#FAFAFA" stroke-width="2.5"/>
<path d="M60.5 160.333C65.7011 160.333 70.2273 156.827 72.5603 151.657C73.7356 149.053 74.3233 147.751 73.3254 145.708C72.3276 143.666 70.675 143.666 67.3699 143.666H53.6301C50.3249 143.666 48.6723 143.666 47.6745 145.708C46.6767 147.751 47.2644 149.053 48.4397 151.657C50.7726 156.827 55.2988 160.333 60.5 160.333Z" stroke="#FAFAFA" stroke-width="2.5"/>
<path d="M87.1667 100.333C87.1667 104.015 84.182 106.999 80.5 106.999C76.818 106.999 73.8334 104.015 73.8334 100.333C73.8334 96.6508 76.818 93.666 80.5 93.666C84.182 93.666 87.1667 96.6508 87.1667 100.333Z" stroke="#FAFAFA" stroke-width="2.5"/>
</svg>
