<svg width="1392" height="560" viewBox="0 0 1392 560" fill="none" xmlns="http://www.w3.org/2000/svg">
<g clip-path="url(#clip0_416_4027)">
<rect width="1392" height="560" rx="20" fill="url(#paint0_linear_416_4027)"/>
<g style="mix-blend-mode:multiply" opacity="0.23" clip-path="url(#clip1_416_4027)">
<path d="M1920 -740H0V1180H1920V-740Z" fill="#EDC800"/>
<path d="M1920 -740H0V1180H1920V-740Z" fill="#EDC800"/>
<path d="M2396.88 314.081C2400.96 250.481 2400.96 187.601 2397.12 125.681L962.4 219.761V219.521L2372.64 -61.0389C2360.4 -123.199 2344.08 -183.919 2323.92 -242.959L962.16 219.281V219.041L2251.68 -416.959C2223.84 -473.359 2192.16 -527.839 2157.36 -579.919L961.92 218.801C961.92 218.801 961.92 218.561 961.68 218.561L2042.64 -729.439C2001.12 -776.719 1956.72 -821.119 1909.44 -862.639L961.44 218.321C961.44 218.321 961.2 218.321 961.2 218.081L1760.16 -977.599C1708.08 -1012.4 1653.6 -1043.84 1596.96 -1071.92L960.96 217.841H960.72L1422.96 -1143.92C1363.92 -1163.84 1303.2 -1180.16 1241.04 -1192.4L960.48 217.601H960.24L1054.32 -1216.88C990.72 -1220.96 927.84 -1220.96 865.92 -1217.12L959.76 217.601H959.52L678.96 -1192.64C616.8 -1180.4 556.08 -1164.08 497.04 -1143.92L959.28 217.841H959.04L323.04 -1071.68C266.64 -1043.84 212.16 -1012.16 160.08 -977.359L958.8 218.081C958.8 218.081 958.56 218.081 958.56 218.321L10.56 -862.639C-36.72 -821.359 -81.12 -776.719 -122.64 -729.439L958.32 218.561C958.32 218.561 958.32 218.801 958.08 218.801L-237.6 -580.159C-272.4 -528.079 -303.84 -473.599 -331.92 -416.959L957.84 219.041V219.281L-403.92 -242.959C-423.84 -183.919 -440.16 -123.199 -452.4 -61.0389L957.6 219.521V219.761L-476.88 125.681C-480.96 189.281 -480.96 252.161 -477.12 314.081L957.6 220.241V220.481L-452.64 501.041C-440.4 563.201 -424.08 623.921 -403.92 682.961L957.84 220.721V220.961L-331.68 856.961C-303.84 913.361 -272.16 967.841 -237.36 1019.92L958.08 221.201C958.08 221.201 958.08 221.441 958.32 221.441L-122.64 1169.44C-81.12 1216.72 -36.72 1261.12 10.56 1302.64L958.56 221.681C958.56 221.681 958.8 221.681 958.8 221.921L159.84 1417.6C211.92 1452.4 266.4 1483.84 323.04 1511.92L959.04 222.161H959.28L497.04 1583.92C556.08 1603.84 616.8 1620.16 678.96 1632.4L959.52 222.401H959.76L865.68 1656.88C929.28 1660.96 992.16 1660.96 1054.08 1657.12L960.24 222.401H960.48L1241.04 1632.64C1303.2 1620.4 1363.92 1604.08 1422.96 1583.92L960.72 222.161H960.96L1596.96 1511.68C1653.36 1483.84 1707.84 1452.16 1759.92 1417.36L961.2 221.921C961.2 221.921 961.44 221.921 961.44 221.681L1909.44 1302.64C1956.72 1261.12 2001.12 1216.72 2042.64 1169.44L961.68 221.441C961.68 221.441 961.68 221.201 961.92 221.201L2157.6 1020.16C2192.4 968.081 2223.84 913.601 2251.92 856.961L962.16 220.961V220.721L2323.92 682.961C2343.84 623.921 2360.16 563.201 2372.4 501.041L962.4 220.481V220.241L2396.88 314.081Z" fill="url(#paint1_radial_416_4027)" fill-opacity="0.8"/>
</g>
<path d="M1349.42 330.366L1355.45 332.635L1350.2 334.119C1348.46 334.614 1347.06 335.952 1346.49 337.684L1344.59 343.489L1342.26 337.669C1341.68 336.229 1340.51 335.094 1339.04 334.57L1333.73 332.65L1339.48 330.293C1340.88 329.726 1341.97 328.606 1342.51 327.194L1344.59 321.797L1346.07 326.816C1346.56 328.46 1347.79 329.784 1349.39 330.38L1349.42 330.366Z" fill="#E0E0E0"/>
<path d="M859.104 119.821L865.141 122.091L859.889 123.574C858.144 124.069 856.747 125.408 856.18 127.139L854.274 132.944L851.946 127.124C851.364 125.684 850.2 124.549 848.731 124.025L843.421 122.105L849.167 119.748C850.564 119.181 851.655 118.061 852.193 116.649L854.274 111.252L855.758 116.271C856.252 117.915 857.474 119.239 859.075 119.836L859.104 119.821Z" fill="#E0E0E0"/>
<path d="M1290.38 521.269L1295.3 523.117L1291.02 524.324C1289.59 524.732 1288.46 525.808 1288.01 527.22L1286.46 531.948L1284.56 527.205C1284.09 526.027 1283.13 525.11 1281.94 524.674L1277.62 523.102L1282.3 521.182C1283.44 520.716 1284.33 519.8 1284.76 518.665L1286.45 514.271L1287.66 518.36C1288.05 519.698 1289.05 520.775 1290.36 521.255L1290.38 521.269Z" fill="#E0E0E0"/>
<path d="M1334.2 237.269L1339.11 239.117L1334.84 240.324C1333.41 240.732 1332.28 241.808 1331.83 243.22L1330.28 247.948L1328.38 243.205C1327.91 242.027 1326.95 241.11 1325.76 240.674L1321.44 239.102L1326.12 237.182C1327.26 236.716 1328.14 235.8 1328.58 234.665L1330.27 230.271L1331.48 234.36C1331.87 235.698 1332.87 236.775 1334.18 237.255L1334.2 237.269Z" fill="#E0E0E0"/>
<path d="M770.372 228.497L780.309 232.236L771.682 234.68C768.801 235.495 766.517 237.691 765.586 240.543L762.458 250.087L758.617 240.514C757.657 238.142 755.736 236.28 753.336 235.407L744.607 232.236L754.063 228.351C756.348 227.406 758.152 225.573 759.039 223.259L762.458 214.385L764.902 222.634C765.702 225.34 767.724 227.507 770.358 228.497H770.372Z" fill="#E0E0E0"/>
<path d="M744.142 427.141L750.179 429.411L744.927 430.895C743.182 431.389 741.785 432.728 741.217 434.459L739.312 440.264L736.984 434.445C736.402 433.004 735.238 431.87 733.769 431.346L728.458 429.425L734.205 427.069C735.602 426.501 736.693 425.381 737.231 423.97L739.312 418.572L740.796 423.591C741.29 425.235 742.512 426.559 744.113 427.156L744.142 427.141Z" fill="#E0E0E0"/>
<path d="M1246.19 115.425L1254.94 118.713L1247.34 120.866C1244.81 121.579 1242.8 123.514 1241.98 126.016L1239.23 134.411L1235.85 125.987C1235.01 123.892 1233.32 122.263 1231.21 121.492L1223.53 118.699L1231.85 115.28C1233.86 114.45 1235.44 112.836 1236.23 110.799L1239.24 102.986L1241.39 110.246C1242.09 112.617 1243.88 114.523 1246.19 115.396V115.425Z" fill="#E0E0E0"/>
<path d="M882.175 353.472C885.772 315.057 857.547 280.999 819.131 277.401C780.716 273.804 746.658 302.029 743.06 340.445C739.463 378.86 767.688 412.918 806.104 416.516C844.519 420.113 878.577 391.888 882.175 353.472Z" fill="#EBEBEB"/>
<g opacity="0.1">
<path d="M821.831 277.669C783.598 272.606 748.522 299.506 743.459 337.725C743.459 337.725 743.459 337.739 743.459 337.754C743.459 337.754 791.833 346.396 806.134 328.356C820.449 310.315 821.831 277.669 821.831 277.669Z" fill="#FAFAFA"/>
</g>
<path d="M821.67 289.701C850.68 293.483 871.121 320.078 867.338 349.087C863.555 378.097 836.961 398.538 807.951 394.755C778.942 390.972 758.501 364.378 762.284 335.368C766.066 306.359 792.661 285.918 821.67 289.701Z" fill="#E0E0E0"/>
<path d="M865.534 355.054C861.751 383.744 835.433 403.937 806.744 400.154C778.054 396.372 757.861 370.054 761.643 341.364C765.426 312.675 791.744 292.481 820.434 296.264C820.448 296.264 820.463 296.264 820.477 296.264C849.138 300.061 869.316 326.379 865.534 355.04V355.054Z" fill="#F5F5F5"/>
<path d="M798.945 339.502C798.363 339.036 797.912 338.455 797.607 337.771C796.792 336.185 796.501 334.366 796.792 332.606C797.097 330.831 797.985 329.216 799.309 327.994C799.803 327.412 800.444 326.976 801.171 326.729C801.171 326.729 800.502 327.238 799.629 328.169C798.465 329.405 797.694 330.948 797.388 332.606C797.127 334.279 797.359 335.981 798.043 337.523C798.48 338.818 799.003 339.444 798.945 339.502Z" fill="#FAFAFA"/>
<path d="M813.378 320.88C813.261 320.807 813.247 319.876 813.436 318.639C813.625 317.402 813.799 316.559 813.974 316.515C814.149 316.471 814.09 317.519 813.916 318.755C813.741 320.007 813.523 320.909 813.378 320.88Z" fill="#FAFAFA"/>
<path d="M809.203 280.276C809.203 280.363 807.952 280.407 805.711 280.567C803.471 280.727 800.241 281.09 796.328 281.934C788.53 283.564 777.895 287.652 768.598 295.624C759.302 303.597 753.643 313.49 750.835 320.938C749.409 324.677 748.551 327.82 748.041 330.002C747.547 332.184 747.314 333.421 747.212 333.406C747.169 333.406 747.198 333.086 747.256 332.49C747.329 331.908 747.401 331.021 747.62 329.915C747.998 327.689 748.74 324.488 750.093 320.662C752.741 313.053 758.385 302.913 767.871 294.78C777.342 286.662 788.224 282.618 796.153 281.163C800.139 280.407 803.413 280.145 805.682 280.116C806.817 280.072 807.69 280.13 808.286 280.145C808.883 280.174 809.188 280.203 809.188 280.246L809.203 280.276Z" fill="#FAFAFA"/>
<path d="M963.943 127.073C975.975 119.566 979.643 103.727 972.137 91.6953C964.63 79.6634 948.791 75.995 936.759 83.5017C924.727 91.0084 921.059 106.848 928.565 118.879C936.072 130.911 951.911 134.58 963.943 127.073Z" fill="#EBEBEB"/>
<g opacity="0.1">
<path d="M931.482 87.87C921.865 98.2867 922.52 114.523 932.937 124.125C932.937 124.125 945.768 111.424 943.382 103.306C940.997 95.1879 931.482 87.8555 931.482 87.8555V87.87Z" fill="#FAFAFA"/>
</g>
<path d="M935.075 90.4592C942.349 82.5449 954.672 82.0357 962.586 89.3099C970.5 96.5841 971.009 108.907 963.735 116.821C956.461 124.735 944.138 125.245 936.224 117.97C928.31 110.696 927.801 98.3736 935.075 90.4592Z" fill="#E0E0E0"/>
<path d="M963.983 91.1148C971.795 98.3163 972.29 110.508 965.088 118.32C957.887 126.133 945.695 126.628 937.883 119.426C930.07 112.225 929.576 100.033 936.777 92.2205C943.993 84.408 956.155 83.9279 963.968 91.1294L963.983 91.1148Z" fill="#F5F5F5"/>
<path d="M942.684 99.5502C942.684 99.5502 942.349 99.3756 942.029 99.0555C941.695 98.7355 941.476 98.5027 941.506 98.4445C941.535 98.3863 941.826 98.6191 942.16 98.9391C942.495 99.2592 942.728 99.5211 942.684 99.5502Z" fill="#FAFAFA"/>
<path d="M929.604 92.2047C929.604 92.2047 929.386 92.612 928.95 93.3104C928.528 94.0232 927.946 95.0707 927.379 96.4237C926.215 99.1152 925.196 103.174 925.618 107.655C926.04 112.136 927.815 115.933 929.459 118.348C930.274 119.57 931.045 120.487 931.598 121.112C932.15 121.723 932.47 122.058 932.441 122.073C932.441 122.073 932.34 122.014 932.18 121.869C932.019 121.723 931.772 121.52 931.481 121.214C930.885 120.632 930.085 119.73 929.226 118.508C927.495 116.108 925.647 112.252 925.211 107.684C924.774 103.116 925.865 98.9988 927.102 96.3073C927.713 94.9543 928.339 93.9069 928.804 93.2231C929.022 92.8739 929.241 92.6266 929.372 92.452C929.503 92.2774 929.575 92.1901 929.59 92.2047H929.604Z" fill="#FAFAFA"/>
<path d="M1088.72 178.116C1112.02 166.571 1121.55 138.326 1110 115.029C1098.46 91.7318 1070.21 82.2043 1046.92 93.7489C1023.62 105.294 1014.09 133.539 1025.64 156.836C1037.18 180.133 1065.43 189.661 1088.72 178.116Z" fill="#EBEBEB"/>
<g opacity="0.1">
<path d="M1033.23 103.946C1015.6 123.048 1016.79 152.814 1035.9 170.433C1035.9 170.433 1059.44 147.14 1055.06 132.257C1050.68 117.374 1033.23 103.932 1033.23 103.932V103.946Z" fill="#FAFAFA"/>
</g>
<path d="M1039.8 108.702C1053.14 94.1974 1075.73 93.2517 1090.24 106.593C1104.74 119.934 1105.69 142.527 1092.34 157.032C1079 171.537 1056.41 172.482 1041.91 159.142C1027.4 145.801 1026.45 123.207 1039.8 108.702Z" fill="#E0E0E0"/>
<path d="M1092.82 109.91C1107.17 123.135 1108.07 145.467 1094.85 159.812C1081.62 174.156 1059.29 175.058 1044.95 161.834C1030.6 148.609 1029.7 126.277 1042.92 111.933C1042.92 111.933 1042.92 111.918 1042.95 111.904C1056.18 97.5879 1078.49 96.6859 1092.82 109.896V109.91Z" fill="#F5F5F5"/>
<path d="M1058.4 140.55C1057.92 140.696 1057.41 140.71 1056.93 140.608C1055.74 140.434 1054.64 139.896 1053.78 139.052C1052.92 138.193 1052.38 137.073 1052.22 135.88C1052.09 135.386 1052.1 134.862 1052.23 134.367C1052.23 134.367 1052.25 134.935 1052.44 135.778C1052.67 136.899 1053.21 137.917 1054.01 138.732C1054.82 139.517 1055.86 140.056 1056.98 140.288C1057.85 140.55 1058.4 140.507 1058.42 140.55H1058.4Z" fill="#FAFAFA"/>
<path d="M1053.75 125.375C1053.66 125.419 1053.14 125.055 1052.54 124.473C1051.93 123.891 1051.54 123.469 1051.58 123.353C1051.62 123.236 1052.18 123.673 1052.79 124.255C1053.4 124.837 1053.82 125.317 1053.75 125.375Z" fill="#FAFAFA"/>
<path d="M1029.76 111.92C1029.76 111.92 1029.35 112.662 1028.56 113.957C1027.78 115.251 1026.73 117.172 1025.67 119.66C1023.55 124.591 1021.67 132.04 1022.44 140.246C1023.22 148.465 1026.48 155.42 1029.5 159.857C1030.99 162.097 1032.39 163.785 1033.41 164.92C1034.41 166.04 1035.01 166.651 1034.97 166.695C1034.95 166.709 1034.78 166.578 1034.49 166.316C1034.19 166.04 1033.73 165.662 1033.21 165.109C1032.11 164.032 1030.64 162.388 1029.07 160.148C1025.92 155.74 1022.51 148.684 1021.71 140.304C1020.91 131.938 1022.92 124.373 1025.19 119.441C1026.32 116.954 1027.44 115.048 1028.32 113.797C1028.72 113.156 1029.1 112.691 1029.35 112.371C1029.6 112.051 1029.73 111.891 1029.76 111.905V111.92Z" fill="#FAFAFA"/>
<path d="M1188.07 133.157L851.478 163.967C838.278 165.175 828.557 176.855 829.765 190.054L875.876 693.807C877.085 707.007 888.765 716.728 901.964 715.519L1238.56 684.709C1251.76 683.501 1261.48 671.821 1260.27 658.622L1214.16 154.869C1212.95 141.669 1201.27 131.948 1188.07 133.157Z" fill="#EDC800"/>
<g opacity="0.8">
<path d="M1184.64 144.599L857.338 174.558C847.438 175.465 840.148 184.225 841.054 194.124L886.356 689.037C887.262 698.937 896.022 706.227 905.922 705.321L1233.22 675.362C1243.12 674.455 1250.41 665.696 1249.51 655.796L1204.21 160.883C1203.3 150.983 1194.54 143.693 1184.64 144.599Z" fill="#FAFAFA"/>
</g>
<path d="M929.256 289.825C924.963 290.201 921.259 289.969 918.145 289.128C915.026 288.244 912.584 286.767 910.818 284.694C909.048 282.579 908.018 279.864 907.727 276.549L907.694 276.166L917.257 275.329L917.358 276.476C917.473 277.794 917.843 278.832 918.466 279.591C919.132 280.347 920.246 280.849 921.81 281.097C923.374 281.346 925.601 281.344 928.491 281.091C931.041 280.867 932.985 280.568 934.323 280.194C935.657 279.778 936.553 279.249 937.011 278.61C937.469 277.97 937.657 277.183 937.575 276.248C937.46 274.93 936.93 274.013 935.985 273.496C935.083 272.975 933.531 272.619 931.33 272.426L919.193 271.754C916.605 271.552 914.355 271.043 912.442 270.225C910.571 269.404 909.076 268.229 907.957 266.699C906.834 265.127 906.171 263.172 905.966 260.834C905.824 259.219 906.025 257.596 906.567 255.963C907.152 254.327 908.155 252.826 909.578 251.46C910.996 250.05 912.905 248.855 915.303 247.874C917.743 246.89 920.77 246.239 924.383 245.923C928.761 245.539 932.408 245.862 935.325 246.892C938.281 247.875 940.561 249.453 942.164 251.625C943.764 253.755 944.695 256.308 944.955 259.283L944.989 259.666L935.361 260.509L935.283 259.616C935.164 258.256 934.77 257.177 934.1 256.379C933.473 255.577 932.378 255.052 930.814 254.804C929.247 254.513 927.039 254.492 924.192 254.741C921.896 254.942 920.103 255.249 918.812 255.662C917.562 256.071 916.688 256.598 916.187 257.241C915.687 257.884 915.478 258.674 915.559 259.609C915.63 260.416 915.86 261.082 916.248 261.604C916.633 262.085 917.2 262.442 917.948 262.676C918.697 262.91 919.675 263.082 920.884 263.19L933.038 264.053C936.27 264.284 938.872 264.891 940.842 265.875C942.856 266.855 944.36 268.137 945.355 269.72C946.347 271.261 946.928 273.009 947.099 274.964C947.3 277.259 946.853 279.483 945.756 281.634C944.656 283.744 942.757 285.538 940.06 287.016C937.363 288.494 933.761 289.431 929.256 289.825ZM968.535 286.385C964.922 286.702 961.696 286.299 958.857 285.177C956.017 284.055 953.746 282.327 952.042 279.992C950.377 277.611 949.398 274.741 949.104 271.383C948.806 267.983 949.272 264.987 950.501 262.395C951.769 259.757 953.704 257.639 956.305 256.041C958.906 254.442 962.013 253.485 965.626 253.168C969.069 252.867 972.137 253.176 974.83 254.097C977.523 255.018 979.684 256.456 981.311 258.412C982.935 260.326 983.868 262.664 984.11 265.427L984.188 266.319L974.688 267.151L974.644 266.641C974.465 264.601 973.639 263.238 972.166 262.554C970.689 261.826 968.696 261.573 966.188 261.792C963.341 262.042 961.289 262.821 960.033 264.13C958.82 265.436 958.343 267.576 958.604 270.551C958.857 273.442 959.696 275.445 961.122 276.563C962.586 277.634 964.742 278.044 967.59 277.795C970.098 277.575 972.017 277 973.349 276.07C974.678 275.097 975.252 273.59 975.074 271.55L975.029 271.04L984.529 270.208L984.607 271.101C984.849 273.864 984.338 276.35 983.076 278.559C981.809 280.726 979.93 282.496 977.437 283.871C974.945 285.246 971.978 286.084 968.535 286.385ZM998.798 283.093L989.234 283.93L986.437 251.988L995.299 251.212L996.097 260.329L996.827 260.587L998.798 283.093ZM997.178 264.603L995.266 264.771L994.83 259.798L996.615 259.642C996.76 257.873 997.198 256.271 997.929 254.837C998.699 253.356 999.794 252.168 1001.21 251.272C1002.63 250.335 1004.4 249.773 1006.53 249.586C1008.95 249.374 1010.93 249.715 1012.46 250.609C1014.04 251.456 1015.24 252.7 1016.07 254.34C1016.89 255.938 1017.4 257.779 1017.58 259.862L1018.04 265.153L1008.48 265.991L1008.19 262.676C1008.03 260.89 1007.52 259.651 1006.64 258.956C1005.81 258.216 1004.41 257.931 1002.46 258.102C1000.33 258.288 998.864 258.909 998.057 259.965C997.293 261.017 997 262.563 997.178 264.603ZM1054.54 278.211L1045.61 278.993L1044.95 271.406L1044.43 271.323L1043.45 260.166C1043.27 258.083 1042.62 256.727 1041.49 256.097C1040.41 255.464 1038.59 255.259 1036.04 255.482C1033.62 255.695 1031.91 256.208 1030.91 257.024C1029.91 257.84 1029.49 259.161 1029.65 260.989L1029.67 261.244L1020.04 262.087L1020.03 261.896C1019.79 259.261 1020.29 256.883 1021.52 254.762C1022.75 252.599 1024.58 250.853 1027.04 249.525C1029.53 248.15 1032.52 247.31 1036 247.005C1039.57 246.692 1042.56 247.009 1044.95 247.956C1047.39 248.899 1049.25 250.363 1050.54 252.349C1051.87 254.289 1052.65 256.661 1052.9 259.467L1054.54 278.211ZM1032.15 280.814C1028.71 281.115 1025.95 280.587 1023.86 279.228C1021.77 277.869 1020.61 275.872 1020.38 273.236C1020.24 271.621 1020.5 270.206 1021.16 268.992C1021.83 267.777 1022.89 266.763 1024.36 265.949C1025.83 265.092 1027.7 264.436 1029.97 263.98L1044.19 261.257L1044.67 266.74L1033.06 269.107C1031.92 269.292 1031.09 269.6 1030.57 270.031C1030.09 270.416 1029.88 270.991 1029.95 271.756C1030.02 272.606 1030.42 273.192 1031.13 273.515C1031.84 273.838 1032.9 273.938 1034.3 273.816C1036.6 273.615 1038.47 273.236 1039.92 272.681C1041.37 272.126 1042.44 271.347 1043.12 270.345C1043.84 269.297 1044.14 267.965 1043.99 266.35L1044.88 266.208L1045.36 271.627L1044.46 271.705C1043.96 274.234 1042.66 276.317 1040.58 277.956C1038.53 279.549 1035.72 280.501 1032.15 280.814ZM1081.26 275.871L1073.35 276.564C1069.61 276.891 1066.6 276.234 1064.31 274.593C1062.03 272.951 1060.71 270.111 1060.35 266.074L1058.03 239.487L1067.59 238.65L1069.82 264.152C1069.96 265.767 1070.4 266.821 1071.13 267.314C1071.89 267.761 1073.11 267.912 1074.76 267.767L1080.5 267.264L1081.26 275.871ZM1079.15 251.835L1054.22 254.018L1053.53 246.113L1078.46 243.93L1079.15 251.835ZM1101.28 274.76C1097.67 275.077 1094.44 274.674 1091.6 273.552C1088.76 272.43 1086.49 270.702 1084.79 268.367C1083.12 265.986 1082.14 263.116 1081.85 259.758C1081.55 256.358 1082.02 253.362 1083.25 250.77C1084.51 248.132 1086.45 246.014 1089.05 244.416C1091.65 242.817 1094.76 241.86 1098.37 241.543C1101.81 241.242 1104.88 241.551 1107.57 242.472C1110.27 243.393 1112.43 244.831 1114.06 246.787C1115.68 248.701 1116.61 251.039 1116.85 253.802L1116.93 254.694L1107.43 255.526L1107.39 255.016C1107.21 252.976 1106.38 251.613 1104.91 250.929C1103.43 250.201 1101.44 249.948 1098.93 250.167C1096.09 250.417 1094.03 251.196 1092.78 252.505C1091.56 253.811 1091.09 255.951 1091.35 258.926C1091.6 261.817 1092.44 263.82 1093.87 264.938C1095.33 266.009 1097.49 266.419 1100.33 266.17C1102.84 265.95 1104.76 265.375 1106.09 264.445C1107.42 263.472 1108 261.966 1107.82 259.925L1107.77 259.415L1117.27 258.583L1117.35 259.476C1117.59 262.239 1117.08 264.725 1115.82 266.934C1114.55 269.101 1112.67 270.871 1110.18 272.246C1107.69 273.621 1104.72 274.459 1101.28 274.76ZM1157.81 269.167L1148.25 270.005L1146.78 253.301C1146.55 250.623 1145.75 248.809 1144.38 247.858C1143.05 246.861 1140.88 246.494 1137.86 246.758C1135.73 246.944 1134.08 247.389 1132.9 248.092C1131.72 248.795 1130.93 249.764 1130.52 250.999C1130.11 252.191 1129.98 253.68 1130.14 255.465L1128.74 255.588L1128.32 249.392L1130.11 249.236C1130.29 247.378 1130.8 245.621 1131.64 243.962C1132.48 242.304 1133.75 240.908 1135.45 239.774C1137.19 238.636 1139.42 237.948 1142.14 237.71C1144.99 237.461 1147.42 237.826 1149.43 238.806C1151.45 239.786 1153.01 241.213 1154.11 243.086C1155.22 244.96 1155.88 247.129 1156.1 249.594L1157.81 269.167ZM1131.54 271.468L1121.98 272.305L1118.24 229.589L1127.8 228.751L1131.54 271.468ZM948.421 339.703L939.495 340.485L938.83 332.898L938.309 332.815L937.332 321.658C937.15 319.575 936.496 318.219 935.37 317.59C934.286 316.956 932.47 316.751 929.919 316.975C927.497 317.187 925.786 317.701 924.786 318.516C923.787 319.332 923.367 320.654 923.527 322.481L923.55 322.736L913.922 323.579L913.906 323.388C913.675 320.753 914.173 318.375 915.401 316.255C916.625 314.092 918.464 312.346 920.917 311.017C923.409 309.643 926.398 308.803 929.884 308.498C933.454 308.185 936.437 308.502 938.833 309.448C941.271 310.391 943.134 311.856 944.421 313.842C945.748 315.781 946.533 318.154 946.779 320.959L948.421 339.703ZM926.034 342.306C922.592 342.608 919.826 342.079 917.736 340.72C915.647 339.361 914.487 337.364 914.256 334.729C914.115 333.114 914.377 331.699 915.041 330.484C915.706 329.27 916.773 328.255 918.244 327.441C919.711 326.585 921.581 325.928 923.853 325.472L938.07 322.75L938.55 328.233L926.936 330.599C925.796 330.784 924.967 331.093 924.448 331.524C923.967 331.908 923.761 332.483 923.828 333.248C923.902 334.098 924.296 334.685 925.01 335.008C925.723 335.331 926.781 335.431 928.184 335.308C930.479 335.107 932.352 334.729 933.803 334.174C935.253 333.618 936.32 332.839 937.003 331.837C937.725 330.789 938.015 329.457 937.874 327.842L938.761 327.7L939.235 333.12L938.343 333.198C937.836 335.726 936.541 337.81 934.457 339.449C932.412 341.041 929.605 341.994 926.034 342.306ZM987.951 336.241L978.388 337.079L976.925 320.375C976.698 317.782 975.941 315.985 974.654 314.984C973.364 313.941 971.252 313.548 968.319 313.805C965.259 314.073 963.168 314.898 962.047 316.281C960.965 317.618 960.543 319.647 960.781 322.367L959.57 322.473L958.344 316.541L960.129 316.385C960.27 314.574 960.761 312.839 961.601 311.181C962.437 309.48 963.705 308.063 965.404 306.929C967.143 305.749 969.414 305.036 972.22 304.79C975.11 304.537 977.562 304.9 979.575 305.88C981.584 306.818 983.14 308.202 984.243 310.033C985.345 311.864 986.001 313.969 986.209 316.35L987.951 336.241ZM962.194 338.497L952.631 339.335L949.833 307.393L958.695 306.617L959.566 316.563L960.296 316.82L962.194 338.497ZM1006.49 335.26C1003.17 335.551 1000.31 335.116 997.895 333.957C995.48 332.798 993.57 331.038 992.164 328.677C990.754 326.274 989.902 323.393 989.608 320.035C989.311 316.635 989.628 313.652 990.559 311.086C991.53 308.474 993.061 306.391 995.152 304.838C997.285 303.28 999.925 302.364 1003.07 302.088C1006.85 301.757 1009.84 302.352 1012.03 303.874C1014.22 305.395 1015.68 307.472 1016.43 310.105L1018.21 309.949L1018.84 317.154L1017.63 317.26C1017.39 314.497 1016.41 312.612 1014.7 311.606C1013.02 310.596 1010.66 310.225 1007.6 310.493C1005.56 310.672 1003.88 311.076 1002.56 311.705C1001.29 312.331 1000.39 313.245 999.848 314.448C999.307 315.609 999.124 317.189 999.299 319.186C999.467 321.099 999.92 322.601 1000.66 323.693C1001.4 324.785 1002.45 325.528 1003.81 325.923C1005.21 326.314 1006.94 326.42 1008.98 326.241C1011.02 326.063 1012.69 325.659 1014.01 325.029C1015.37 324.397 1016.36 323.496 1016.98 322.328C1017.61 321.117 1017.84 319.597 1017.68 317.77L1018.89 317.664L1020.13 324.493L1018.41 324.644C1018.09 327.842 1016.94 330.341 1014.95 332.142C1012.97 333.901 1010.14 334.94 1006.49 335.26ZM1028.62 332.68L1019.69 333.462L1018.87 324.026L1018.16 323.253L1015.32 290.801L1024.88 289.963L1028.62 332.68ZM1064.68 329.522L1050.47 330.767L1036.65 288.932L1047.36 287.994L1054.65 311.769L1056.94 321.013L1057.64 320.952L1058.79 311.406L1063.81 286.554L1078.03 285.309L1087.23 308.916L1090.03 318.115L1090.73 318.054L1091.37 308.553L1094.42 283.874L1104.87 282.958L1098.48 326.562L1084.26 327.808L1076.01 307.008L1071.94 294.965L1071.24 295.027L1069.32 307.594L1064.68 329.522ZM1120.84 324.604L1111.28 325.441L1108.48 293.5L1118.04 292.662L1120.84 324.604ZM1117.76 289.411L1108.19 290.248L1107.54 282.725L1117.1 281.887L1117.76 289.411ZM1160.53 321.128L1150.96 321.966L1149.5 305.262C1149.28 302.669 1148.52 300.872 1147.23 299.871C1145.94 298.828 1143.83 298.435 1140.9 298.691C1137.84 298.959 1135.75 299.785 1134.62 301.168C1133.54 302.505 1133.12 304.533 1133.36 307.254L1132.15 307.36L1130.92 301.428L1132.71 301.272C1132.85 299.461 1133.34 297.726 1134.18 296.068C1135.01 294.367 1136.28 292.949 1137.98 291.815C1139.72 290.635 1141.99 289.922 1144.8 289.677C1147.69 289.424 1150.14 289.787 1152.15 290.767C1154.16 291.705 1155.72 293.089 1156.82 294.92C1157.92 296.751 1158.58 298.856 1158.79 301.236L1160.53 321.128ZM1134.77 323.384L1125.21 324.221L1122.41 292.28L1131.27 291.504L1132.14 301.449L1132.87 301.707L1134.77 323.384Z" fill="#C1AE4C"/>
<path d="M1197.43 202.991C1198.3 212.448 1191.33 220.828 1181.88 221.686C1172.42 222.559 1164.04 215.59 1163.18 206.134C1162.31 196.677 1169.28 188.297 1178.73 187.439C1188.19 186.566 1196.57 193.535 1197.43 202.991Z" fill="#FAFAFA"/>
<path d="M997.301 186.148L913.808 193.791L914.874 205.439L998.368 197.797L997.301 186.148Z" fill="#FAFAFA"/>
<path d="M1013.99 376.748L930.5 384.391L931.566 396.039L1015.06 388.396L1013.99 376.748Z" fill="#FAFAFA"/>
<path d="M1025.79 183.701L1007.39 185.385L1008.45 197.033L1026.85 195.349L1025.79 183.701Z" fill="#FAFAFA"/>
<path d="M1042.48 374.3L1024.08 375.984L1025.14 387.633L1043.54 385.948L1042.48 374.3Z" fill="#FAFAFA"/>
<path d="M1125.7 174.548L1037.94 182.582L1039 194.23L1126.77 186.196L1125.7 174.548Z" fill="#FAFAFA"/>
<path d="M1142.39 365.148L1054.63 373.182L1055.69 384.83L1143.46 376.796L1142.39 365.148Z" fill="#FAFAFA"/>
<path d="M884.433 258.801C900.305 265.056 917.4 259.383 922.608 246.158C927.816 232.919 919.16 217.134 903.288 210.878C887.415 204.622 870.321 210.282 865.113 223.521C859.904 236.745 868.561 252.545 884.433 258.801Z" fill="#EDC800"/>
<g opacity="0.2">
<path d="M884.433 258.803C900.306 265.058 917.4 259.385 922.609 246.16C927.817 232.921 919.161 217.136 903.288 210.88C887.416 204.624 870.321 210.284 865.113 223.523C859.905 236.747 868.561 252.547 884.433 258.803Z" fill="#0A0B0A"/>
</g>
<path d="M924.428 241.5C929.635 228.266 920.983 212.472 905.102 206.223C889.222 199.974 872.126 205.636 866.918 218.87C861.711 232.104 870.363 247.898 886.244 254.147C902.124 260.396 919.22 254.734 924.428 241.5Z" fill="#EDC800"/>
<g opacity="0.1">
<path d="M865.651 230.185C865.113 226.388 865.491 222.547 866.931 218.896C872.14 205.657 889.234 199.997 905.106 206.253C911.595 208.814 916.876 212.96 920.499 217.877C915.872 223.842 910.053 228.818 903.346 232.368C896.712 235.888 889.569 237.43 882.163 235.699C877.057 234.506 870.379 233.357 865.651 230.2V230.185Z" fill="#FAFAFA"/>
</g>
<path d="M888.187 247.671C900.393 252.472 913.473 248.267 917.401 238.287C921.329 228.307 914.622 216.304 902.416 211.503C890.21 206.702 877.131 210.907 873.202 220.887C869.274 230.867 875.981 242.855 888.187 247.671Z" fill="#EDC800"/>
<g opacity="0.2">
<path d="M888.187 247.673C900.393 252.474 913.473 248.269 917.401 238.289C921.329 228.309 914.622 216.306 902.416 211.505C890.21 206.704 877.131 210.909 873.202 220.889C869.274 230.869 875.981 242.857 888.187 247.673Z" fill="#0A0B0A"/>
</g>
<path d="M888.376 248.747C900.291 253.431 913.021 249.387 916.832 239.712C920.644 230.037 914.068 218.399 902.167 213.714C890.252 209.03 877.522 213.074 873.711 222.734C869.899 232.409 876.475 244.048 888.376 248.732V248.747Z" fill="#EDC800"/>
<g opacity="0.2">
<path d="M888.375 248.749C900.291 253.433 913.02 249.389 916.832 239.714C920.644 230.039 914.068 218.401 902.167 213.716C890.252 209.032 877.522 213.076 873.711 222.736C869.899 232.411 876.475 244.05 888.375 248.734V248.749Z" fill="#FAFAFA"/>
</g>
<path d="M872.925 232.686C872.925 232.686 872.954 232.875 873.071 233.224C873.202 233.573 873.318 234.111 873.609 234.737C874.104 236.046 875.049 237.865 876.533 239.902C878.003 241.938 880.127 244.106 882.847 246.012C884.229 246.943 885.728 247.845 887.401 248.572C889.06 249.3 890.849 249.882 892.74 250.275C896.494 251.017 900.218 251.206 903.506 250.595C906.809 250.042 909.587 248.645 911.522 247.045C913.486 245.445 914.621 243.713 915.349 242.52C915.683 241.909 915.916 241.415 916.076 241.08C916.236 240.745 916.309 240.571 916.294 240.556C916.28 240.556 916.178 240.716 915.989 241.022C915.8 241.342 915.552 241.822 915.188 242.404C914.417 243.553 913.254 245.226 911.304 246.754C909.369 248.281 906.663 249.62 903.433 250.129C900.218 250.697 896.552 250.507 892.842 249.765C890.994 249.387 889.234 248.805 887.605 248.107C885.975 247.394 884.491 246.521 883.124 245.619C880.432 243.757 878.308 241.647 876.824 239.669C875.326 237.69 874.351 235.915 873.798 234.65C873.231 233.384 872.983 232.642 872.94 232.656L872.925 232.686Z" fill="#263238"/>
<path d="M908.175 207.982C908.175 207.982 907.913 207.779 907.39 207.488C906.866 207.197 906.095 206.819 905.12 206.411C903.156 205.582 900.334 204.68 897.104 204.229C893.874 203.778 890.906 203.88 888.797 204.142C887.735 204.273 886.891 204.418 886.309 204.564C885.727 204.695 885.407 204.782 885.421 204.825C885.436 204.913 886.731 204.665 888.826 204.491C890.921 204.316 893.845 204.287 897.031 204.724C900.217 205.175 903.01 206.004 904.989 206.746C906.968 207.488 908.131 208.07 908.175 207.997V207.982Z" fill="#FAFAFA"/>
<path d="M915.916 214.094C916.003 213.992 915.203 213.119 914.126 212.13C913.035 211.14 912.089 210.427 912.002 210.529C911.915 210.631 912.715 211.504 913.792 212.493C914.883 213.483 915.828 214.195 915.916 214.094Z" fill="#FAFAFA"/>
<path d="M873.594 227.841C873.681 227.841 873.812 226.706 874.394 224.96C874.67 224.087 875.107 223.083 875.674 222.021C876.271 220.974 876.998 219.853 877.9 218.791C878.817 217.744 879.806 216.842 880.766 216.1C881.741 215.387 882.672 214.805 883.487 214.398C885.131 213.569 886.236 213.278 886.207 213.19C886.207 213.161 885.916 213.205 885.407 213.336C884.898 213.452 884.185 213.699 883.327 214.078C882.468 214.456 881.494 215.009 880.49 215.736C879.5 216.478 878.468 217.38 877.522 218.471C876.591 219.562 875.849 220.712 875.267 221.803C874.699 222.909 874.292 223.956 874.059 224.858C873.812 225.76 873.667 226.502 873.623 227.026C873.565 227.55 873.565 227.826 873.594 227.841Z" fill="#FAFAFA"/>
<path d="M891.11 223.099C891.11 223.099 891.037 222.823 890.688 222.561C890.354 222.299 889.801 222.052 889.146 222.022C888.491 221.993 887.909 222.183 887.56 222.415C887.197 222.648 887.051 222.866 887.095 222.91C887.182 223.026 887.982 222.444 889.117 222.517C890.252 222.546 890.994 223.201 891.095 223.085L891.11 223.099Z" fill="#FAFAFA"/>
<path d="M903.346 227.77C903.346 227.77 903.491 227.697 903.491 227.537C903.491 227.377 903.404 227.173 903.215 227.043C903.026 226.912 902.793 226.882 902.648 226.941C902.502 226.999 902.444 227.086 902.473 227.144C902.546 227.261 902.735 227.304 902.924 227.45C903.113 227.581 903.215 227.741 903.346 227.77Z" fill="#FAFAFA"/>
<path d="M878.322 277.48L888.462 286.937L901.992 283.955L896.129 296.524L903.156 308.469L889.393 306.766L880.199 317.139L877.566 303.537L864.865 297.994L876.984 291.287L878.322 277.48Z" fill="#EDC800"/>
<g opacity="0.5">
<path d="M1221.58 352.478L1201.15 332.197L1198.1 363.389L1170.67 378.578L1199.41 391.104L1205.37 421.888L1226.18 398.436L1221.58 352.478Z" fill="#FAFAFA"/>
</g>
<path d="M1171.76 234.869L1173.58 244.049L1182.17 247.774L1173.99 252.327L1173.1 261.638L1166.25 255.281L1157.11 257.317L1161.06 248.821L1156.28 240.761L1165.58 241.881L1171.76 234.869Z" fill="#EDC800"/>
<path d="M1027.14 199.734L1028.33 205.801L1034.01 208.26L1028.61 211.257L1028.03 217.411L1023.49 213.206L1017.46 214.559L1020.07 208.958L1016.91 203.633L1023.05 204.375L1027.14 199.734Z" fill="#EDC800"/>
<path d="M1101.26 306.287L1102.46 312.354L1108.13 314.812L1102.73 317.809L1102.15 323.963L1097.61 319.759L1091.59 321.112L1094.19 315.511L1091.05 310.186L1097.17 310.928L1101.26 306.287Z" fill="#EDC800"/>
<path d="M945.317 457.358C946.495 470.189 937.039 481.552 924.207 482.73C920.919 483.036 917.733 482.628 914.794 481.668C909.149 479.806 904.378 475.834 901.541 470.597C900.086 467.905 899.126 464.865 898.835 461.62C897.656 448.789 907.113 437.426 919.944 436.248C923.931 435.884 927.757 436.553 931.205 438.008C935.22 439.71 938.668 442.504 941.17 446.068C943.455 449.298 944.924 453.139 945.317 457.358Z" fill="#EDC800"/>
<g opacity="0.3">
<path d="M942.015 457.65C943.019 468.663 934.915 478.396 923.902 479.414C912.889 480.418 903.156 472.315 902.138 461.302C901.119 450.288 909.237 440.556 920.25 439.537C931.263 438.533 940.996 446.637 942.015 457.65Z" fill="#0A0B0A"/>
</g>
<path d="M1006.81 451.713C1007.99 464.545 998.536 475.907 985.704 477.086C982.416 477.391 979.23 476.984 976.291 476.024C970.646 474.161 965.874 470.19 963.037 464.952C961.583 462.261 960.622 459.22 960.331 455.976C959.153 443.144 968.609 431.782 981.441 430.603C985.427 430.24 989.254 430.909 992.702 432.364C996.717 434.066 1000.16 436.859 1002.67 440.423C1004.95 443.653 1006.42 447.494 1006.81 451.713Z" fill="#EDC800"/>
<g opacity="0.3">
<path d="M1003.51 452.017C1004.52 463.031 996.412 472.763 985.399 473.782C974.386 474.786 964.653 466.682 963.635 455.669C962.631 444.656 970.734 434.923 981.747 433.905C992.761 432.886 1002.49 441.004 1003.51 452.017Z" fill="#0A0B0A"/>
</g>
<path d="M1068.29 446.082C1069.47 458.914 1060.02 470.276 1047.18 471.455C1043.9 471.76 1040.71 471.353 1037.77 470.393C1032.13 468.53 1027.36 464.559 1024.52 459.321C1023.06 456.63 1022.1 453.589 1021.81 450.345C1020.63 437.513 1030.09 426.151 1042.92 424.972C1046.91 424.609 1050.73 425.278 1054.18 426.733C1058.2 428.435 1061.65 431.228 1064.15 434.793C1066.43 438.022 1067.9 441.863 1068.29 446.082Z" fill="#EDC800"/>
<g opacity="0.3">
<path d="M1064.99 446.39C1066 457.403 1057.89 467.136 1046.88 468.155C1035.87 469.159 1026.13 461.055 1025.11 450.042C1024.11 439.029 1032.21 429.296 1043.23 428.277C1054.24 427.274 1063.97 435.377 1064.99 446.39Z" fill="#0A0B0A"/>
</g>
<path d="M1129.79 440.453C1130.97 453.285 1121.51 464.647 1108.68 465.826C1105.39 466.131 1102.21 465.724 1099.27 464.764C1093.62 462.902 1088.85 458.93 1086.01 453.692C1084.56 451.001 1083.6 447.96 1083.31 444.716C1082.13 431.884 1091.59 420.522 1104.42 419.344C1108.4 418.98 1112.23 419.649 1115.68 421.104C1119.69 422.806 1123.14 425.599 1125.64 429.164C1127.93 432.393 1129.4 436.234 1129.79 440.453Z" fill="#EDC800"/>
<g opacity="0.3">
<path d="M1126.49 440.757C1127.49 451.771 1119.39 461.503 1108.38 462.522C1097.36 463.526 1087.63 455.422 1086.61 444.409C1085.59 433.396 1093.71 423.663 1104.72 422.645C1115.74 421.641 1125.47 429.744 1126.49 440.757Z" fill="#0A0B0A"/>
</g>
<path d="M1191.27 434.822C1192.45 447.654 1182.99 459.016 1170.16 460.195C1166.87 460.5 1163.69 460.093 1160.75 459.133C1155.1 457.271 1150.33 453.299 1147.5 448.062C1146.04 445.37 1145.08 442.329 1144.79 439.085C1143.61 426.253 1153.07 414.891 1165.9 413.713C1169.89 413.349 1173.71 414.018 1177.16 415.473C1181.18 417.175 1184.62 419.969 1187.13 423.533C1189.41 426.763 1190.88 430.603 1191.27 434.822Z" fill="#EDC800"/>
<g opacity="0.3">
<path d="M1186.86 443.661C1190.59 433.252 1185.17 421.793 1174.76 418.066C1164.35 414.339 1152.89 419.756 1149.17 430.165C1145.44 440.574 1150.86 452.033 1161.27 455.76C1171.68 459.487 1183.13 454.07 1186.86 443.661Z" fill="#0A0B0A"/>
</g>
<path d="M921.007 448.41L925.284 455.379L933.431 455.801L928.135 462.013L930.23 469.898L922.694 466.77L915.842 471.222L916.482 463.075L910.139 457.939L918.082 456.034L921.007 448.41Z" fill="#FAFAFA"/>
<path d="M982.329 442.797L986.592 449.766L994.753 450.187L989.443 456.4L991.553 464.285L984.017 461.157L977.164 465.609L977.805 457.462L971.461 452.326L979.405 450.42L982.329 442.797Z" fill="#FAFAFA"/>
<path d="M1044.14 437.137L1048.41 444.091L1056.57 444.527L1051.26 450.739L1053.37 458.625L1045.83 455.497L1038.98 459.934L1039.62 451.802L1033.28 446.666L1041.22 444.76L1044.14 437.137Z" fill="#FAFAFA"/>
<path d="M1105.96 431.477L1110.22 438.431L1118.37 438.867L1113.08 445.079L1115.19 452.965L1107.63 449.837L1100.8 454.274L1101.44 446.141L1095.09 440.991L1103.02 439.085L1105.96 431.477Z" fill="#FAFAFA"/>
<path d="M1167.78 425.818L1172.04 432.773L1180.19 433.209L1174.89 439.407L1177 447.292L1169.45 444.178L1162.61 448.616L1163.25 440.483L1156.91 435.333L1164.84 433.427L1167.78 425.818Z" fill="#FAFAFA"/>
<path d="M950.629 515.321C951.807 528.152 942.351 539.515 929.519 540.693C926.231 540.998 923.045 540.591 920.106 539.631C914.462 537.769 909.69 533.797 906.853 528.56C905.398 525.868 904.438 522.827 904.147 519.583C902.968 506.751 912.425 495.389 925.257 494.211C929.243 493.847 933.069 494.516 936.517 495.971C940.532 497.673 943.98 500.467 946.483 504.031C948.767 507.261 950.236 511.101 950.629 515.321Z" fill="#EDC800"/>
<g opacity="0.3">
<path d="M947.326 515.627C948.33 526.64 940.226 536.373 929.213 537.391C918.2 538.395 908.467 530.292 907.449 519.278C906.445 508.265 914.548 498.532 925.561 497.514C936.575 496.496 946.307 504.614 947.326 515.627Z" fill="#0A0B0A"/>
</g>
<path d="M1012.13 509.688C1013.3 522.519 1003.85 533.882 991.015 535.06C987.727 535.366 984.541 534.958 981.603 533.998C975.943 532.136 971.186 528.164 968.349 522.927C966.894 520.235 965.934 517.195 965.643 513.95C964.464 501.119 973.921 489.756 986.753 488.578C990.739 488.214 994.565 488.883 998.013 490.338C1002.03 492.04 1005.48 494.834 1007.98 498.398C1010.26 501.628 1011.73 505.469 1012.13 509.688Z" fill="#EDC800"/>
<g opacity="0.3">
<path d="M1008.82 509.992C1009.83 521.005 1001.72 530.738 990.709 531.756C979.696 532.76 969.963 524.657 968.945 513.643C967.927 502.63 976.045 492.897 987.058 491.879C998.071 490.875 1007.8 498.979 1008.82 509.992Z" fill="#0A0B0A"/>
</g>
<path d="M1073.61 504.059C1074.78 516.89 1065.33 528.253 1052.5 529.431C1049.21 529.737 1046.02 529.329 1043.08 528.369C1037.44 526.507 1032.67 522.535 1029.83 517.298C1028.38 514.606 1027.41 511.566 1027.12 508.321C1025.95 495.49 1035.4 484.127 1048.23 482.949C1052.22 482.585 1056.05 483.255 1059.49 484.709C1063.51 486.412 1066.96 489.205 1069.46 492.769C1071.74 495.999 1073.21 499.84 1073.61 504.059Z" fill="#EDC800"/>
<g opacity="0.3">
<path d="M1070.3 504.363C1071.31 515.376 1063.2 525.109 1052.19 526.128C1041.18 527.131 1031.44 519.028 1030.43 508.015C1029.42 497.002 1037.53 487.269 1048.54 486.25C1059.55 485.232 1069.28 493.35 1070.3 504.363Z" fill="#0A0B0A"/>
</g>
<path d="M1135.1 498.432C1136.28 511.264 1126.82 522.626 1113.99 523.804C1110.71 524.11 1107.52 523.702 1104.58 522.742C1098.94 520.88 1094.16 516.908 1091.33 511.671C1089.87 508.979 1088.91 505.939 1088.62 502.695C1087.44 489.863 1096.9 478.5 1109.73 477.322C1113.72 476.958 1117.54 477.628 1120.99 479.082C1125.01 480.785 1128.45 483.578 1130.96 487.142C1133.24 490.372 1134.71 494.213 1135.1 498.432Z" fill="#EDC800"/>
<g opacity="0.3">
<path d="M1131.8 498.736C1132.8 509.749 1124.7 519.482 1113.69 520.5C1102.67 521.504 1092.94 513.401 1091.92 502.388C1090.92 491.374 1099.02 481.642 1110.04 480.623C1121.05 479.619 1130.78 487.723 1131.8 498.736Z" fill="#0A0B0A"/>
</g>
<path d="M1196.58 492.799C1197.76 505.631 1188.31 516.993 1175.47 518.171C1172.19 518.477 1169 518.07 1166.06 517.109C1160.42 515.247 1155.64 511.276 1152.81 506.038C1151.35 503.347 1150.39 500.306 1150.1 497.062C1148.92 484.23 1158.38 472.868 1171.21 471.689C1175.2 471.326 1179.02 471.995 1182.47 473.45C1186.49 475.152 1189.94 477.945 1192.44 481.509C1194.72 484.739 1196.19 488.58 1196.58 492.799Z" fill="#EDC800"/>
<g opacity="0.3">
<path d="M1193.28 493.105C1194.29 504.118 1186.18 513.851 1175.17 514.87C1164.16 515.873 1154.42 507.77 1153.41 496.757C1152.39 485.744 1160.51 476.011 1171.52 474.992C1182.53 473.988 1192.26 482.092 1193.28 493.105Z" fill="#0A0B0A"/>
</g>
<path d="M926.318 506.387L930.595 513.341L938.742 513.777L933.447 519.99L935.542 527.875L928.006 524.747L921.153 529.184L921.794 521.052L915.45 515.916L923.394 514.01L926.318 506.387Z" fill="#FAFAFA"/>
<path d="M987.64 500.77L991.902 507.724L1000.06 508.16L994.754 514.372L996.863 522.258L989.327 519.13L982.475 523.567L983.115 515.434L976.772 510.299L984.715 508.393L987.64 500.77Z" fill="#FAFAFA"/>
<path d="M1049.46 495.113L1053.72 502.067L1061.88 502.504L1056.57 508.702L1058.68 516.601L1051.14 513.473L1044.29 517.911L1044.93 509.778L1038.59 504.628L1046.53 502.722L1049.46 495.113Z" fill="#FAFAFA"/>
<path d="M1111.27 489.438L1115.53 496.406L1123.68 496.843L1118.39 503.04L1120.5 510.926L1112.94 507.812L1106.11 512.249L1106.75 504.117L1100.4 498.967L1108.33 497.061L1111.27 489.438Z" fill="#FAFAFA"/>
<path d="M1173.09 483.779L1177.35 490.748L1185.5 491.17L1180.2 497.382L1182.31 505.267L1174.76 502.139L1167.92 506.591L1168.56 498.444L1162.22 493.309L1170.15 491.403L1173.09 483.779Z" fill="#FAFAFA"/>
<path d="M955.938 573.295C957.117 586.127 947.66 597.489 934.828 598.668C931.54 598.973 928.354 598.566 925.416 597.606C919.771 595.743 914.999 591.772 912.162 586.534C910.707 583.843 909.747 580.802 909.456 577.558C908.277 564.726 917.734 553.364 930.566 552.185C934.552 551.822 938.378 552.491 941.826 553.946C945.842 555.648 949.289 558.441 951.792 562.006C954.076 565.235 955.545 569.076 955.938 573.295Z" fill="#EDC800"/>
<g opacity="0.3">
<path d="M948.131 588.195C955.172 579.671 953.971 567.053 945.447 560.011C936.923 552.97 924.305 554.172 917.264 562.695C910.223 571.219 911.424 583.837 919.948 590.879C928.472 597.92 941.09 596.718 948.131 588.195Z" fill="#0A0B0A"/>
</g>
<path d="M1017.43 567.666C1018.61 580.498 1009.16 591.86 996.324 593.039C993.036 593.344 989.85 592.937 986.911 591.977C981.252 590.114 976.495 586.143 973.658 580.905C972.203 578.214 971.243 575.173 970.952 571.929C969.773 559.097 979.23 547.735 992.062 546.556C996.048 546.193 999.874 546.862 1003.32 548.317C1007.34 550.019 1010.79 552.812 1013.29 556.377C1015.57 559.606 1017.04 563.447 1017.43 567.666Z" fill="#EDC800"/>
<g opacity="0.3">
<path d="M1014.13 567.972C1015.14 578.985 1007.03 588.718 996.019 589.737C985.006 590.741 975.273 582.637 974.255 571.624C973.251 560.611 981.354 550.878 992.367 549.859C1003.38 548.856 1013.11 556.959 1014.13 567.972Z" fill="#0A0B0A"/>
</g>
<path d="M1078.92 562.037C1080.1 574.869 1070.64 586.231 1057.81 587.41C1054.52 587.715 1051.33 587.308 1048.39 586.348C1042.75 584.486 1037.98 580.514 1035.14 575.276C1033.69 572.585 1032.73 569.544 1032.44 566.3C1031.26 553.468 1040.71 542.106 1053.54 540.928C1057.53 540.564 1061.36 541.233 1064.81 542.688C1068.82 544.39 1072.27 547.183 1074.77 550.748C1077.06 553.977 1078.52 557.818 1078.92 562.037Z" fill="#EDC800"/>
<g opacity="0.3">
<path d="M1068.18 579.829C1076.81 572.925 1078.21 560.328 1071.31 551.693C1064.41 543.057 1051.81 541.653 1043.17 548.557C1034.54 555.46 1033.14 568.057 1040.04 576.693C1046.94 585.329 1059.54 586.733 1068.18 579.829Z" fill="#0A0B0A"/>
</g>
<path d="M1140.41 556.403C1141.59 569.234 1132.13 580.597 1119.3 581.775C1116.01 582.081 1112.83 581.673 1109.89 580.713C1104.24 578.851 1099.47 574.879 1096.63 569.642C1095.18 566.95 1094.22 563.91 1093.93 560.665C1092.75 547.834 1102.21 536.471 1115.04 535.293C1119.02 534.929 1122.85 535.598 1126.3 537.053C1130.31 538.755 1133.76 541.549 1136.26 545.113C1138.55 548.343 1140.02 552.183 1140.41 556.403Z" fill="#EDC800"/>
<g opacity="0.3">
<path d="M1137.11 556.693C1138.11 567.706 1130.01 577.439 1119 578.458C1107.98 579.461 1098.25 571.358 1097.23 560.345C1096.23 549.332 1104.33 539.599 1115.34 538.58C1126.36 537.562 1136.09 545.68 1137.11 556.693Z" fill="#0A0B0A"/>
</g>
<path d="M1201.89 550.76C1203.07 563.592 1193.61 574.954 1180.78 576.132C1177.49 576.438 1174.31 576.031 1171.37 575.07C1165.71 573.208 1160.95 569.236 1158.12 563.999C1156.66 561.308 1155.7 558.267 1155.41 555.023C1154.23 542.191 1163.69 530.829 1176.52 529.65C1180.51 529.286 1184.33 529.956 1187.78 531.411C1191.8 533.113 1195.24 535.906 1197.75 539.47C1200.03 542.7 1201.5 546.541 1201.89 550.76Z" fill="#EDC800"/>
<g opacity="0.3">
<path d="M1198.59 551.068C1199.59 562.081 1191.49 571.814 1180.48 572.832C1169.46 573.836 1159.73 565.733 1158.71 554.72C1157.71 543.706 1165.81 533.974 1176.83 532.955C1187.84 531.951 1197.57 540.055 1198.59 551.068Z" fill="#0A0B0A"/>
</g>
<path d="M992.949 558.748L997.212 565.702L1005.37 566.139L1000.06 572.336L1002.17 580.222L994.637 577.108L987.785 581.545L988.425 573.413L982.082 568.263L990.025 566.357L992.949 558.748Z" fill="#FAFAFA"/>
<path d="M1054.77 553.074L1059.03 560.043L1067.19 560.479L1061.88 566.677L1063.99 574.562L1056.45 571.449L1049.6 575.886L1050.24 567.754L1043.9 562.603L1051.84 560.698L1054.77 553.074Z" fill="#FAFAFA"/>
<path d="M1116.58 547.416L1120.84 554.385L1128.99 554.807L1123.7 561.019L1125.8 568.904L1118.25 565.776L1111.42 570.228L1112.06 562.081L1105.71 556.945L1113.64 555.039L1116.58 547.416Z" fill="#FAFAFA"/>
<path d="M1178.4 541.754L1182.66 548.708L1190.81 549.145L1185.51 555.357L1187.62 563.242L1180.07 560.114L1173.23 564.551L1173.87 556.419L1167.53 551.283L1175.46 549.377L1178.4 541.754Z" fill="#FAFAFA"/>
<g opacity="0.3">
<path d="M855.014 493.973C855.014 493.973 900.9 577.83 988.394 532.817C1075.89 487.804 1221.55 232.625 1221.55 232.625L1230.89 334.639C1230.89 334.639 1216.47 309.004 1174.59 357.276C1132.71 405.533 874.611 670.867 874.829 710.468L855 493.973H855.014Z" fill="#FAFAFA"/>
</g>
<path d="M1298.19 222.66C1278.64 234.852 1254.56 231.534 1244.41 215.24C1234.25 198.946 1241.86 175.858 1261.4 163.666C1280.95 151.474 1305.03 154.791 1315.18 171.086C1325.34 187.38 1317.73 210.468 1298.19 222.66Z" fill="#EDC800"/>
<g opacity="0.2">
<path d="M1298.19 222.66C1278.64 234.852 1254.56 231.534 1244.41 215.24C1234.25 198.946 1241.86 175.858 1261.4 163.666C1280.95 151.474 1305.03 154.791 1315.18 171.086C1325.34 187.38 1317.73 210.468 1298.19 222.66Z" fill="#0A0B0A"/>
</g>
<path d="M1294.63 216.941C1275.07 229.133 1251 225.816 1240.84 209.521C1230.69 193.227 1238.3 170.139 1257.83 157.947C1277.39 145.756 1301.46 149.073 1311.62 165.367C1321.77 181.661 1314.17 204.75 1294.63 216.941Z" fill="#EDC800"/>
<g opacity="0.1">
<path d="M1316.09 180.06C1315.87 174.895 1314.43 169.876 1311.62 165.381C1301.46 149.086 1277.37 145.769 1257.83 157.961C1249.85 162.951 1243.85 169.745 1240.24 177.165C1247.85 183.959 1256.8 189.124 1266.56 192.208C1276.22 195.249 1286.1 195.54 1295.5 191.437C1301.99 188.6 1310.57 185.443 1316.09 180.075V180.06Z" fill="#FAFAFA"/>
</g>
<path d="M1290.45 208.794C1275.42 218.163 1257.03 215.792 1249.37 203.498C1241.7 191.205 1247.66 173.645 1262.68 164.276C1277.71 154.907 1296.1 157.278 1303.76 169.571C1311.43 181.865 1305.47 199.425 1290.45 208.794Z" fill="#EDC800"/>
<g opacity="0.2">
<path d="M1290.45 208.794C1275.42 218.163 1257.03 215.792 1249.37 203.498C1241.7 191.205 1247.66 173.645 1262.68 164.276C1277.71 154.907 1296.1 157.278 1303.76 169.571C1311.43 181.865 1305.46 199.425 1290.45 208.794Z" fill="#0A0B0A"/>
</g>
<path d="M1290.47 210.277C1275.8 219.428 1257.91 217.173 1250.47 205.272C1243.05 193.372 1248.92 176.306 1263.57 167.155C1278.23 158.004 1296.13 160.245 1303.56 172.16C1310.99 184.075 1305.12 201.141 1290.47 210.277Z" fill="#EDC800"/>
<g opacity="0.2">
<path d="M1290.47 210.277C1275.8 219.428 1257.91 217.173 1250.47 205.272C1243.05 193.372 1248.92 176.306 1263.57 167.155C1278.23 158.004 1296.13 160.245 1303.56 172.16C1310.99 184.075 1305.12 201.141 1290.47 210.277Z" fill="#FAFAFA"/>
</g>
<path d="M1307.05 185.154C1307.05 185.154 1307.05 185.416 1306.99 185.911C1306.91 186.405 1306.88 187.147 1306.64 188.064C1306.29 189.926 1305.51 192.574 1304.04 195.629C1302.58 198.684 1300.29 202.089 1297.14 205.304C1295.54 206.875 1293.77 208.432 1291.73 209.814C1289.69 211.181 1287.47 212.389 1285.05 213.378C1280.25 215.284 1275.36 216.448 1270.84 216.448C1266.33 216.535 1262.3 215.357 1259.32 213.698C1256.32 212.054 1254.37 210.032 1253.12 208.635C1252.51 207.908 1252.1 207.297 1251.8 206.904C1251.51 206.497 1251.36 206.279 1251.37 206.264C1251.39 206.264 1251.58 206.439 1251.9 206.817C1252.23 207.181 1252.68 207.763 1253.31 208.461C1254.62 209.799 1256.58 211.72 1259.54 213.276C1262.47 214.833 1266.4 215.939 1270.83 215.822C1275.25 215.779 1280.05 214.629 1284.79 212.753C1287.15 211.792 1289.35 210.6 1291.34 209.276C1293.33 207.937 1295.09 206.41 1296.68 204.882C1299.79 201.74 1302.09 198.437 1303.59 195.44C1305.09 192.443 1305.95 189.853 1306.37 188.02C1306.8 186.202 1306.96 185.169 1307.02 185.169L1307.05 185.154Z" fill="#263238"/>
<path d="M1254.18 161.018C1254.18 161.018 1254.49 160.684 1255.1 160.174C1255.71 159.651 1256.65 158.967 1257.85 158.181C1260.25 156.595 1263.78 154.704 1267.96 153.307C1272.13 151.925 1276.11 151.314 1278.97 151.154C1280.41 151.067 1281.58 151.052 1282.38 151.096C1283.18 151.14 1283.63 151.169 1283.61 151.227C1283.61 151.343 1281.84 151.343 1279 151.62C1276.16 151.911 1272.28 152.58 1268.16 153.948C1264.04 155.33 1260.52 157.119 1258.09 158.589C1255.65 160.058 1254.24 161.12 1254.17 161.033L1254.18 161.018Z" fill="#FAFAFA"/>
<path d="M1245.41 171.027C1245.26 170.911 1246.11 169.544 1247.31 167.972C1248.51 166.401 1249.6 165.223 1249.74 165.324C1249.89 165.426 1249.05 166.808 1247.84 168.38C1246.65 169.951 1245.55 171.129 1245.41 171.027Z" fill="#FAFAFA"/>
<path d="M1304.97 178.9C1304.85 178.943 1304.4 177.445 1303.21 175.277C1302.63 174.186 1301.8 172.964 1300.78 171.684C1299.73 170.433 1298.48 169.138 1297.03 167.945C1295.54 166.781 1294.02 165.835 1292.56 165.079C1291.09 164.366 1289.72 163.828 1288.53 163.478C1286.16 162.78 1284.6 162.664 1284.62 162.533C1284.62 162.489 1285.01 162.489 1285.71 162.533C1286.41 162.562 1287.43 162.722 1288.65 163.013C1289.88 163.304 1291.31 163.798 1292.82 164.511C1294.32 165.253 1295.91 166.199 1297.43 167.406C1298.93 168.629 1300.21 169.967 1301.25 171.276C1302.26 172.615 1303.06 173.895 1303.6 175.03C1304.16 176.165 1304.53 177.125 1304.71 177.809C1304.9 178.492 1304.99 178.871 1304.94 178.885L1304.97 178.9Z" fill="#FAFAFA"/>
<path d="M1280.56 176.89C1280.56 176.89 1280.6 176.498 1280.98 176.076C1281.36 175.654 1282.04 175.188 1282.9 174.985C1283.76 174.781 1284.57 174.897 1285.1 175.116C1285.62 175.334 1285.88 175.596 1285.84 175.668C1285.75 175.843 1284.54 175.276 1283.06 175.639C1281.56 175.959 1280.73 177.007 1280.57 176.89H1280.56Z" fill="#FAFAFA"/>
<path d="M1265.46 186.083C1265.37 186.112 1265.25 186.024 1265.21 185.806C1265.17 185.602 1265.24 185.297 1265.46 185.079C1265.67 184.86 1265.97 184.773 1266.18 184.802C1266.39 184.831 1266.49 184.948 1266.46 185.035C1266.4 185.21 1266.14 185.311 1265.94 185.544C1265.72 185.762 1265.63 186.01 1265.46 186.083Z" fill="#FAFAFA"/>
<path d="M867.948 535.204C857.997 521.455 836.509 507.343 809.754 497.276C783 487.208 757.554 483.659 740.998 487.441L729.549 483.135L723.075 500.346C716.062 518.982 743.923 546.711 785.298 562.278C826.674 577.845 865.897 575.357 872.909 556.721L879.383 539.51L867.933 535.204H867.948Z" fill="#EDC800"/>
<g opacity="0.2">
<path d="M867.948 535.204C857.997 521.455 836.509 507.343 809.755 497.276C783 487.208 757.555 483.659 740.999 487.441L729.549 483.135L723.075 500.346C716.063 518.982 743.923 546.711 785.299 562.278C826.674 577.845 865.897 575.357 872.909 556.721L879.383 539.51L867.934 535.204H867.948Z" fill="#0A0B0A"/>
</g>
<path d="M791.321 546.289C749.946 530.722 722.071 503.007 729.083 484.385C736.096 465.763 775.304 463.29 816.679 478.857C858.055 494.424 885.915 522.138 878.918 540.76C871.905 559.382 832.697 561.856 791.321 546.289Z" fill="#EDC800"/>
<g opacity="0.1">
<path d="M771.535 490.175C777.573 495.703 783.654 501.624 790.433 506.251C814.642 522.778 846.358 527.666 873.534 517.569C863.568 503.385 842.837 488.705 816.679 478.856C791.641 469.429 767.403 466.635 750.6 470.01C757.379 476.936 764.392 483.628 771.535 490.175Z" fill="#FAFAFA"/>
</g>
<path d="M797.84 533.168C766.037 521.209 742.658 505.38 747.357 492.868C752.347 479.586 783.073 475.905 814.876 487.878C846.679 499.837 868.632 519.681 863.933 532.193C862.784 535.263 861.518 538.594 854.23 542.057C842.707 547.498 821.83 542.217 797.84 533.182V533.168Z" fill="#EDC800"/>
<g opacity="0.3">
<path d="M797.84 533.168C766.037 521.209 742.658 505.38 747.357 492.868C752.347 479.586 783.073 475.905 814.876 487.878C846.679 499.837 868.632 519.681 863.933 532.193C862.784 535.263 861.518 538.594 854.23 542.057C842.707 547.498 821.83 542.217 797.84 533.182V533.168Z" fill="#0A0B0A"/>
</g>
<path d="M794.508 537.807C763.476 526.125 742.133 506.528 746.847 494.016C751.546 481.504 780.527 480.835 811.558 492.503C842.59 504.185 863.933 523.782 859.219 536.294C854.52 548.806 825.539 549.475 794.508 537.792V537.807Z" fill="#EDC800"/>
<g opacity="0.2">
<path d="M794.507 537.809C763.476 526.126 742.133 506.53 746.847 494.018C751.546 481.506 780.526 480.837 811.558 492.505C842.59 504.187 863.933 523.784 859.219 536.296C854.52 548.807 825.539 549.477 794.507 537.794V537.809Z" fill="#FAFAFA"/>
</g>
<path d="M848.293 545.242C848.293 545.242 847.958 545.329 847.333 545.387C846.591 545.46 845.674 545.533 844.554 545.635C843.347 545.751 841.877 545.838 840.146 545.882C838.429 545.94 836.465 546.027 834.312 545.969C825.685 545.926 813.581 544.747 801.025 540.47C788.441 536.28 777.922 530.359 770.604 525.791C766.967 523.463 764.043 521.528 762.094 520.102C761.177 519.447 760.435 518.909 759.839 518.473C759.329 518.094 759.068 517.876 759.082 517.847C759.097 517.818 759.402 517.978 759.94 518.313C760.566 518.705 761.337 519.2 762.297 519.797C764.305 521.135 767.273 522.968 770.954 525.223C778.33 529.646 788.848 535.422 801.316 539.582C813.77 543.831 825.728 545.096 834.327 545.315C836.48 545.416 838.429 545.387 840.146 545.373C841.863 545.373 843.332 545.344 844.54 545.285C845.66 545.256 846.576 545.227 847.318 545.213C847.958 545.213 848.293 545.213 848.293 545.242Z" fill="#263238"/>
<path d="M774.038 538.753C774.038 538.753 773.049 538.346 771.346 537.444C769.644 536.542 767.215 535.175 764.261 533.385C758.398 529.792 750.382 524.54 742.671 517.309C738.831 513.701 735.484 509.889 732.968 506.049C730.451 502.222 728.778 498.323 728.181 494.875C727.527 491.442 727.847 488.561 728.312 486.685C728.501 485.724 728.792 485.026 728.981 484.561C729.17 484.08 729.272 483.848 729.301 483.848C729.403 483.877 728.996 484.881 728.661 486.757C728.312 488.62 728.094 491.413 728.821 494.744C729.491 498.076 731.164 501.83 733.68 505.568C736.183 509.322 739.5 513.061 743.312 516.625C750.949 523.769 758.864 529.093 764.61 532.818C767.506 534.665 769.877 536.12 771.521 537.109C773.165 538.113 774.067 538.666 774.038 538.724V538.753Z" fill="#263238"/>
<path d="M769.732 471.278C769.732 471.409 767.244 471.554 763.214 471.787C759.213 472.063 753.627 472.427 747.749 474.056C741.872 475.7 737.056 478.61 734.146 481.331C731.193 484.037 730 486.277 729.854 486.175C729.811 486.146 730.058 485.564 730.655 484.604C731.251 483.629 732.255 482.305 733.695 480.865C736.561 477.955 741.479 474.857 747.502 473.183C753.51 471.51 759.17 471.249 763.185 471.147C765.207 471.103 766.837 471.118 767.971 471.147C769.106 471.176 769.732 471.219 769.732 471.292V471.278Z" fill="#FAFAFA"/>
<path d="M727.381 514.587C727.207 514.747 725.054 511.794 724.486 507.459C723.89 503.123 725.199 499.719 725.403 499.821C725.679 499.879 724.821 503.225 725.403 507.342C725.927 511.459 727.629 514.456 727.381 514.602V514.587Z" fill="#FAFAFA"/>
<path d="M1354.65 467.359C1369.93 440.562 1360.59 406.454 1333.8 391.176C1307 375.898 1272.89 385.235 1257.62 412.032C1242.34 438.828 1251.67 472.936 1278.47 488.214C1305.27 503.493 1339.38 494.155 1354.65 467.359Z" fill="#EDC800"/>
<g opacity="0.1">
<path d="M1356.25 415.006C1342.59 387.364 1309.12 376.031 1281.49 389.692C1281.49 389.692 1281.49 389.692 1281.47 389.692C1281.47 389.692 1297.26 425.655 1315.62 427.125C1333.96 428.594 1356.27 414.991 1356.27 414.991L1356.25 415.006Z" fill="#FAFAFA"/>
</g>
<path d="M1348.19 420.258C1358.6 441.208 1350.04 466.624 1329.09 477.011C1308.14 487.413 1282.73 478.859 1272.34 457.909C1261.94 436.959 1270.49 411.543 1291.44 401.156C1312.39 390.754 1337.81 399.308 1348.19 420.258Z" fill="#EDC800"/>
<g opacity="0.2">
<path d="M1347.41 420.328C1357.81 441.278 1349.26 466.694 1328.31 477.082C1307.36 487.484 1281.94 478.929 1271.55 457.979C1261.15 437.03 1269.7 411.614 1290.65 401.226C1311.6 390.824 1337.02 399.378 1347.41 420.328Z" fill="#0A0B0A"/>
</g>
<path d="M1324.3 478.466C1303.57 488.722 1278.45 480.241 1268.19 459.495C1257.93 438.763 1266.42 413.638 1287.16 403.381C1307.89 393.125 1333.02 401.606 1343.28 422.338C1343.28 422.338 1343.28 422.367 1343.29 422.367C1353.52 443.099 1345.04 468.195 1324.3 478.451V478.466Z" fill="#EDC800"/>
<g opacity="0.2">
<path d="M1324.3 478.464C1303.57 488.721 1278.45 480.239 1268.19 459.493C1257.93 438.761 1266.42 413.636 1287.16 403.379C1307.89 393.123 1333.02 401.605 1343.28 422.336C1343.28 422.336 1343.28 422.365 1343.29 422.365C1353.52 443.097 1345.04 468.193 1324.3 478.449V478.464Z" fill="#FAFAFA"/>
</g>
<path d="M1305.01 427.313C1305.06 426.716 1305.25 426.149 1305.57 425.654C1306.26 424.403 1307.34 423.414 1308.64 422.817C1309.95 422.235 1311.41 422.104 1312.81 422.439C1313.42 422.512 1313.99 422.744 1314.48 423.108C1314.48 423.108 1313.86 422.89 1312.84 422.73C1311.5 422.512 1310.13 422.672 1308.9 423.224C1307.68 423.792 1306.64 424.708 1305.92 425.843C1305.26 426.702 1305.07 427.342 1305.01 427.327V427.313Z" fill="#FAFAFA"/>
<path d="M1323.8 428.623C1323.8 428.506 1324.41 428.084 1325.31 427.663C1326.23 427.241 1326.85 426.979 1326.95 427.081C1327.06 427.182 1326.34 427.604 1325.44 428.041C1324.54 428.477 1323.83 428.739 1323.8 428.623Z" fill="#FAFAFA"/>
<path d="M1348.89 407.772C1348.89 407.772 1348.25 407.001 1347.15 405.59C1346.04 404.179 1344.35 402.186 1342.05 399.96C1337.5 395.508 1330.05 390.271 1320.62 387.637C1311.18 385.019 1302.1 385.659 1295.91 387.114C1292.78 387.827 1290.32 388.656 1288.65 389.296C1286.97 389.936 1286.06 390.329 1286.03 390.271C1286.03 390.242 1286.23 390.111 1286.65 389.892C1287.07 389.689 1287.69 389.34 1288.53 388.99C1290.17 388.248 1292.63 387.317 1295.77 386.517C1302.02 384.888 1311.25 384.131 1320.87 386.794C1330.49 389.471 1338.01 394.897 1342.5 399.509C1344.79 401.822 1346.42 403.888 1347.44 405.372C1347.97 406.099 1348.32 406.71 1348.57 407.118C1348.82 407.525 1348.93 407.743 1348.91 407.758L1348.89 407.772Z" fill="#FAFAFA"/>
</g>
<defs>
<linearGradient id="paint0_linear_416_4027" x1="-32.1307" y1="1.00579e-05" x2="671.77" y2="545.574" gradientUnits="userSpaceOnUse">
<stop stop-color="#ED222F"/>
<stop offset="1" stop-color="#680B11"/>
</linearGradient>
<radialGradient id="paint1_radial_416_4027" cx="0" cy="0" r="1" gradientUnits="userSpaceOnUse" gradientTransform="translate(960 220.001) scale(168)">
<stop stop-color="#EDC800"/>
<stop offset="1" stop-color="#B89B00"/>
</radialGradient>
<clipPath id="clip0_416_4027">
<rect width="1392" height="560" rx="20" fill="white"/>
</clipPath>
<clipPath id="clip1_416_4027">
<rect width="1920" height="1920" fill="white" transform="translate(0 -740)"/>
</clipPath>
</defs>
</svg>
