<svg width="83" height="36" viewBox="0 0 83 36" fill="none" xmlns="http://www.w3.org/2000/svg">
<path d="M80.8311 6.51532C81.0848 6.61979 81.3012 6.76158 81.4803 6.94067C81.6743 7.11977 81.8236 7.33618 81.928 7.5899C82.0474 7.8287 82.1146 8.08242 82.1295 8.35107C82.1445 8.78389 82.0325 9.18685 81.7937 9.55997C81.5698 9.91817 81.2639 10.1794 80.8758 10.3435L80.8982 13.6792C80.9132 14.2613 80.7191 14.7613 80.3162 15.1792C79.9132 15.5821 79.4207 15.7911 78.8386 15.806H78.8162C78.2342 15.806 77.7342 15.6045 77.3163 15.2015C76.9133 14.7837 76.7118 14.2911 76.7118 13.724L76.6894 10.6569L73.197 10.7913L73.4657 14.9105C73.4955 15.2836 73.4284 15.6418 73.2642 15.9851C73.1 16.3134 72.8612 16.5821 72.5478 16.791C72.2344 17 71.8911 17.1194 71.518 17.1492C71.4732 17.1492 71.4285 17.1492 71.3837 17.1492C71.0106 17.1492 70.6673 17.0597 70.3539 16.8806C70.0554 16.7164 69.8091 16.4851 69.6151 16.1866C69.4211 15.8881 69.3091 15.5523 69.2793 15.1792L69.0106 10.836C68.7868 10.7763 68.5853 10.6868 68.4062 10.5674C68.2271 10.448 68.0704 10.3062 67.9361 10.142C67.8017 9.96294 67.6898 9.76892 67.6002 9.55997C67.5256 9.35103 67.4808 9.13462 67.4659 8.91075C67.451 8.463 67.5629 8.06003 67.8017 7.70184C68.0405 7.32872 68.3539 7.06007 68.742 6.8959L68.5405 3.69453C68.4957 3.11246 68.6674 2.60502 69.0554 2.1722C69.4435 1.73938 69.921 1.50059 70.4882 1.45581C70.8762 1.44089 71.2344 1.51551 71.5628 1.67968C71.8911 1.84386 72.1598 2.08265 72.3687 2.39607C72.5777 2.69457 72.6971 3.03784 72.7269 3.42588L72.9284 6.60487L76.6447 6.44815L76.5999 2.97814C76.5999 2.75427 76.6297 2.53786 76.6894 2.32891C76.7641 2.10504 76.8611 1.91102 76.9805 1.74685C77.1148 1.56775 77.264 1.41104 77.4282 1.27671C77.6073 1.14239 77.8013 1.03792 78.0103 0.963294C78.2342 0.88867 78.458 0.851358 78.6819 0.851358C79.264 0.836433 79.7565 1.03792 80.1595 1.45581C80.5774 1.85878 80.7938 2.3513 80.8087 2.93337L80.8311 6.51532Z" fill="#0A0B0A"/>
<path d="M65.5599 11.6419C66.0972 11.4479 66.627 11.4778 67.1494 11.7315C67.6718 11.9703 68.0374 12.3658 68.2464 12.918C68.3658 13.2911 68.3956 13.6568 68.3359 14.015C68.2762 14.3583 68.1195 14.6791 67.8658 14.9776C67.627 15.2612 67.3285 15.4701 66.9703 15.6045C65.8808 15.9925 64.8361 16.1865 63.8361 16.1865C61.8959 16.1865 60.3213 15.4851 59.1124 14.0821C58.1423 12.9777 57.5901 11.627 57.4558 10.0301C57.3214 8.43311 57.6349 6.93317 58.396 5.53024C59.1273 4.15716 60.1721 3.14227 61.5302 2.48558C62.9033 1.82889 64.4256 1.61248 66.0972 1.83635C66.6793 1.91098 67.1419 2.17962 67.4852 2.64229C67.8434 3.09003 67.9852 3.60494 67.9106 4.18701C67.8509 4.75415 67.5897 5.21682 67.127 5.57501C66.6644 5.93321 66.1494 6.07499 65.5823 6.00037C63.9107 5.7765 62.7466 6.28394 62.0899 7.5227C61.7616 8.14954 61.6123 8.83608 61.6422 9.58232C61.6869 10.3136 61.9033 10.9032 62.2914 11.3509C62.9332 12.0971 64.0227 12.1942 65.5599 11.6419Z" fill="#0A0B0A"/>
<path d="M56.3284 1.25488C56.9105 1.25488 57.403 1.45637 57.806 1.85934C58.2239 2.26231 58.4328 2.74736 58.4328 3.3145C58.4478 3.89657 58.2463 4.39655 57.8284 4.81445C57.4254 5.23234 56.9329 5.44129 56.3508 5.44129L54.0897 5.46367V14.1275C54.0897 14.7096 53.8808 15.2021 53.4629 15.6051C53.0599 16.008 52.5674 16.2095 51.9853 16.2095C51.4182 16.2095 50.9257 16.008 50.5078 15.6051C50.1048 15.2021 49.9033 14.7096 49.9033 14.1275V5.53084L47.5079 5.55322H47.4855C46.9034 5.55322 46.4035 5.35174 45.9856 4.94877C45.5826 4.5458 45.3811 4.05328 45.3811 3.47122C45.3811 2.90407 45.5826 2.41155 45.9856 1.99366C46.3885 1.57577 46.881 1.35936 47.4631 1.34443L56.3061 1.25488H56.3284Z" fill="#0A0B0A"/>
<path d="M40.4989 1.18767C41.7078 1.1429 42.76 1.58318 43.6555 2.50851C44.163 3.04581 44.5958 3.76966 44.954 4.68007C45.3122 5.59048 45.5584 6.47851 45.6928 7.34415C45.842 8.20978 45.9465 9.15005 46.0062 10.1649C46.0659 11.1798 46.0883 11.9559 46.0733 12.4932C46.0733 13.0156 46.0584 13.5081 46.0286 13.9708C45.9987 14.5528 45.7674 15.0379 45.3346 15.4259C44.9017 15.799 44.3943 15.9707 43.8122 15.9408C43.2302 15.8961 42.7451 15.6573 42.3571 15.2244C41.984 14.7916 41.8123 14.2842 41.8422 13.7021C41.8571 13.3439 41.872 12.9335 41.8869 12.4708L39.8721 12.6275C39.9019 13.12 39.9467 13.5752 40.0064 13.9931C40.081 14.5603 39.9393 15.0752 39.5811 15.5379C39.2378 16.0005 38.7751 16.2692 38.1931 16.3438C38.1035 16.3587 38.014 16.3662 37.9244 16.3662C37.402 16.3662 36.9394 16.1945 36.5364 15.8513C36.1484 15.4931 35.917 15.0528 35.8424 14.5304C35.7827 14.0678 35.723 13.5678 35.6633 13.0305C35.6185 12.4783 35.5887 11.6798 35.5738 10.6351C35.5588 9.59033 35.5961 8.62022 35.6857 7.72473C35.7752 6.82924 35.9693 5.9039 36.2678 4.94872C36.5663 3.99353 36.9543 3.23237 37.4319 2.66522C38.2528 1.71004 39.2751 1.21752 40.4989 1.18767ZM40.5661 5.35169C40.2079 5.65018 39.9616 6.67253 39.8273 8.41873L41.5959 8.28441C41.3273 6.58298 40.984 5.60541 40.5661 5.35169Z" fill="#0A0B0A"/>
<path d="M34.6141 12.2701C35.0768 12.6283 35.3454 13.0985 35.4201 13.6805C35.4947 14.2477 35.3604 14.7551 35.0171 15.2028C34.5992 15.77 34.0395 16.0536 33.3381 16.0536C32.8754 16.0536 32.4575 15.9118 32.0844 15.6282L28.5696 12.9641V14.0163C28.5696 14.5984 28.3606 15.0984 27.9427 15.5163C27.5398 15.9192 27.0473 16.1207 26.4652 16.1207C25.898 16.1207 25.4055 15.9192 24.9876 15.5163C24.5847 15.0984 24.3832 14.5984 24.3832 14.0163V4.70325C23.831 4.77788 23.331 4.65848 22.8832 4.34506C22.4504 4.01671 22.1818 3.57643 22.0773 3.02421C21.9579 2.45707 22.0624 1.93471 22.3907 1.45711C22.7191 0.979518 23.1668 0.688485 23.734 0.584012C25.9577 0.151192 27.9801 0.121343 29.8009 0.494463C31.6217 0.852658 32.9873 1.56159 33.8977 2.62125C34.4052 3.20331 34.7261 3.84508 34.8604 4.54654C34.9947 5.23308 34.9425 5.91962 34.7037 6.60617C34.2261 7.9494 33.1366 9.03891 31.4351 9.87469L34.6141 12.2701ZM28.5696 6.49423C29.6591 6.12111 30.3606 5.7256 30.674 5.30771C30.3158 4.94951 29.6143 4.68833 28.5696 4.52416V6.49423Z" fill="#0A0B0A"/>
<path d="M19.4515 11.6419C19.9888 11.4479 20.5186 11.4778 21.041 11.7315C21.5634 11.9703 21.929 12.3658 22.138 12.918C22.2574 13.2911 22.2872 13.6568 22.2275 14.015C22.1678 14.3583 22.0111 14.6791 21.7574 14.9776C21.5186 15.2612 21.2201 15.4701 20.8619 15.6045C19.7724 15.9925 18.7277 16.1865 17.7277 16.1865C15.7875 16.1865 14.2129 15.4851 13.004 14.0821C12.0339 12.9777 11.4817 11.627 11.3474 10.0301C11.213 8.43311 11.5265 6.93317 12.2876 5.53024C13.0189 4.15716 14.0637 3.14227 15.4218 2.48558C16.7949 1.82889 18.3172 1.61248 19.9888 1.83635C20.5709 1.91098 21.0336 2.17962 21.3768 2.64229C21.735 3.09003 21.8768 3.60494 21.8022 4.18701C21.7425 4.75415 21.4813 5.21682 21.0186 5.57501C20.556 5.93321 20.0411 6.07499 19.4739 6.00037C17.8023 5.7765 16.6382 6.28394 15.9815 7.5227C15.6532 8.14954 15.5039 8.83608 15.5338 9.58232C15.5785 10.3136 15.7949 10.9032 16.183 11.3509C16.8248 12.0971 17.9143 12.1942 19.4515 11.6419Z" fill="#0A0B0A"/>
<path d="M6.82884 7.18778C7.11241 7.35195 7.32882 7.47881 7.47807 7.56836C7.62731 7.65791 7.84372 7.79223 8.12729 7.97133C8.42579 8.15043 8.65712 8.3146 8.8213 8.46385C9.00039 8.59817 9.2168 8.76981 9.47053 8.97875C9.73917 9.1877 9.94812 9.39665 10.0974 9.6056C10.2615 9.79962 10.4332 10.031 10.6123 10.2996C10.8063 10.5533 10.9481 10.8145 11.0376 11.0831C11.1272 11.3518 11.2018 11.6428 11.2615 11.9563C11.3361 12.2697 11.366 12.6055 11.351 12.9637C11.351 13.3219 11.3137 13.695 11.2391 14.083C11.0003 15.1576 10.3287 16.0307 9.22427 16.7023C8.19446 17.3441 6.94077 17.665 5.46322 17.665C4.38863 17.665 3.2245 17.4933 1.97082 17.1501C1.4186 17.0008 0.993245 16.6725 0.694749 16.165C0.411178 15.6576 0.344016 15.1278 0.493264 14.5756C0.657437 14.0084 0.985782 13.5831 1.4783 13.2995C1.98574 13.0159 2.52304 12.9487 3.09018 13.098C3.86627 13.3069 4.56027 13.4263 5.17219 13.4562C5.79903 13.4711 6.25423 13.4413 6.5378 13.3666C6.82138 13.2771 7.03032 13.1726 7.16465 13.0532C7.17957 12.8294 7.12733 12.6279 7.00794 12.4488C6.90346 12.2697 6.67959 12.0607 6.33632 11.8219C5.99305 11.5682 5.46322 11.2399 4.74683 10.8369C4.25431 10.5533 3.87373 10.3294 3.60508 10.1653C3.33644 10.0011 2.97078 9.75484 2.50811 9.4265C2.06037 9.08323 1.70217 8.76235 1.43353 8.46385C1.16488 8.16535 0.903696 7.79223 0.649975 7.34449C0.396253 6.88182 0.209693 6.40423 0.090295 5.91171C-0.0738777 5.07592 -0.0141785 4.25506 0.269392 3.44912C0.552963 2.64318 1.01563 1.94918 1.6574 1.36711C1.95589 1.11339 2.28424 0.889518 2.64243 0.695496C3.01555 0.501473 3.47822 0.329838 4.03044 0.180591C4.59758 0.0164174 5.2692 -0.0358196 6.04529 0.0238797C6.8363 0.0686544 7.66463 0.240289 8.53026 0.538785C9.08248 0.732807 9.48545 1.091 9.73917 1.61337C10.0078 2.12081 10.0451 2.65064 9.85111 3.20286C9.67201 3.75508 9.32128 4.15805 8.79891 4.41177C8.27654 4.66549 7.73925 4.7028 7.18703 4.52371C5.87365 4.07596 4.95578 4.07596 4.43341 4.52371C4.23939 4.7028 4.1573 4.86697 4.18715 5.01622C4.24685 5.25502 4.41848 5.5162 4.70205 5.79977C5.00055 6.06842 5.28412 6.29229 5.55277 6.47139C5.83634 6.63556 6.2617 6.87436 6.82884 7.18778Z" fill="#0A0B0A"/>
<path d="M82.2419 22.0458L77.6526 28.359L77.4735 33.6647C77.4585 34.2319 77.2421 34.7094 76.8242 35.0975C76.4213 35.4855 75.9362 35.6796 75.3691 35.6796C75.3691 35.6796 75.3541 35.6796 75.3243 35.6796C75.3094 35.6796 75.3019 35.6796 75.3019 35.6796C74.7198 35.6646 74.2273 35.4482 73.8243 35.0303C73.4363 34.5975 73.2572 34.0901 73.2871 33.508L73.4438 28.6052L69.3693 21.71C69.0708 21.2025 68.9962 20.6727 69.1454 20.1205C69.2947 19.5533 69.6156 19.128 70.1081 18.8444C70.6006 18.5459 71.1304 18.4713 71.6976 18.6205C72.2647 18.7548 72.6901 19.0683 72.9736 19.5608L75.6153 24.0382L78.8391 19.5832C79.1674 19.1205 79.6152 18.8444 80.1823 18.7548C80.7644 18.6504 81.2867 18.7698 81.7494 19.113C82.227 19.4563 82.5106 19.9115 82.6001 20.4787C82.6897 21.0458 82.5703 21.5682 82.2419 22.0458Z" fill="#0A0B0A"/>
<path d="M67.7408 20.5684C68.7557 21.7325 69.4572 23.3668 69.8452 25.4712C70.2333 27.5607 70.2855 30.0009 70.0019 32.7918C69.9422 33.3291 69.7109 33.7843 69.3079 34.1574C68.905 34.5156 68.4348 34.6947 67.8975 34.6947C67.8229 34.6947 67.7483 34.6947 67.6737 34.6947C67.0916 34.635 66.614 34.3813 66.2409 33.9335C65.8827 33.4709 65.7334 32.9485 65.7931 32.3664C65.8827 31.3665 65.9275 30.3814 65.9275 29.4113L61.9425 29.5009C61.5843 29.7695 61.1814 29.9113 60.7336 29.9262C60.3605 29.9412 60.0023 29.8591 59.659 29.68C59.3307 29.5009 59.0695 29.2546 58.8755 28.9412C58.6815 28.6129 58.577 28.2547 58.5621 27.8666C58.4576 24.3891 59.2038 21.837 60.8008 20.2102C61.7411 19.2699 62.853 18.7998 64.1365 18.7998C65.5245 18.8446 66.7259 19.4341 67.7408 20.5684ZM62.95 25.2473L65.4349 25.1802C65.1961 24.3593 64.9051 23.7548 64.5618 23.3668C64.3678 23.1429 64.1887 23.031 64.0245 23.031C63.9947 23.031 63.9275 23.0832 63.8231 23.1877C63.435 23.5757 63.144 24.2623 62.95 25.2473ZM63.1962 30.5979C63.7783 30.5829 64.2857 30.7769 64.7186 31.1799C65.1514 31.5829 65.3752 32.0754 65.3902 32.6575C65.4051 33.2395 65.2111 33.747 64.8081 34.1798C64.4051 34.5977 63.9126 34.8141 63.3305 34.829L54.913 35.0753H54.8458C54.2787 35.0753 53.7861 34.8813 53.3682 34.4932C52.9354 34.0753 52.719 33.5753 52.719 32.9933L52.6519 22.0683C52.6519 21.4863 52.8533 20.9863 53.2563 20.5684C53.6742 20.1505 54.1742 19.9416 54.7563 19.9416H54.7786C55.0622 19.9416 55.3309 19.9938 55.5846 20.0983C55.8532 20.2027 56.0771 20.352 56.2562 20.546C56.4502 20.74 56.5995 20.9639 56.7039 21.2176C56.8233 21.4713 56.883 21.7475 56.883 22.0459L56.9502 30.7993L63.1962 30.5979Z" fill="#0A0B0A"/>
<path d="M41.5112 19.8745C43.4066 19.6058 45.1453 19.6208 46.7274 19.9192C48.3094 20.2028 49.5929 20.7326 50.578 21.5087C51.563 22.2699 52.16 23.2176 52.3689 24.3519C52.4734 24.9489 52.4361 25.5534 52.257 26.1653C52.0928 26.7623 51.7794 27.3667 51.3167 27.9786C50.8541 28.5756 50.1601 29.1428 49.2347 29.6801C48.3243 30.2024 47.2348 30.6502 45.9662 31.0233V32.9038C45.9662 33.4859 45.7573 33.9859 45.3394 34.4038C44.9364 34.8067 44.4439 35.0082 43.8618 35.0082C43.2797 35.0082 42.7798 34.8067 42.3619 34.4038C41.9589 33.9859 41.7574 33.4859 41.7574 32.9038V24.0385C41.25 24.0385 40.8022 23.8669 40.4142 23.5236C40.0261 23.1803 39.7948 22.755 39.7202 22.2475C39.6456 21.6654 39.7799 21.1431 40.1232 20.6804C40.4664 20.2177 40.9291 19.9491 41.5112 19.8745ZM45.9662 26.613C46.4886 26.4041 46.9289 26.1877 47.2871 25.9638C47.6602 25.725 47.9064 25.5384 48.0258 25.4041C48.1452 25.2549 48.2124 25.1355 48.2273 25.0459C48.1975 24.9713 48.1005 24.8743 47.9363 24.7549C47.787 24.6355 47.5333 24.5086 47.1751 24.3743C46.8169 24.24 46.414 24.128 45.9662 24.0385V26.613Z" fill="#0A0B0A"/>
<path fill-rule="evenodd" clip-rule="evenodd" d="M37.7674 19.209C37.3211 19.7826 36.9332 20.4758 36.6838 21.3074C35.9471 23.7634 37.1071 24.6674 37.9846 25.3513C38.3569 25.6414 38.6784 25.892 38.7826 26.2046C38.9598 26.736 38.8826 28.1643 38.8013 29.6721C38.7219 31.1418 38.6385 32.687 38.7826 33.5504C39.0637 35.2352 39.4524 35.6216 39.7932 35.9603C39.8062 35.9733 39.8191 35.9861 39.832 35.999C39.8321 35.9991 39.8323 35.9992 39.8324 35.9994H9.05022C4.41368 35.9994 0.655029 32.2407 0.655029 27.6042C0.655029 22.9676 4.41369 19.209 9.05023 19.209H37.7674Z" fill="#ED222F"/>
<path d="M27.8494 31.8019H24.9636V23.6611H27.8733C28.6921 23.6611 29.397 23.8241 29.988 24.1501C30.5789 24.4734 31.0334 24.9384 31.3514 25.5453C31.672 26.1521 31.8324 26.8782 31.8324 27.7236C31.8324 28.5716 31.672 29.3003 31.3514 29.9098C31.0334 30.5193 30.5763 30.9871 29.98 31.313C29.3864 31.639 28.6762 31.8019 27.8494 31.8019ZM26.6847 30.3272H27.7779C28.2867 30.3272 28.7146 30.2371 29.0618 30.0569C29.4116 29.8741 29.6739 29.5918 29.8488 29.2102C30.0264 28.826 30.1152 28.3304 30.1152 27.7236C30.1152 27.122 30.0264 26.6305 29.8488 26.2489C29.6739 25.8673 29.4129 25.5864 29.0658 25.4062C28.7186 25.226 28.2906 25.1359 27.7818 25.1359H26.6847V30.3272Z" fill="#FAFAFA"/>
<path d="M23.5412 23.6611V31.8019H22.0546L18.5129 26.6782H18.4532V31.8019H16.7321V23.6611H18.2426L21.7565 28.7809H21.828V23.6611H23.5412Z" fill="#FAFAFA"/>
<path d="M9.76225 31.8019H7.91785L10.7282 23.6611H12.9462L15.7526 31.8019H13.9082L11.869 25.5214H11.8054L9.76225 31.8019ZM9.64697 28.6021H14.0036V29.9456H9.64697V28.6021Z" fill="#FAFAFA"/>
</svg>
