<svg width="106" height="153" viewBox="0 0 106 153" fill="none" xmlns="http://www.w3.org/2000/svg">
<path d="M58 28.4782C78.6049 -7.21462 53.5928 51.3812 62.4072 36.1126C71.2215 20.8439 96.5197 -14.3532 75.6858 21.7362C54.852 57.8257 70.7064 43.0528 83.012 21.7362C95.3177 0.419697 66.8143 77.8534 83.012 49.7948C95.9702 27.348 103.102 23.0913 98.6946 36.1126" stroke="#ED222F" stroke-width="12"/>
<path d="M68.5455 31V30H67.5455H49.0455H48.7555L48.5105 30.1551L25.4651 44.746L25 45.0405V45.5909V63.0455V64.8526L26.5311 63.8927L46.8636 51.147V124.091V125.091H47.8636H67.5455H68.5455V124.091V31Z" fill="#FAFAFA" stroke="#0A0B0A" stroke-width="2"/>
<path d="M49.0455 54V51.5H46.5455H28.0455H27.3206L26.7081 51.8878L3.66267 66.4787L2.5 67.2148V68.5909V86.0455V90.5632L6.32784 88.1637L24.3636 76.8576V147.091V149.591H26.8636H46.5455H49.0455V147.091V54Z" fill="#0A0B0A" stroke="#0A0B0A" stroke-width="5"/>
</svg>
