<svg width="217" height="207" viewBox="0 0 217 207" fill="none" xmlns="http://www.w3.org/2000/svg">
<path d="M144.5 42.7174C175.407 -10.8219 137.889 77.0718 151.111 54.1688C164.332 31.2659 202.279 -21.5298 171.029 32.6044C139.778 86.7385 163.56 64.5792 182.018 32.6044C200.477 0.629545 157.721 116.78 182.018 74.6923C201.455 41.0219 212.153 34.6369 205.542 54.1688" stroke="#1E77B7" stroke-width="18"/>
<rect x="17" y="31.5" width="159" height="159" rx="31.5" fill="#FAFAFA" stroke="#0A0B0A"/>
<rect x="0.5" y="47" width="160" height="160" rx="32" fill="#0A0B0A"/>
<path d="M110.5 124.277V114.6C110.5 109.134 110.5 106.4 109.153 104.617C107.806 102.834 104.76 101.968 98.669 100.236C94.5073 99.0533 90.8387 97.6281 87.9077 96.327C83.9113 94.553 81.9133 93.666 80.5 93.666C79.0867 93.666 77.0887 94.553 73.0924 96.327C70.1613 97.6281 66.4928 99.0533 62.3311 100.236C56.2398 101.968 53.1941 102.834 51.847 104.617C50.5 106.4 50.5 109.134 50.5 114.6V124.277C50.5 143.028 67.3759 154.278 75.8133 158.731C77.837 159.799 78.8487 160.333 80.5 160.333C82.1513 160.333 83.163 159.799 85.1867 158.731C93.624 154.278 110.5 143.028 110.5 124.277Z" stroke="#FAFAFA" stroke-width="2.5" stroke-linecap="round"/>
<path d="M80.5 110.334V117.001" stroke="#FAFAFA" stroke-width="2.5" stroke-linecap="round"/>
</svg>
