<svg width="122" height="166" viewBox="0 0 122 166" fill="none" xmlns="http://www.w3.org/2000/svg">
<path d="M74 28.4782C94.6049 -7.21462 69.5928 51.3812 78.4072 36.1126C87.2215 20.8439 112.52 -14.3532 91.6858 21.7362C70.852 57.8257 86.7064 43.0528 99.012 21.7362C111.318 0.419697 82.8143 77.8534 99.012 49.7948C111.97 27.348 119.102 23.0913 114.695 36.1126" stroke="#1E77B7" stroke-width="11.5"/>
<mask id="path-2-outside-1_229_1556" maskUnits="userSpaceOnUse" x="19" y="25" width="68" height="97" fill="black">
<rect fill="white" x="19" y="25" width="68" height="97"/>
<path d="M41.75 65.1875H51.6875C54.5208 65.1875 56.8542 64.6875 58.6875 63.6875C60.5625 62.6875 61.9375 61.2708 62.8125 59.4375C63.7292 57.6042 64.1875 55.4583 64.1875 53C64.1875 50.875 63.7708 48.9792 62.9375 47.3125C62.1042 45.6458 60.8333 44.3333 59.125 43.375C57.4583 42.375 55.2917 41.875 52.625 41.875C50.7083 41.875 48.875 42.2708 47.125 43.0625C45.4167 43.8125 44.0208 44.9167 42.9375 46.375C41.8542 47.7917 41.3125 49.5 41.3125 51.5H21.75C21.75 46.4167 23.125 42.0208 25.875 38.3125C28.6667 34.6042 32.3542 31.75 36.9375 29.75C41.5625 27.7083 46.6042 26.6875 52.0625 26.6875C58.3542 26.6875 63.875 27.6875 68.625 29.6875C73.4167 31.6458 77.125 34.5625 79.75 38.4375C82.4167 42.2708 83.75 47.0208 83.75 52.6875C83.75 55.6458 83.0417 58.5 81.625 61.25C80.25 63.9583 78.2708 66.375 75.6875 68.5C73.1458 70.5833 70.1042 72.25 66.5625 73.5C63.0625 74.7083 59.1667 75.3125 54.875 75.3125H41.75V65.1875ZM41.75 79.875V69.9375H54.875C59.625 69.9375 63.875 70.4792 67.625 71.5625C71.375 72.6458 74.5625 74.2083 77.1875 76.25C79.8125 78.2917 81.8125 80.7708 83.1875 83.6875C84.5625 86.6042 85.25 89.8542 85.25 93.4375C85.25 97.6875 84.4167 101.479 82.75 104.812C81.0833 108.146 78.75 110.958 75.75 113.25C72.75 115.542 69.2292 117.292 65.1875 118.5C61.1458 119.667 56.7708 120.25 52.0625 120.25C48.2708 120.25 44.5 119.729 40.75 118.688C37 117.646 33.6042 116.062 30.5625 113.938C27.5208 111.771 25.0833 109.042 23.25 105.75C21.4167 102.417 20.5 98.4583 20.5 93.875H40.0625C40.0625 96 40.6042 97.9167 41.6875 99.625C42.8125 101.292 44.3333 102.625 46.25 103.625C48.2083 104.583 50.3333 105.062 52.625 105.062C55.375 105.062 57.7083 104.562 59.625 103.562C61.5833 102.521 63.0625 101.104 64.0625 99.3125C65.1042 97.5208 65.625 95.4583 65.625 93.125C65.625 89.9583 65.0625 87.4167 63.9375 85.5C62.8542 83.5417 61.2708 82.125 59.1875 81.25C57.1042 80.3333 54.6042 79.875 51.6875 79.875H41.75Z"/>
</mask>
<path d="M41.75 65.1875H51.6875C54.5208 65.1875 56.8542 64.6875 58.6875 63.6875C60.5625 62.6875 61.9375 61.2708 62.8125 59.4375C63.7292 57.6042 64.1875 55.4583 64.1875 53C64.1875 50.875 63.7708 48.9792 62.9375 47.3125C62.1042 45.6458 60.8333 44.3333 59.125 43.375C57.4583 42.375 55.2917 41.875 52.625 41.875C50.7083 41.875 48.875 42.2708 47.125 43.0625C45.4167 43.8125 44.0208 44.9167 42.9375 46.375C41.8542 47.7917 41.3125 49.5 41.3125 51.5H21.75C21.75 46.4167 23.125 42.0208 25.875 38.3125C28.6667 34.6042 32.3542 31.75 36.9375 29.75C41.5625 27.7083 46.6042 26.6875 52.0625 26.6875C58.3542 26.6875 63.875 27.6875 68.625 29.6875C73.4167 31.6458 77.125 34.5625 79.75 38.4375C82.4167 42.2708 83.75 47.0208 83.75 52.6875C83.75 55.6458 83.0417 58.5 81.625 61.25C80.25 63.9583 78.2708 66.375 75.6875 68.5C73.1458 70.5833 70.1042 72.25 66.5625 73.5C63.0625 74.7083 59.1667 75.3125 54.875 75.3125H41.75V65.1875ZM41.75 79.875V69.9375H54.875C59.625 69.9375 63.875 70.4792 67.625 71.5625C71.375 72.6458 74.5625 74.2083 77.1875 76.25C79.8125 78.2917 81.8125 80.7708 83.1875 83.6875C84.5625 86.6042 85.25 89.8542 85.25 93.4375C85.25 97.6875 84.4167 101.479 82.75 104.812C81.0833 108.146 78.75 110.958 75.75 113.25C72.75 115.542 69.2292 117.292 65.1875 118.5C61.1458 119.667 56.7708 120.25 52.0625 120.25C48.2708 120.25 44.5 119.729 40.75 118.688C37 117.646 33.6042 116.062 30.5625 113.938C27.5208 111.771 25.0833 109.042 23.25 105.75C21.4167 102.417 20.5 98.4583 20.5 93.875H40.0625C40.0625 96 40.6042 97.9167 41.6875 99.625C42.8125 101.292 44.3333 102.625 46.25 103.625C48.2083 104.583 50.3333 105.062 52.625 105.062C55.375 105.062 57.7083 104.562 59.625 103.562C61.5833 102.521 63.0625 101.104 64.0625 99.3125C65.1042 97.5208 65.625 95.4583 65.625 93.125C65.625 89.9583 65.0625 87.4167 63.9375 85.5C62.8542 83.5417 61.2708 82.125 59.1875 81.25C57.1042 80.3333 54.6042 79.875 51.6875 79.875H41.75Z" fill="#FAFAFA"/>
<path d="M41.75 65.1875V64.1875H40.75V65.1875H41.75ZM58.6875 63.6875L58.2169 62.8051L58.2086 62.8096L58.6875 63.6875ZM62.8125 59.4375L61.9181 58.9903L61.914 58.9985L61.91 59.0068L62.8125 59.4375ZM59.125 43.375L58.6105 44.2325L58.623 44.24L58.6357 44.2471L59.125 43.375ZM47.125 43.0625L47.527 43.9782L47.5372 43.9736L47.125 43.0625ZM42.9375 46.375L43.7319 46.9825L43.7402 46.9713L42.9375 46.375ZM41.3125 51.5V52.5H42.3125V51.5H41.3125ZM21.75 51.5H20.75V52.5H21.75V51.5ZM25.875 38.3125L25.0761 37.711L25.0718 37.7168L25.875 38.3125ZM36.9375 29.75L37.3374 30.6665L37.3413 30.6648L36.9375 29.75ZM68.625 29.6875L68.2369 30.6092L68.2467 30.6132L68.625 29.6875ZM79.75 38.4375L78.922 38.9984L78.9291 39.0086L79.75 38.4375ZM81.625 61.25L80.736 60.792L80.7333 60.7973L81.625 61.25ZM75.6875 68.5L76.3214 69.2734L76.3228 69.2723L75.6875 68.5ZM66.5625 73.5L66.8888 74.4453L66.8953 74.443L66.5625 73.5ZM41.75 75.3125H40.75V76.3125H41.75V75.3125ZM41.75 79.875H40.75V80.875H41.75V79.875ZM41.75 69.9375V68.9375H40.75V69.9375H41.75ZM75.75 113.25L75.143 112.455L75.75 113.25ZM65.1875 118.5L65.4648 119.461L65.4739 119.458L65.1875 118.5ZM30.5625 113.938L29.9823 114.752L29.9898 114.757L30.5625 113.938ZM23.25 105.75L22.3738 106.232L22.3764 106.237L23.25 105.75ZM20.5 93.875V92.875H19.5V93.875H20.5ZM40.0625 93.875H41.0625V92.875H40.0625V93.875ZM41.6875 99.625L40.843 100.161L40.8507 100.173L40.8587 100.184L41.6875 99.625ZM46.25 103.625L45.7874 104.512L45.7989 104.518L45.8104 104.523L46.25 103.625ZM59.625 103.562L60.0876 104.449L60.0946 104.445L59.625 103.562ZM64.0625 99.3125L63.198 98.8099L63.1936 98.8175L63.1893 98.8251L64.0625 99.3125ZM63.9375 85.5L63.0625 85.9841L63.0686 85.9952L63.0751 86.0062L63.9375 85.5ZM59.1875 81.25L58.7848 82.1653L58.7925 82.1687L58.8003 82.172L59.1875 81.25ZM41.75 66.1875H51.6875V64.1875H41.75V66.1875ZM51.6875 66.1875C54.6311 66.1875 57.1431 65.669 59.1664 64.5654L58.2086 62.8096C56.5653 63.706 54.4106 64.1875 51.6875 64.1875V66.1875ZM59.1581 64.5699C61.2123 63.4743 62.7435 61.9036 63.715 59.8682L61.91 59.0068C61.1315 60.638 59.9127 61.9007 58.2169 62.8051L59.1581 64.5699ZM63.7069 59.8847C64.7055 57.8875 65.1875 55.5829 65.1875 53H63.1875C63.1875 55.3337 62.7528 57.3208 61.9181 58.9903L63.7069 59.8847ZM65.1875 53C65.1875 50.7417 64.7439 48.6892 63.8319 46.8653L62.0431 47.7597C62.7978 49.2692 63.1875 51.0083 63.1875 53H65.1875ZM63.8319 46.8653C62.9044 45.0102 61.4877 43.5538 59.6143 42.5029L58.6357 44.2471C60.179 45.1129 61.304 46.2815 62.0431 47.7597L63.8319 46.8653ZM59.6395 42.5175C57.77 41.3958 55.4082 40.875 52.625 40.875V42.875C55.1752 42.875 57.1467 43.3542 58.6105 44.2325L59.6395 42.5175ZM52.625 40.875C50.5659 40.875 48.5921 41.3013 46.7128 42.1514L47.5372 43.9736C49.1579 43.2404 50.8508 42.875 52.625 42.875V40.875ZM46.723 42.1469C44.8601 42.9647 43.3246 44.177 42.1348 45.7787L43.7402 46.9713C44.7171 45.6563 45.9732 44.6603 47.527 43.9781L46.723 42.1469ZM42.1431 45.7676C40.9103 47.3797 40.3125 49.3085 40.3125 51.5H42.3125C42.3125 49.6915 42.798 48.2037 43.7319 46.9824L42.1431 45.7676ZM41.3125 50.5H21.75V52.5H41.3125V50.5ZM22.75 51.5C22.75 46.6083 24.069 42.4267 26.6782 38.9082L25.0718 37.7168C22.181 41.615 20.75 46.225 20.75 51.5H22.75ZM26.6739 38.9139C29.354 35.3538 32.8994 32.6031 37.3374 30.6665L36.5376 28.8335C31.8089 30.8969 27.9793 33.8545 25.0761 37.7111L26.6739 38.9139ZM37.3413 30.6648C41.8292 28.6837 46.732 27.6875 52.0625 27.6875V25.6875C46.4763 25.6875 41.2958 26.733 36.5337 28.8352L37.3413 30.6648ZM52.0625 27.6875C58.2495 27.6875 63.6337 28.6709 68.2369 30.6091L69.0131 28.7659C64.1163 26.7041 58.4588 25.6875 52.0625 25.6875V27.6875ZM68.2467 30.6132C72.8759 32.5051 76.4193 35.3037 78.9221 38.9983L80.5779 37.8767C77.8307 33.8213 73.9574 30.7866 69.0033 28.7618L68.2467 30.6132ZM78.9291 39.0086C81.4562 42.6413 82.75 47.1807 82.75 52.6875H84.75C84.75 46.8609 83.3771 41.9004 80.5709 37.8664L78.9291 39.0086ZM82.75 52.6875C82.75 55.4792 82.0832 58.177 80.736 60.792L82.514 61.708C84.0002 58.823 84.75 55.8125 84.75 52.6875H82.75ZM80.7333 60.7973C79.4269 63.3706 77.5398 65.6815 75.0522 67.7277L76.3228 69.2723C79.0018 67.0685 81.0731 64.5461 82.5167 61.7027L80.7333 60.7973ZM75.0536 67.7266C72.6135 69.7267 69.6773 71.3402 66.2297 72.557L66.8953 74.443C70.531 73.1598 73.6782 71.44 76.3214 69.2734L75.0536 67.7266ZM66.2362 72.5547C62.8564 73.7216 59.0729 74.3125 54.875 74.3125V76.3125C59.2604 76.3125 63.2686 75.6951 66.8888 74.4453L66.2362 72.5547ZM54.875 74.3125H41.75V76.3125H54.875V74.3125ZM42.75 75.3125V65.1875H40.75V75.3125H42.75ZM42.75 79.875V69.9375H40.75V79.875H42.75ZM41.75 70.9375H54.875V68.9375H41.75V70.9375ZM54.875 70.9375C59.5507 70.9375 63.7047 71.4709 67.3475 72.5232L67.9025 70.6018C64.0453 69.4875 59.6993 68.9375 54.875 68.9375V70.9375ZM67.3475 72.5232C70.9963 73.5773 74.0646 75.0879 76.5736 77.0394L77.8014 75.4606C75.0604 73.3287 71.7537 71.7143 67.9025 70.6018L67.3475 72.5232ZM76.5736 77.0394C79.0785 78.9877 80.9771 81.3439 82.283 84.1139L84.092 83.2611C82.6479 80.1978 80.5465 77.5957 77.8014 75.4606L76.5736 77.0394ZM82.283 84.1139C83.5884 86.883 84.25 89.9851 84.25 93.4375H86.25C86.25 89.7233 85.5366 86.3253 84.092 83.2611L82.283 84.1139ZM84.25 93.4375C84.25 97.5542 83.4436 101.189 81.8556 104.365L83.6444 105.26C85.3897 101.769 86.25 97.8208 86.25 93.4375H84.25ZM81.8556 104.365C80.2579 107.561 78.0236 110.255 75.143 112.455L76.357 114.045C79.4764 111.662 81.9088 108.731 83.6444 105.26L81.8556 104.365ZM75.143 112.455C72.2497 114.665 68.8404 116.364 64.9011 117.542L65.4739 119.458C69.6179 118.219 73.2503 116.418 76.357 114.045L75.143 112.455ZM64.9102 117.539C60.9687 118.677 56.688 119.25 52.0625 119.25V121.25C56.8536 121.25 61.323 120.656 65.4648 119.461L64.9102 117.539ZM52.0625 119.25C48.3637 119.25 44.6828 118.742 41.0176 117.724L40.4824 119.651C44.3172 120.716 48.178 121.25 52.0625 121.25V119.25ZM41.0176 117.724C37.3713 116.711 34.0796 115.175 31.1352 113.118L29.9898 114.757C33.1287 116.95 36.6287 118.581 40.4824 119.651L41.0176 117.724ZM31.1427 113.123C28.2231 111.043 25.8854 108.427 24.1236 105.263L22.3764 106.237C24.2813 109.657 26.8186 112.498 29.9823 114.752L31.1427 113.123ZM24.1262 105.268C22.3892 102.11 21.5 98.3242 21.5 93.875H19.5C19.5 98.5925 20.4442 102.724 22.3738 106.232L24.1262 105.268ZM20.5 94.875H40.0625V92.875H20.5V94.875ZM39.0625 93.875C39.0625 96.1796 39.6528 98.2838 40.843 100.161L42.532 99.0895C41.5555 97.5496 41.0625 95.8204 41.0625 93.875H39.0625ZM40.8587 100.184C42.0836 101.999 43.7348 103.441 45.7874 104.512L46.7126 102.738C44.9319 101.809 43.5414 100.584 42.5163 99.0655L40.8587 100.184ZM45.8104 104.523C47.9126 105.552 50.189 106.062 52.625 106.062V104.062C50.4777 104.062 48.504 103.615 46.6896 102.727L45.8104 104.523ZM52.625 106.062C55.4934 106.062 57.9945 105.541 60.0876 104.449L59.1624 102.676C57.4222 103.584 55.2566 104.062 52.625 104.062V106.062ZM60.0946 104.445C62.2084 103.321 63.8344 101.773 64.9357 99.7999L63.1893 98.8251C62.2906 100.435 60.9583 101.721 59.1554 102.68L60.0946 104.445ZM64.927 99.8151C66.0682 97.8523 66.625 95.6122 66.625 93.125H64.625C64.625 95.3045 64.1402 97.1893 63.198 98.8099L64.927 99.8151ZM66.625 93.125C66.625 89.8518 66.0454 87.1157 64.7999 84.9938L63.0751 86.0062C64.0796 87.7177 64.625 90.0648 64.625 93.125H66.625ZM64.8125 85.0159C63.6193 82.8589 61.8631 81.2891 59.5747 80.328L58.8003 82.172C60.6786 82.9609 62.089 84.2244 63.0625 85.9841L64.8125 85.0159ZM59.5902 80.3347C57.3496 79.3488 54.7053 78.875 51.6875 78.875V80.875C54.503 80.875 56.8587 81.3178 58.7848 82.1653L59.5902 80.3347ZM51.6875 78.875H41.75V80.875H51.6875V78.875Z" fill="#0A0B0A" mask="url(#path-2-outside-1_229_1556)"/>
<mask id="path-4-outside-2_229_1556" maskUnits="userSpaceOnUse" x="-2" y="37" width="76" height="105" fill="black">
<rect fill="white" x="-2" y="37" width="76" height="105"/>
<path d="M24.75 81.1875H34.6875C37.5208 81.1875 39.8542 80.6875 41.6875 79.6875C43.5625 78.6875 44.9375 77.2708 45.8125 75.4375C46.7292 73.6042 47.1875 71.4583 47.1875 69C47.1875 66.875 46.7708 64.9792 45.9375 63.3125C45.1042 61.6458 43.8333 60.3333 42.125 59.375C40.4583 58.375 38.2917 57.875 35.625 57.875C33.7083 57.875 31.875 58.2708 30.125 59.0625C28.4167 59.8125 27.0208 60.9167 25.9375 62.375C24.8542 63.7917 24.3125 65.5 24.3125 67.5H4.75C4.75 62.4167 6.125 58.0208 8.875 54.3125C11.6667 50.6042 15.3542 47.75 19.9375 45.75C24.5625 43.7083 29.6042 42.6875 35.0625 42.6875C41.3542 42.6875 46.875 43.6875 51.625 45.6875C56.4167 47.6458 60.125 50.5625 62.75 54.4375C65.4167 58.2708 66.75 63.0208 66.75 68.6875C66.75 71.6458 66.0417 74.5 64.625 77.25C63.25 79.9583 61.2708 82.375 58.6875 84.5C56.1458 86.5833 53.1042 88.25 49.5625 89.5C46.0625 90.7083 42.1667 91.3125 37.875 91.3125H24.75V81.1875ZM24.75 95.875V85.9375H37.875C42.625 85.9375 46.875 86.4792 50.625 87.5625C54.375 88.6458 57.5625 90.2083 60.1875 92.25C62.8125 94.2917 64.8125 96.7708 66.1875 99.6875C67.5625 102.604 68.25 105.854 68.25 109.438C68.25 113.688 67.4167 117.479 65.75 120.812C64.0833 124.146 61.75 126.958 58.75 129.25C55.75 131.542 52.2292 133.292 48.1875 134.5C44.1458 135.667 39.7708 136.25 35.0625 136.25C31.2708 136.25 27.5 135.729 23.75 134.688C20 133.646 16.6042 132.062 13.5625 129.938C10.5208 127.771 8.08333 125.042 6.25 121.75C4.41667 118.417 3.5 114.458 3.5 109.875H23.0625C23.0625 112 23.6042 113.917 24.6875 115.625C25.8125 117.292 27.3333 118.625 29.25 119.625C31.2083 120.583 33.3333 121.062 35.625 121.062C38.375 121.062 40.7083 120.562 42.625 119.562C44.5833 118.521 46.0625 117.104 47.0625 115.312C48.1042 113.521 48.625 111.458 48.625 109.125C48.625 105.958 48.0625 103.417 46.9375 101.5C45.8542 99.5417 44.2708 98.125 42.1875 97.25C40.1042 96.3333 37.6042 95.875 34.6875 95.875H24.75Z"/>
</mask>
<path d="M24.75 81.1875H34.6875C37.5208 81.1875 39.8542 80.6875 41.6875 79.6875C43.5625 78.6875 44.9375 77.2708 45.8125 75.4375C46.7292 73.6042 47.1875 71.4583 47.1875 69C47.1875 66.875 46.7708 64.9792 45.9375 63.3125C45.1042 61.6458 43.8333 60.3333 42.125 59.375C40.4583 58.375 38.2917 57.875 35.625 57.875C33.7083 57.875 31.875 58.2708 30.125 59.0625C28.4167 59.8125 27.0208 60.9167 25.9375 62.375C24.8542 63.7917 24.3125 65.5 24.3125 67.5H4.75C4.75 62.4167 6.125 58.0208 8.875 54.3125C11.6667 50.6042 15.3542 47.75 19.9375 45.75C24.5625 43.7083 29.6042 42.6875 35.0625 42.6875C41.3542 42.6875 46.875 43.6875 51.625 45.6875C56.4167 47.6458 60.125 50.5625 62.75 54.4375C65.4167 58.2708 66.75 63.0208 66.75 68.6875C66.75 71.6458 66.0417 74.5 64.625 77.25C63.25 79.9583 61.2708 82.375 58.6875 84.5C56.1458 86.5833 53.1042 88.25 49.5625 89.5C46.0625 90.7083 42.1667 91.3125 37.875 91.3125H24.75V81.1875ZM24.75 95.875V85.9375H37.875C42.625 85.9375 46.875 86.4792 50.625 87.5625C54.375 88.6458 57.5625 90.2083 60.1875 92.25C62.8125 94.2917 64.8125 96.7708 66.1875 99.6875C67.5625 102.604 68.25 105.854 68.25 109.438C68.25 113.688 67.4167 117.479 65.75 120.812C64.0833 124.146 61.75 126.958 58.75 129.25C55.75 131.542 52.2292 133.292 48.1875 134.5C44.1458 135.667 39.7708 136.25 35.0625 136.25C31.2708 136.25 27.5 135.729 23.75 134.688C20 133.646 16.6042 132.062 13.5625 129.938C10.5208 127.771 8.08333 125.042 6.25 121.75C4.41667 118.417 3.5 114.458 3.5 109.875H23.0625C23.0625 112 23.6042 113.917 24.6875 115.625C25.8125 117.292 27.3333 118.625 29.25 119.625C31.2083 120.583 33.3333 121.062 35.625 121.062C38.375 121.062 40.7083 120.562 42.625 119.562C44.5833 118.521 46.0625 117.104 47.0625 115.312C48.1042 113.521 48.625 111.458 48.625 109.125C48.625 105.958 48.0625 103.417 46.9375 101.5C45.8542 99.5417 44.2708 98.125 42.1875 97.25C40.1042 96.3333 37.6042 95.875 34.6875 95.875H24.75Z" fill="#0A0B0A"/>
<path d="M24.75 81.1875V76.1875H19.75V81.1875H24.75ZM41.6875 79.6875L39.3346 75.2757L39.3138 75.2868L39.2932 75.298L41.6875 79.6875ZM45.8125 75.4375L41.3404 73.2014L41.3199 73.2425L41.3001 73.2839L45.8125 75.4375ZM42.125 59.375L39.5525 63.6625L39.6151 63.7L39.6787 63.7357L42.125 59.375ZM30.125 59.0625L32.1349 63.6407L32.1605 63.6295L32.1858 63.618L30.125 59.0625ZM25.9375 62.375L29.9093 65.4123L29.9304 65.3846L29.9512 65.3566L25.9375 62.375ZM24.3125 67.5V72.5H29.3125V67.5H24.3125ZM4.75 67.5H-0.25V72.5H4.75V67.5ZM8.875 54.3125L4.88039 51.3053L4.86955 51.3197L4.85881 51.3342L8.875 54.3125ZM19.9375 45.75L21.9372 50.3327L21.947 50.3284L21.9567 50.3241L19.9375 45.75ZM51.625 45.6875L49.6847 50.2957L49.709 50.3059L49.7334 50.3159L51.625 45.6875ZM62.75 54.4375L58.6104 57.2417L58.6278 57.2674L58.6455 57.2928L62.75 54.4375ZM64.625 77.25L60.1801 74.9602L60.1734 74.9734L60.1667 74.9865L64.625 77.25ZM58.6875 84.5L61.8571 88.367L61.8639 88.3615L58.6875 84.5ZM49.5625 89.5L51.1942 94.2263L51.2104 94.2207L51.2266 94.215L49.5625 89.5ZM24.75 91.3125H19.75V96.3125H24.75V91.3125ZM24.75 95.875H19.75V100.875H24.75V95.875ZM24.75 85.9375V80.9375H19.75V85.9375H24.75ZM58.75 129.25L55.7148 125.277L58.75 129.25ZM48.1875 134.5L49.5742 139.304L49.597 139.297L49.6197 139.29L48.1875 134.5ZM13.5625 129.938L10.6616 134.01L10.6802 134.023L10.699 134.036L13.5625 129.938ZM6.25 121.75L1.86892 124.16L1.87534 124.171L1.88182 124.183L6.25 121.75ZM3.5 109.875V104.875H-1.5V109.875H3.5ZM23.0625 109.875H28.0625V104.875H23.0625V109.875ZM24.6875 115.625L20.465 118.303L20.5033 118.363L20.5433 118.422L24.6875 115.625ZM29.25 119.625L26.9372 124.058L26.9943 124.088L27.0522 124.116L29.25 119.625ZM42.625 119.562L44.9378 123.995L44.9555 123.986L44.9731 123.977L42.625 119.562ZM47.0625 115.312L42.74 112.799L42.7179 112.837L42.6965 112.876L47.0625 115.312ZM46.9375 101.5L42.5623 103.92L42.5932 103.976L42.6254 104.031L46.9375 101.5ZM42.1875 97.25L40.1738 101.827L40.2124 101.844L40.2513 101.86L42.1875 97.25ZM24.75 86.1875H34.6875V76.1875H24.75V86.1875ZM34.6875 86.1875C38.072 86.1875 41.2986 85.595 44.0818 84.077L39.2932 75.298C38.4097 75.78 36.9697 76.1875 34.6875 76.1875V86.1875ZM44.0404 84.0993C46.8116 82.6213 48.9677 80.4349 50.3249 77.5911L41.3001 73.2839C40.9073 74.1068 40.3134 74.7537 39.3346 75.2757L44.0404 84.0993ZM50.2846 77.6736C51.611 75.0208 52.1875 72.0814 52.1875 69H42.1875C42.1875 70.8353 41.8473 72.1875 41.3404 73.2014L50.2846 77.6736ZM52.1875 69C52.1875 66.2083 51.636 63.5291 50.4096 61.0764L41.4654 65.5486C41.9057 66.4292 42.1875 67.5417 42.1875 69H52.1875ZM50.4096 61.0764C49.1052 58.4676 47.1051 56.4357 44.5713 55.0143L39.6787 63.7357C40.5616 64.231 41.1031 64.8241 41.4654 65.5486L50.4096 61.0764ZM44.6975 55.0875C42.0165 53.4789 38.8741 52.875 35.625 52.875V62.875C37.7092 62.875 38.9002 63.2711 39.5525 63.6625L44.6975 55.0875ZM35.625 52.875C32.996 52.875 30.4603 53.423 28.0642 54.507L32.1858 63.618C33.2897 63.1187 34.4206 62.875 35.625 62.875V52.875ZM28.115 54.4843C25.6339 55.5736 23.5395 57.2184 21.9238 59.3934L29.9512 65.3566C30.5022 64.6149 31.1994 64.0514 32.1349 63.6407L28.115 54.4843ZM21.9657 59.3377C20.135 61.7317 19.3125 64.5424 19.3125 67.5H29.3125C29.3125 66.4576 29.5733 65.8516 29.9093 65.4123L21.9657 59.3377ZM24.3125 62.5H4.75V72.5H24.3125V62.5ZM9.75 67.5C9.75 63.375 10.8449 60.0501 12.8912 57.2908L4.85881 51.3342C1.40507 55.9915 -0.25 61.4583 -0.25 67.5H9.75ZM12.8696 57.3197C15.1033 54.3525 18.0805 52.0156 21.9372 50.3327L17.9378 41.1673C12.6278 43.4844 8.23 46.8558 4.88039 51.3053L12.8696 57.3197ZM21.9567 50.3241C25.8962 48.5851 30.2434 47.6875 35.0625 47.6875V37.6875C28.9649 37.6875 23.2288 38.8316 17.9183 41.1759L21.9567 50.3241ZM35.0625 47.6875C40.831 47.6875 45.6685 48.6046 49.6847 50.2957L53.5653 41.0793C48.0815 38.7704 41.8773 37.6875 35.0625 37.6875V47.6875ZM49.7334 50.3159C53.7128 51.9422 56.5964 54.2687 58.6104 57.2417L66.8896 51.6333C63.6536 46.8563 59.1205 43.3494 53.5166 41.0591L49.7334 50.3159ZM58.6455 57.2928C60.6143 60.1231 61.75 63.8203 61.75 68.6875H71.75C71.75 62.2214 70.219 56.4186 66.8545 51.5822L58.6455 57.2928ZM61.75 68.6875C61.75 70.8125 61.2492 72.885 60.1801 74.9602L69.0699 79.5398C70.8341 76.115 71.75 72.4791 71.75 68.6875H61.75ZM60.1667 74.9865C59.1345 77.0196 57.6158 78.9073 55.5111 80.6385L61.8639 88.3615C64.9259 85.8427 67.3655 82.897 69.0833 79.5135L60.1667 74.9865ZM55.5179 80.633C53.4842 82.3 50.9699 83.701 47.8984 84.785L51.2266 94.215C55.2384 92.799 58.8075 90.8667 61.8571 88.367L55.5179 80.633ZM47.9308 84.7737C45.0318 85.7746 41.698 86.3125 37.875 86.3125V96.3125C42.6354 96.3125 47.0932 95.6421 51.1942 94.2263L47.9308 84.7737ZM37.875 86.3125H24.75V96.3125H37.875V86.3125ZM29.75 91.3125V81.1875H19.75V91.3125H29.75ZM29.75 95.875V85.9375H19.75V95.875H29.75ZM24.75 90.9375H37.875V80.9375H24.75V90.9375ZM37.875 90.9375C42.2533 90.9375 46.0235 91.4377 49.2373 92.3661L52.0127 82.7589C47.7265 81.5207 42.9967 80.9375 37.875 80.9375V90.9375ZM49.2373 92.3661C52.4815 93.3033 55.073 94.6064 57.1178 96.1968L63.2572 88.3032C60.052 85.8103 56.2685 83.9884 52.0127 82.7589L49.2373 92.3661ZM57.1178 96.1968C59.1427 97.7717 60.6356 99.6362 61.6649 101.82L70.7101 97.5554C68.9894 93.9054 66.4823 90.8116 63.2572 88.3032L57.1178 96.1968ZM61.6649 101.82C62.692 103.998 63.25 106.509 63.25 109.438H73.25C73.25 105.2 72.433 101.21 70.7101 97.5554L61.6649 101.82ZM63.25 109.438C63.25 113.021 62.5515 116.029 61.2779 118.576L70.2221 123.049C72.2818 118.929 73.25 114.354 73.25 109.438H63.25ZM61.2779 118.576C59.9562 121.22 58.1179 123.441 55.7148 125.277L61.7852 133.223C65.3821 130.476 68.2104 127.072 70.2221 123.049L61.2779 118.576ZM55.7148 125.277C53.2484 127.161 50.2853 128.654 46.7553 129.71L49.6197 139.29C54.173 137.929 58.2516 135.923 61.7852 133.223L55.7148 125.277ZM46.8008 129.696C43.2599 130.718 39.3568 131.25 35.0625 131.25V141.25C40.1849 141.25 45.0317 140.615 49.5742 139.304L46.8008 129.696ZM35.0625 131.25C31.735 131.25 28.4141 130.794 25.0882 129.87L22.4118 139.505C26.5859 140.665 30.8067 141.25 35.0625 141.25V131.25ZM25.0882 129.87C21.8567 128.972 18.9812 127.624 16.426 125.839L10.699 134.036C14.2271 136.501 18.1433 138.319 22.4118 139.505L25.0882 129.87ZM16.4634 125.865C14.0321 124.133 12.0936 121.966 10.6182 119.317L1.88182 124.183C4.07311 128.117 7.0096 131.409 10.6616 134.01L16.4634 125.865ZM10.6311 119.34C9.27921 116.882 8.5 113.788 8.5 109.875H-1.5C-1.5 115.129 -0.445881 119.951 1.86892 124.16L10.6311 119.34ZM3.5 114.875H23.0625V104.875H3.5V114.875ZM18.0625 109.875C18.0625 112.898 18.8476 115.752 20.465 118.303L28.91 112.947C28.3608 112.081 28.0625 111.102 28.0625 109.875H18.0625ZM20.5433 118.422C22.1679 120.829 24.3405 122.703 26.9372 124.058L31.5628 115.192C30.3262 114.547 29.4571 113.754 28.8317 112.828L20.5433 118.422ZM27.0522 124.116C29.7298 125.426 32.6115 126.062 35.625 126.062V116.062C34.0552 116.062 32.6868 115.74 31.4478 115.134L27.0522 124.116ZM35.625 126.062C38.9669 126.062 42.1392 125.456 44.9378 123.995L40.3122 115.13C39.2774 115.669 37.7831 116.062 35.625 116.062V126.062ZM44.9731 123.977C47.7084 122.522 49.9219 120.449 51.4285 117.749L42.6965 112.876C42.2031 113.76 41.4582 114.52 40.2769 115.148L44.9731 123.977ZM51.385 117.826C52.9242 115.178 53.625 112.228 53.625 109.125H43.625C43.625 110.689 43.2842 111.863 42.74 112.799L51.385 117.826ZM53.625 109.125C53.625 105.426 52.9768 101.912 51.2496 98.969L42.6254 104.031C43.1482 104.922 43.625 106.491 43.625 109.125H53.625ZM51.3127 99.0797C49.6798 96.1279 47.2321 93.9456 44.1237 92.6401L40.2513 101.86C41.3096 102.304 42.0286 102.955 42.5623 103.92L51.3127 99.0797ZM44.2012 92.6734C41.3315 91.4108 38.1099 90.875 34.6875 90.875V100.875C37.0984 100.875 38.8768 101.256 40.1738 101.827L44.2012 92.6734ZM34.6875 90.875H24.75V100.875H34.6875V90.875Z" fill="#0A0B0A" mask="url(#path-4-outside-2_229_1556)"/>
</svg>
