<svg width="122" height="165" viewBox="0 0 122 165" fill="none" xmlns="http://www.w3.org/2000/svg">
<path d="M74 28.4782C94.6049 -7.21462 69.5928 51.3812 78.4072 36.1126C87.2215 20.8439 112.52 -14.3532 91.6858 21.7362C70.852 57.8257 86.7064 43.0528 99.012 21.7362C111.318 0.419697 82.8143 77.8534 99.012 49.7948C111.97 27.348 119.102 23.0913 114.695 36.1126" stroke="#EDC800" stroke-width="11.5"/>
<mask id="path-2-outside-1_229_1551" maskUnits="userSpaceOnUse" x="20" y="25" width="67" height="95" fill="black">
<rect fill="white" x="20" y="25" width="67" height="95"/>
<path d="M85.8125 103.812V119H22.9375V106.125L52.3125 75C55.0625 71.8333 57.25 69.0417 58.875 66.625C60.5417 64.2083 61.75 62.0208 62.5 60.0625C63.25 58.0625 63.625 56.2292 63.625 54.5625C63.625 51.8542 63.1875 49.5625 62.3125 47.6875C61.4792 45.8125 60.25 44.375 58.625 43.375C57 42.375 55.0208 41.875 52.6875 41.875C50.1875 41.875 48.0417 42.5208 46.25 43.8125C44.4583 45.1042 43.0833 46.8958 42.125 49.1875C41.1667 51.4375 40.6875 54 40.6875 56.875H21.0625C21.0625 51.3333 22.3958 46.2917 25.0625 41.75C27.7292 37.1667 31.4583 33.5208 36.25 30.8125C41.0417 28.0625 46.6458 26.6875 53.0625 26.6875C59.6458 26.6875 65.1667 27.7292 69.625 29.8125C74.0833 31.8958 77.4583 34.875 79.75 38.75C82.0417 42.625 83.1875 47.2917 83.1875 52.75C83.1875 55.8333 82.6875 58.8125 81.6875 61.6875C80.7292 64.5625 79.3333 67.4167 77.5 70.25C75.6667 73.0833 73.4583 75.9792 70.875 78.9375C68.2917 81.8542 65.375 84.9375 62.125 88.1875L48.375 103.812H85.8125Z"/>
</mask>
<path d="M85.8125 103.812V119H22.9375V106.125L52.3125 75C55.0625 71.8333 57.25 69.0417 58.875 66.625C60.5417 64.2083 61.75 62.0208 62.5 60.0625C63.25 58.0625 63.625 56.2292 63.625 54.5625C63.625 51.8542 63.1875 49.5625 62.3125 47.6875C61.4792 45.8125 60.25 44.375 58.625 43.375C57 42.375 55.0208 41.875 52.6875 41.875C50.1875 41.875 48.0417 42.5208 46.25 43.8125C44.4583 45.1042 43.0833 46.8958 42.125 49.1875C41.1667 51.4375 40.6875 54 40.6875 56.875H21.0625C21.0625 51.3333 22.3958 46.2917 25.0625 41.75C27.7292 37.1667 31.4583 33.5208 36.25 30.8125C41.0417 28.0625 46.6458 26.6875 53.0625 26.6875C59.6458 26.6875 65.1667 27.7292 69.625 29.8125C74.0833 31.8958 77.4583 34.875 79.75 38.75C82.0417 42.625 83.1875 47.2917 83.1875 52.75C83.1875 55.8333 82.6875 58.8125 81.6875 61.6875C80.7292 64.5625 79.3333 67.4167 77.5 70.25C75.6667 73.0833 73.4583 75.9792 70.875 78.9375C68.2917 81.8542 65.375 84.9375 62.125 88.1875L48.375 103.812H85.8125Z" fill="#FAFAFA"/>
<path d="M85.8125 103.812H86.8125V102.812H85.8125V103.812ZM85.8125 119V120H86.8125V119H85.8125ZM22.9375 119H21.9375V120H22.9375V119ZM22.9375 106.125L22.2102 105.439L21.9375 105.728V106.125H22.9375ZM52.3125 75L53.0398 75.6864L53.054 75.6713L53.0675 75.6557L52.3125 75ZM58.875 66.625L58.0517 66.0572L58.0452 66.067L58.875 66.625ZM62.5 60.0625L63.4339 60.4202L63.4363 60.4136L62.5 60.0625ZM62.3125 47.6875L61.3987 48.0936L61.4024 48.102L61.4063 48.1104L62.3125 47.6875ZM42.125 49.1875L43.045 49.5794L43.0476 49.5733L42.125 49.1875ZM40.6875 56.875V57.875H41.6875V56.875H40.6875ZM21.0625 56.875H20.0625V57.875H21.0625V56.875ZM25.0625 41.75L25.9248 42.2563L25.9268 42.2529L25.0625 41.75ZM36.25 30.8125L36.7421 31.6831L36.7478 31.6798L36.25 30.8125ZM79.75 38.75L78.8893 39.259L79.75 38.75ZM81.6875 61.6875L80.7429 61.359L80.7388 61.3713L81.6875 61.6875ZM70.875 78.9375L71.6236 79.6006L71.6282 79.5953L70.875 78.9375ZM62.125 88.1875L61.4179 87.4804L61.3953 87.5029L61.3743 87.5269L62.125 88.1875ZM48.375 103.812L47.6243 103.152L46.1629 104.812H48.375V103.812ZM84.8125 103.812V119H86.8125V103.812H84.8125ZM85.8125 118H22.9375V120H85.8125V118ZM23.9375 119V106.125H21.9375V119H23.9375ZM23.6648 106.811L53.0398 75.6864L51.5852 74.3136L22.2102 105.439L23.6648 106.811ZM53.0675 75.6557C55.8338 72.4702 58.0494 69.6449 59.7048 67.183L58.0452 66.067C56.4506 68.4384 54.2912 71.1964 51.5575 74.3443L53.0675 75.6557ZM59.6982 67.1927C61.3935 64.7345 62.6467 62.4756 63.4339 60.4201L61.5661 59.7049C60.8533 61.5661 59.6898 63.6821 58.0518 66.0573L59.6982 67.1927ZM63.4363 60.4136C64.2171 58.3315 64.625 56.3775 64.625 54.5625H62.625C62.625 56.0808 62.2829 57.7935 61.5637 59.7114L63.4363 60.4136ZM64.625 54.5625C64.625 51.7513 64.1715 49.3063 63.2187 47.2646L61.4063 48.1104C62.2035 49.8187 62.625 51.9571 62.625 54.5625H64.625ZM63.2263 47.2814C62.3175 45.2365 60.9591 43.6372 59.1491 42.5233L58.1009 44.2267C59.5409 45.1128 60.6408 46.3885 61.3987 48.0936L63.2263 47.2814ZM59.1491 42.5233C57.3347 41.4068 55.1646 40.875 52.6875 40.875V42.875C54.8771 42.875 56.6653 43.3432 58.1009 44.2267L59.1491 42.5233ZM52.6875 40.875C50.0064 40.875 47.6491 41.571 45.6652 43.0013L46.8348 44.6237C48.4342 43.4706 50.3686 42.875 52.6875 42.875V40.875ZM45.6652 43.0013C43.7058 44.4139 42.2228 46.3616 41.2024 48.8017L43.0476 49.5733C43.9438 47.4301 45.2109 45.7944 46.8348 44.6237L45.6652 43.0013ZM41.205 48.7956C40.1854 51.1893 39.6875 53.8886 39.6875 56.875H41.6875C41.6875 54.1114 42.1479 51.6857 43.045 49.5794L41.205 48.7956ZM40.6875 55.875H21.0625V57.875H40.6875V55.875ZM22.0625 56.875C22.0625 51.5017 23.3531 46.6363 25.9248 42.2563L24.2002 41.2437C21.4386 45.947 20.0625 51.165 20.0625 56.875H22.0625ZM25.9268 42.2529C28.5008 37.829 32.0988 34.3075 36.7421 31.6831L35.7579 29.9419C30.8179 32.7341 26.9576 36.5044 24.1982 41.2471L25.9268 42.2529ZM36.7478 31.6798C41.365 29.0299 46.792 27.6875 53.0625 27.6875V25.6875C46.4997 25.6875 40.7183 27.0951 35.7522 29.9452L36.7478 31.6798ZM53.0625 27.6875C59.5465 27.6875 64.9127 28.7143 69.2017 30.7185L70.0483 28.9065C65.4207 26.7441 59.7452 25.6875 53.0625 25.6875V27.6875ZM69.2017 30.7185C73.4953 32.7249 76.7096 35.5735 78.8893 39.259L80.6107 38.241C78.207 34.1765 74.6713 31.0668 70.0483 28.9065L69.2017 30.7185ZM78.8893 39.259C81.0722 42.9501 82.1875 47.4327 82.1875 52.75H84.1875C84.1875 47.1506 83.0112 42.2999 80.6107 38.241L78.8893 39.259ZM82.1875 52.75C82.1875 55.723 81.7058 58.591 80.743 61.359L82.632 62.016C83.6692 59.034 84.1875 55.9437 84.1875 52.75H82.1875ZM80.7388 61.3713C79.81 64.1578 78.4531 66.9363 76.6604 69.7067L78.3396 70.7933C80.2136 67.897 81.6484 64.9672 82.6362 62.0037L80.7388 61.3713ZM76.6604 69.7067C74.8569 72.494 72.6786 75.3518 70.1218 78.2797L71.6282 79.5953C74.2381 76.6066 76.4764 73.6726 78.3396 70.7933L76.6604 69.7067ZM70.1264 78.2745C67.5586 81.1736 64.6561 84.2422 61.4179 87.4804L62.8321 88.8946C66.0939 85.6328 69.0248 82.5347 71.6236 79.6005L70.1264 78.2745ZM61.3743 87.5269L47.6243 103.152L49.1257 104.473L62.8757 88.8481L61.3743 87.5269ZM48.375 104.812H85.8125V102.812H48.375V104.812Z" fill="#0A0B0A" mask="url(#path-2-outside-1_229_1551)"/>
<mask id="path-4-outside-2_229_1551" maskUnits="userSpaceOnUse" x="-1" y="36" width="75" height="103" fill="black">
<rect fill="white" x="-1" y="36" width="75" height="103"/>
<path d="M68.8125 118.812V134H5.9375V121.125L35.3125 90C38.0625 86.8333 40.25 84.0417 41.875 81.625C43.5417 79.2083 44.75 77.0208 45.5 75.0625C46.25 73.0625 46.625 71.2292 46.625 69.5625C46.625 66.8542 46.1875 64.5625 45.3125 62.6875C44.4792 60.8125 43.25 59.375 41.625 58.375C40 57.375 38.0208 56.875 35.6875 56.875C33.1875 56.875 31.0417 57.5208 29.25 58.8125C27.4583 60.1042 26.0833 61.8958 25.125 64.1875C24.1667 66.4375 23.6875 69 23.6875 71.875H4.0625C4.0625 66.3333 5.39583 61.2917 8.0625 56.75C10.7292 52.1667 14.4583 48.5208 19.25 45.8125C24.0417 43.0625 29.6458 41.6875 36.0625 41.6875C42.6458 41.6875 48.1667 42.7292 52.625 44.8125C57.0833 46.8958 60.4583 49.875 62.75 53.75C65.0417 57.625 66.1875 62.2917 66.1875 67.75C66.1875 70.8333 65.6875 73.8125 64.6875 76.6875C63.7292 79.5625 62.3333 82.4167 60.5 85.25C58.6667 88.0833 56.4583 90.9792 53.875 93.9375C51.2917 96.8542 48.375 99.9375 45.125 103.188L31.375 118.812H68.8125Z"/>
</mask>
<path d="M68.8125 118.812V134H5.9375V121.125L35.3125 90C38.0625 86.8333 40.25 84.0417 41.875 81.625C43.5417 79.2083 44.75 77.0208 45.5 75.0625C46.25 73.0625 46.625 71.2292 46.625 69.5625C46.625 66.8542 46.1875 64.5625 45.3125 62.6875C44.4792 60.8125 43.25 59.375 41.625 58.375C40 57.375 38.0208 56.875 35.6875 56.875C33.1875 56.875 31.0417 57.5208 29.25 58.8125C27.4583 60.1042 26.0833 61.8958 25.125 64.1875C24.1667 66.4375 23.6875 69 23.6875 71.875H4.0625C4.0625 66.3333 5.39583 61.2917 8.0625 56.75C10.7292 52.1667 14.4583 48.5208 19.25 45.8125C24.0417 43.0625 29.6458 41.6875 36.0625 41.6875C42.6458 41.6875 48.1667 42.7292 52.625 44.8125C57.0833 46.8958 60.4583 49.875 62.75 53.75C65.0417 57.625 66.1875 62.2917 66.1875 67.75C66.1875 70.8333 65.6875 73.8125 64.6875 76.6875C63.7292 79.5625 62.3333 82.4167 60.5 85.25C58.6667 88.0833 56.4583 90.9792 53.875 93.9375C51.2917 96.8542 48.375 99.9375 45.125 103.188L31.375 118.812H68.8125Z" fill="#0A0B0A"/>
<path d="M68.8125 118.812H73.8125V113.812H68.8125V118.812ZM68.8125 134V139H73.8125V134H68.8125ZM5.9375 134H0.9375V139H5.9375V134ZM5.9375 121.125L2.30122 117.693L0.9375 119.138V121.125H5.9375ZM35.3125 90L38.9488 93.4318L39.0198 93.3566L39.0877 93.2784L35.3125 90ZM41.875 81.625L37.7589 78.7863L37.7422 78.8106L37.7258 78.835L41.875 81.625ZM45.5 75.0625L50.1693 76.8507L50.1755 76.8344L50.1816 76.8181L45.5 75.0625ZM45.3125 62.6875L40.7434 64.7182L40.7621 64.7602L40.7816 64.8019L45.3125 62.6875ZM25.125 64.1875L29.7251 66.1468L29.7316 66.1317L29.7379 66.1165L25.125 64.1875ZM23.6875 71.875V76.875H28.6875V71.875H23.6875ZM4.0625 71.875H-0.9375V76.875H4.0625V71.875ZM8.0625 56.75L12.3742 59.2816L12.3792 59.2731L12.3842 59.2645L8.0625 56.75ZM19.25 45.8125L21.7103 50.1653L21.7246 50.1572L21.7388 50.1491L19.25 45.8125ZM62.75 53.75L58.4463 56.2952L62.75 53.75ZM64.6875 76.6875L59.965 75.0449L59.9543 75.0756L59.9441 75.1064L64.6875 76.6875ZM53.875 93.9375L57.6179 97.2527L57.6296 97.2395L57.6412 97.2263L53.875 93.9375ZM45.125 103.188L41.5895 99.652L41.4767 99.7647L41.3714 99.8844L45.125 103.188ZM31.375 118.812L27.6214 115.509L20.3147 123.812H31.375V118.812ZM63.8125 118.812V134H73.8125V118.812H63.8125ZM68.8125 129H5.9375V139H68.8125V129ZM10.9375 134V121.125H0.9375V134H10.9375ZM9.57378 124.557L38.9488 93.4318L31.6762 86.5682L2.30122 117.693L9.57378 124.557ZM39.0877 93.2784C41.9192 90.0179 44.247 87.0581 46.0242 84.415L37.7258 78.835C36.253 81.0253 34.2058 83.6488 31.5373 86.7216L39.0877 93.2784ZM45.9911 84.4637C47.8009 81.8393 49.2334 79.2944 50.1693 76.8507L40.8307 73.2743C40.2666 74.7472 39.2824 76.5773 37.7589 78.7863L45.9911 84.4637ZM50.1816 76.8181C51.0857 74.4074 51.625 71.971 51.625 69.5625H41.625C41.625 70.4874 41.4143 71.7176 40.8184 73.3069L50.1816 76.8181ZM51.625 69.5625C51.625 66.3397 51.1073 63.2815 49.8434 60.5731L40.7816 64.8019C41.2677 65.8435 41.625 67.3686 41.625 69.5625H51.625ZM49.8816 60.6568C48.6708 57.9327 46.7956 55.686 44.2455 54.1167L39.0045 62.6333C39.7044 63.064 40.2875 63.6923 40.7434 64.7182L49.8816 60.6568ZM44.2455 54.1167C41.6734 52.5339 38.7397 51.875 35.6875 51.875V61.875C37.3019 61.875 38.3266 62.2161 39.0045 62.6333L44.2455 54.1167ZM35.6875 51.875C32.2821 51.875 29.079 52.7719 26.326 54.7566L32.174 62.8684C33.0043 62.2698 34.0929 61.875 35.6875 61.875V51.875ZM26.326 54.7566C23.6957 56.6529 21.7809 59.2245 20.5121 62.2585L29.7379 66.1165C30.3858 64.5672 31.221 63.5554 32.174 62.8684L26.326 54.7566ZM20.5249 62.2282C19.2605 65.1966 18.6875 68.4432 18.6875 71.875H28.6875C28.6875 69.5568 29.0728 67.6784 29.7251 66.1468L20.5249 62.2282ZM23.6875 66.875H4.0625V76.875H23.6875V66.875ZM9.0625 71.875C9.0625 67.175 10.1821 63.0151 12.3742 59.2816L3.7508 54.2184C0.609557 59.5683 -0.9375 65.4916 -0.9375 71.875H9.0625ZM12.3842 59.2645C14.5872 55.4781 17.6606 52.4543 21.7103 50.1653L16.7897 41.4597C11.2561 44.5874 6.87114 48.8552 3.74076 54.2355L12.3842 59.2645ZM21.7388 50.1491C25.6584 47.8996 30.3767 46.6875 36.0625 46.6875V36.6875C28.915 36.6875 22.425 38.2254 16.7612 41.4759L21.7388 50.1491ZM36.0625 46.6875C42.1492 46.6875 46.8967 47.6547 50.5083 49.3423L54.7417 40.2827C49.4366 37.8036 43.1424 36.6875 36.0625 36.6875V46.6875ZM50.5083 49.3423C54.1432 51.0409 56.7149 53.3676 58.4463 56.2952L67.0537 51.2048C64.2018 46.3824 60.0234 42.7507 54.7417 40.2827L50.5083 49.3423ZM58.4463 56.2952C60.1942 59.2507 61.1875 62.9969 61.1875 67.75H71.1875C71.1875 61.5864 69.8892 55.9993 67.0537 51.2048L58.4463 56.2952ZM61.1875 67.75C61.1875 70.2815 60.7789 72.705 59.965 75.0449L69.41 78.3301C70.5961 74.92 71.1875 71.3852 71.1875 67.75H61.1875ZM59.9441 75.1064C59.1331 77.5392 57.9321 80.0147 56.3022 82.5337L64.6979 87.9663C66.7346 84.8186 68.3252 81.5858 69.4309 78.2686L59.9441 75.1064ZM56.3022 82.5337C54.6178 85.1368 52.5596 87.8422 50.1088 90.6487L57.6412 97.2263C60.3571 94.1161 62.7155 91.0299 64.6979 87.9663L56.3022 82.5337ZM50.1321 90.6223C47.6262 93.4515 44.7804 96.4611 41.5895 99.652L48.6605 106.723C51.9696 103.414 54.9571 100.257 57.6179 97.2527L50.1321 90.6223ZM41.3714 99.8844L27.6214 115.509L35.1286 122.116L48.8786 106.491L41.3714 99.8844ZM31.375 123.812H68.8125V113.812H31.375V123.812Z" fill="#0A0B0A" mask="url(#path-4-outside-2_229_1551)"/>
</svg>
