<svg width="217" height="207" viewBox="0 0 217 207" fill="none" xmlns="http://www.w3.org/2000/svg">
<path d="M144.5 42.7174C175.407 -10.8219 137.889 77.0718 151.111 54.1688C164.332 31.2659 202.279 -21.5298 171.029 32.6044C139.778 86.7385 163.56 64.5792 182.018 32.6044C200.477 0.629545 157.721 116.78 182.018 74.6923C201.455 41.0219 212.153 34.6369 205.542 54.1688" stroke="#ED222F" stroke-width="18"/>
<rect x="17" y="31.5" width="159" height="159" rx="31.5" fill="#FAFAFA" stroke="#0A0B0A"/>
<rect x="0.5" y="47" width="160" height="160" rx="32" fill="#ED222F"/>
<path d="M80.5 143.666C74.9214 143.666 70.0657 147.883 67.5589 154.103C66.3616 157.074 68.0797 160.333 70.3626 160.333H90.6374C92.9204 160.333 94.6384 157.074 93.441 154.103C90.9344 147.883 86.0787 143.666 80.5 143.666Z" stroke="#FAFAFA" stroke-width="2.5" stroke-linecap="round"/>
<path d="M102.167 103.666H106.174C110.177 103.666 112.178 103.666 113.223 104.924C114.267 106.182 113.833 108.07 112.964 111.846L111.662 117.51C109.703 126.028 102.536 132.362 93.8333 133.666" stroke="#FAFAFA" stroke-width="2.5" stroke-linecap="round" stroke-linejoin="round"/>
<path d="M58.8334 103.666H54.826C50.8231 103.666 48.8217 103.666 47.7775 104.924C46.7333 106.182 47.1675 108.07 48.0359 111.846L49.3383 117.51C51.2972 126.028 58.4638 132.362 67.1667 133.666" stroke="#FAFAFA" stroke-width="2.5" stroke-linecap="round" stroke-linejoin="round"/>
<path d="M80.5 143.666C90.5693 143.666 99.05 128.126 101.599 106.969C102.304 101.118 102.657 98.1924 100.789 95.9292C98.9223 93.666 95.9076 93.666 89.878 93.666H71.1219C65.0925 93.666 62.0777 93.666 60.2105 95.9292C58.3433 98.1924 58.6958 101.118 59.4008 106.969C61.95 128.126 70.4307 143.666 80.5 143.666Z" stroke="#FAFAFA" stroke-width="2.5" stroke-linecap="round"/>
</svg>
